<svg width="894" height="51" viewBox="0 0 894 51" fill="none" xmlns="http://www.w3.org/2000/svg">
<circle cx="25.4932" cy="25.4932" r="25.4932" fill="#FC0035"/>
<path d="M28.533 36.4775H24.1413V24.4536L24.1839 22.478L24.255 20.3177C23.5254 21.0473 23.0185 21.5258 22.7342 21.7532L20.3465 23.6719L18.2288 21.0283L24.923 15.6985H28.533V36.4775Z" fill="white"/>
<path d="M65.8357 16.3526H66.7529C67.6518 16.3526 68.3152 16.2028 68.7433 15.9032C69.1713 15.6036 69.3853 15.1328 69.3853 14.4907C69.3853 13.8548 69.1652 13.4023 68.7249 13.1332C68.2908 12.8642 67.6151 12.7297 66.6979 12.7297H65.8357V16.3526ZM65.8357 18.664V23.8096H62.9924V10.4H66.8997C68.7219 10.4 70.0702 10.7332 70.9446 11.3997C71.819 12.0601 72.2562 13.066 72.2562 14.4173C72.2562 15.2061 72.0391 15.9093 71.605 16.5269C71.1708 17.1384 70.5563 17.6184 69.7614 17.9669C71.7792 20.9815 73.0939 22.929 73.7054 23.8096H70.5502L67.3491 18.664H65.8357ZM83.116 23.8096H75.393V10.4H83.116V12.7297H78.2364V15.6739H82.7766V18.0036H78.2364V21.4615H83.116V23.8096ZM91.0131 16.2793H96.333V23.2317C95.4708 23.513 94.6575 23.7087 93.8932 23.8187C93.135 23.9349 92.3584 23.993 91.5635 23.993C89.5395 23.993 87.9925 23.3999 86.9224 22.2136C85.8584 21.0213 85.3264 19.3122 85.3264 17.0864C85.3264 14.9218 85.944 13.2341 87.1792 12.0234C88.4205 10.8127 90.1387 10.2073 92.3339 10.2073C93.7097 10.2073 95.0366 10.4825 96.3146 11.0328L95.3699 13.3075C94.3915 12.8183 93.3734 12.5737 92.3156 12.5737C91.0865 12.5737 90.102 12.9865 89.3622 13.812C88.6223 14.6375 88.2523 15.7473 88.2523 17.1414C88.2523 18.5968 88.5489 19.7096 89.142 20.4801C89.7413 21.2444 90.6096 21.6266 91.7469 21.6266C92.34 21.6266 92.9423 21.5655 93.5538 21.4432V18.6457H91.0131V16.2793ZM99.534 23.8096V10.4H102.377V23.8096H99.534ZM113.668 20.0857C113.668 21.2964 113.231 22.2503 112.357 22.9474C111.488 23.6445 110.278 23.993 108.724 23.993C107.294 23.993 106.028 23.724 104.927 23.1859V20.5443C105.832 20.9479 106.597 21.2322 107.22 21.3973C107.85 21.5624 108.425 21.645 108.945 21.645C109.568 21.645 110.045 21.5257 110.375 21.2872C110.712 21.0488 110.88 20.6941 110.88 20.2233C110.88 19.9603 110.807 19.728 110.66 19.5262C110.513 19.3183 110.296 19.1196 110.009 18.93C109.727 18.7405 109.149 18.4378 108.275 18.022C107.456 17.6367 106.841 17.2668 106.431 16.9121C106.022 16.5575 105.695 16.1447 105.45 15.6739C105.205 15.2031 105.083 14.6528 105.083 14.0229C105.083 12.8367 105.484 11.9042 106.285 11.2254C107.092 10.5467 108.205 10.2073 109.623 10.2073C110.32 10.2073 110.984 10.2899 111.614 10.455C112.25 10.6201 112.913 10.8524 113.604 11.1521L112.687 13.3625C111.971 13.069 111.378 12.8642 110.907 12.748C110.443 12.6318 109.984 12.5737 109.532 12.5737C108.994 12.5737 108.581 12.6991 108.293 12.9498C108.006 13.2005 107.862 13.5276 107.862 13.9312C107.862 14.1819 107.92 14.402 108.037 14.5916C108.153 14.775 108.336 14.9554 108.587 15.1328C108.844 15.304 109.446 15.6158 110.394 16.0683C111.647 16.6676 112.506 17.2699 112.971 17.8752C113.436 18.4745 113.668 19.2113 113.668 20.0857ZM121.272 23.8096H118.429V12.7664H114.787V10.4H124.913V12.7664H121.272V23.8096ZM134.7 23.8096H126.977V10.4H134.7V12.7297H129.82V15.6739H134.361V18.0036H129.82V21.4615H134.7V23.8096ZM140.35 16.3526H141.267C142.166 16.3526 142.829 16.2028 143.257 15.9032C143.685 15.6036 143.9 15.1328 143.9 14.4907C143.9 13.8548 143.679 13.4023 143.239 13.1332C142.805 12.8642 142.129 12.7297 141.212 12.7297H140.35V16.3526ZM140.35 18.664V23.8096H137.507V10.4H141.414C143.236 10.4 144.584 10.7332 145.459 11.3997C146.333 12.0601 146.77 13.066 146.77 14.4173C146.77 15.2061 146.553 15.9093 146.119 16.5269C145.685 17.1384 145.07 17.6184 144.276 17.9669C146.293 20.9815 147.608 22.929 148.22 23.8096H145.064L141.863 18.664H140.35Z" fill="#DD0524"/>
<path d="M69.3709 37.1185C69.3709 38.1301 69.004 38.9189 68.2702 39.4849C67.5365 40.051 66.5406 40.334 65.2828 40.334C63.92 40.334 62.8718 40.1584 62.138 39.8073V38.5179C62.6097 38.7171 63.1234 38.8743 63.679 38.9896C64.2345 39.1049 64.7848 39.1626 65.3299 39.1626C66.2209 39.1626 66.8918 38.9949 67.3426 38.6594C67.7933 38.3188 68.0187 37.847 68.0187 37.2443C68.0187 36.846 67.9374 36.521 67.775 36.2694C67.6177 36.0126 67.3504 35.7768 66.973 35.5619C66.6009 35.347 66.0323 35.1033 65.267 34.8307C64.1978 34.4481 63.4326 33.9948 62.9714 33.4706C62.5154 32.9465 62.2874 32.2625 62.2874 31.4187C62.2874 30.5329 62.6202 29.828 63.2859 29.3039C63.9515 28.7798 64.832 28.5177 65.9274 28.5177C67.07 28.5177 68.1209 28.7273 69.08 29.1466L68.6633 30.3102C67.7147 29.9119 66.7922 29.7127 65.896 29.7127C65.1884 29.7127 64.6355 29.8647 64.2371 30.1687C63.8388 30.4727 63.6396 30.8946 63.6396 31.4344C63.6396 31.8328 63.713 32.1603 63.8598 32.4172C64.0065 32.6687 64.2529 32.902 64.5988 33.1169C64.9499 33.3265 65.4845 33.5597 66.2026 33.8166C67.4081 34.2463 68.2362 34.7076 68.6869 35.2002C69.1429 35.6929 69.3709 36.3323 69.3709 37.1185ZM72.8301 40.1768H71.525V31.5602H72.8301V40.1768ZM71.415 29.2253C71.415 28.9265 71.4883 28.709 71.6351 28.5727C71.7819 28.4312 71.9653 28.3605 72.1854 28.3605C72.3951 28.3605 72.5759 28.4312 72.7279 28.5727C72.8799 28.7142 72.9559 28.9318 72.9559 29.2253C72.9559 29.5188 72.8799 29.7389 72.7279 29.8857C72.5759 30.0272 72.3951 30.0979 72.1854 30.0979C71.9653 30.0979 71.7819 30.0272 71.6351 29.8857C71.4883 29.7389 71.415 29.5188 71.415 29.2253ZM82.6495 31.5602V32.3857L81.0535 32.5744C81.2003 32.7578 81.3313 32.9989 81.4466 33.2977C81.5619 33.5912 81.6196 33.924 81.6196 34.2961C81.6196 35.14 81.3313 35.8135 80.7548 36.3166C80.1783 36.8198 79.3868 37.0713 78.3805 37.0713C78.1237 37.0713 77.8826 37.0504 77.6572 37.0085C77.1017 37.302 76.8239 37.6715 76.8239 38.117C76.8239 38.3528 76.9209 38.5284 77.1148 38.6437C77.3087 38.7538 77.6415 38.8088 78.1132 38.8088H79.6384C80.5714 38.8088 81.2868 39.0053 81.7847 39.3984C82.2878 39.7915 82.5394 40.3628 82.5394 41.1123C82.5394 42.0662 82.1568 42.7921 81.3916 43.29C80.6264 43.7932 79.51 44.0448 78.0425 44.0448C76.9156 44.0448 76.0456 43.8351 75.4324 43.4158C74.8244 42.9965 74.5204 42.4043 74.5204 41.6391C74.5204 41.1149 74.6881 40.6616 75.0235 40.279C75.359 39.8964 75.8307 39.6369 76.4387 39.5006C76.2185 39.4011 76.0325 39.2464 75.8805 39.0368C75.7337 38.8271 75.6603 38.5834 75.6603 38.3056C75.6603 37.9912 75.7442 37.716 75.9119 37.4802C76.0796 37.2443 76.3443 37.0163 76.706 36.7962C76.2605 36.6127 75.8962 36.3009 75.6132 35.8606C75.3354 35.4204 75.1965 34.9172 75.1965 34.3512C75.1965 33.4077 75.4795 32.6818 76.0456 32.1734C76.6116 31.6598 77.4135 31.403 78.4513 31.403C78.902 31.403 79.3082 31.4554 79.6699 31.5602H82.6495ZM75.7783 41.6233C75.7783 42.0898 75.9748 42.4436 76.3679 42.6847C76.761 42.9258 77.3244 43.0463 78.0582 43.0463C79.1536 43.0463 79.9634 42.8812 80.4875 42.551C81.0169 42.2261 81.2815 41.7832 81.2815 41.2224C81.2815 40.7559 81.1374 40.431 80.8491 40.2475C80.5609 40.0693 80.0184 39.9802 79.2217 39.9802H77.6572C77.065 39.9802 76.6038 40.1217 76.2736 40.4048C75.9434 40.6878 75.7783 41.094 75.7783 41.6233ZM76.4858 34.3197C76.4858 34.9225 76.6562 35.3784 76.9969 35.6877C77.3375 35.9969 77.8119 36.1515 78.4198 36.1515C79.6935 36.1515 80.3303 35.5331 80.3303 34.2961C80.3303 33.0016 79.6856 32.3543 78.3963 32.3543C77.783 32.3543 77.3113 32.5194 76.9811 32.8496C76.6509 33.1798 76.4858 33.6698 76.4858 34.3197ZM90.3147 40.1768V34.6027C90.3147 33.9004 90.1549 33.3763 89.8352 33.0304C89.5155 32.6845 89.0149 32.5115 88.3336 32.5115C87.4321 32.5115 86.7717 32.7552 86.3524 33.2426C85.9331 33.7301 85.7235 34.5346 85.7235 35.6562V40.1768H84.4184V31.5602H85.4797L85.692 32.7395H85.7549C86.0222 32.315 86.3969 31.9874 86.8791 31.7568C87.3613 31.5209 87.8986 31.403 88.4908 31.403C89.5286 31.403 90.3095 31.6546 90.8336 32.1577C91.3577 32.6556 91.6198 33.4549 91.6198 34.5556V40.1768H90.3147ZM99.7175 31.5602V37.15C99.7175 37.8523 99.8773 38.3764 100.197 38.7223C100.517 39.0682 101.017 39.2412 101.699 39.2412C102.6 39.2412 103.258 38.9949 103.672 38.5022C104.091 38.0095 104.301 37.205 104.301 36.0886V31.5602H105.606V40.1768H104.529L104.34 39.0211H104.269C104.002 39.4456 103.63 39.7706 103.153 39.9959C102.681 40.2213 102.142 40.334 101.534 40.334C100.485 40.334 99.6991 40.085 99.175 39.5871C98.6561 39.0892 98.3967 38.2925 98.3967 37.1971V31.5602H99.7175ZM112.391 40.334C111.83 40.334 111.316 40.2318 110.85 40.0274C110.389 39.8177 110.001 39.498 109.686 39.0682H109.592C109.655 39.5714 109.686 40.0483 109.686 40.4991V44.0448H108.381V31.5602H109.443L109.623 32.7395H109.686C110.022 32.2678 110.412 31.9271 110.858 31.7175C111.303 31.5078 111.814 31.403 112.391 31.403C113.533 31.403 114.414 31.7935 115.032 32.5744C115.656 33.3553 115.968 34.4507 115.968 35.8606C115.968 37.2758 115.651 38.3764 115.017 39.1626C114.388 39.9435 113.512 40.334 112.391 40.334ZM112.202 32.5115C111.321 32.5115 110.685 32.7552 110.292 33.2426C109.899 33.7301 109.697 34.5058 109.686 35.5697V35.8606C109.686 37.0713 109.888 37.9388 110.292 38.4629C110.695 38.9818 111.342 39.2412 112.233 39.2412C112.978 39.2412 113.559 38.9398 113.979 38.3371C114.403 37.7344 114.616 36.9036 114.616 35.8449C114.616 34.7705 114.403 33.9476 113.979 33.3763C113.559 32.7998 112.967 32.5115 112.202 32.5115ZM125.221 39.2569C125.452 39.2569 125.675 39.2412 125.889 39.2098C126.104 39.1731 126.275 39.1364 126.4 39.0997V40.0981C126.259 40.1663 126.049 40.2213 125.771 40.2632C125.499 40.3104 125.253 40.334 125.032 40.334C123.366 40.334 122.532 39.4561 122.532 37.7003V32.5744H121.298V31.9454L122.532 31.403L123.083 29.5633H123.837V31.5602H126.338V32.5744H123.837V37.6453C123.837 38.1641 123.961 38.5625 124.207 38.8403C124.453 39.118 124.791 39.2569 125.221 39.2569ZM135.567 35.8606C135.567 37.2653 135.214 38.3633 134.506 39.1547C133.798 39.9409 132.821 40.334 131.574 40.334C130.803 40.334 130.119 40.1532 129.522 39.7915C128.924 39.4299 128.463 38.911 128.138 38.2349C127.813 37.5588 127.65 36.7674 127.65 35.8606C127.65 34.456 128.002 33.3632 128.704 32.5823C129.406 31.7961 130.381 31.403 131.629 31.403C132.834 31.403 133.791 31.8039 134.498 32.6058C135.211 33.4077 135.567 34.4927 135.567 35.8606ZM129.003 35.8606C129.003 36.9613 129.223 37.7999 129.663 38.3764C130.103 38.9529 130.751 39.2412 131.605 39.2412C132.459 39.2412 133.107 38.9556 133.547 38.3843C133.992 37.8077 134.215 36.9665 134.215 35.8606C134.215 34.7652 133.992 33.9345 133.547 33.3684C133.107 32.7971 132.454 32.5115 131.589 32.5115C130.735 32.5115 130.09 32.7919 129.655 33.3527C129.22 33.9135 129.003 34.7495 129.003 35.8606ZM140.567 43.2036C140.075 43.2036 139.687 43.1328 139.404 42.9913V41.8513C139.776 41.9561 140.164 42.0086 140.567 42.0086C141.086 42.0086 141.479 41.8513 141.747 41.5369C142.019 41.2224 142.155 40.769 142.155 40.1768V28.6828H143.492V40.0667C143.492 41.0625 143.24 41.833 142.737 42.3781C142.234 42.9284 141.511 43.2036 140.567 43.2036ZM151.653 40.1768L151.393 38.9503H151.33C150.9 39.4902 150.471 39.857 150.041 40.051C149.616 40.2397 149.084 40.334 148.445 40.334C147.591 40.334 146.92 40.1139 146.432 39.6736C145.95 39.2333 145.709 38.607 145.709 37.7946C145.709 36.0546 147.101 35.1426 149.884 35.0587L151.346 35.0116V34.4769C151.346 33.8008 151.199 33.3029 150.906 32.9832C150.617 32.6583 150.154 32.4958 149.514 32.4958C148.796 32.4958 147.984 32.7159 147.077 33.1562L146.676 32.1577C147.101 31.9271 147.564 31.7463 148.068 31.6153C148.576 31.4842 149.084 31.4187 149.593 31.4187C150.62 31.4187 151.38 31.6467 151.873 32.1027C152.371 32.5587 152.62 33.2898 152.62 34.2961V40.1768H151.653ZM148.704 39.2569C149.517 39.2569 150.154 39.0342 150.615 38.5887C151.081 38.1432 151.314 37.5195 151.314 36.7176V35.9392L150.009 35.9943C148.972 36.031 148.222 36.1934 147.761 36.4817C147.305 36.7647 147.077 37.2076 147.077 37.8104C147.077 38.2821 147.218 38.6411 147.502 38.8874C147.79 39.1338 148.191 39.2569 148.704 39.2569ZM160.827 40.1768H154.577V39.2884L159.278 32.5744H154.868V31.5602H160.709V32.5744L156.071 39.1626H160.827V40.1768ZM168.359 40.1768H162.109V39.2884L166.81 32.5744H162.4V31.5602H168.241V32.5744L163.602 39.1626H168.359V40.1768ZM169.011 31.5602H170.411L172.298 36.4738C172.712 37.5955 172.969 38.4052 173.068 38.9031H173.131C173.199 38.6358 173.341 38.1799 173.556 37.5352C173.776 36.8853 174.488 34.8936 175.694 31.5602H177.093L173.39 41.3718C173.024 42.3414 172.594 43.028 172.101 43.4315C171.614 43.8404 171.014 44.0448 170.301 44.0448C169.902 44.0448 169.509 44.0002 169.121 43.9111V42.8655C169.41 42.9284 169.732 42.9598 170.088 42.9598C170.985 42.9598 171.624 42.4567 172.007 41.4504L172.486 40.2239L169.011 31.5602ZM189.358 37.1185C189.358 38.1301 188.991 38.9189 188.257 39.4849C187.523 40.051 186.528 40.334 185.27 40.334C183.907 40.334 182.859 40.1584 182.125 39.8073V38.5179C182.597 38.7171 183.11 38.8743 183.666 38.9896C184.221 39.1049 184.772 39.1626 185.317 39.1626C186.208 39.1626 186.879 38.9949 187.329 38.6594C187.78 38.3188 188.006 37.847 188.006 37.2443C188.006 36.846 187.924 36.521 187.762 36.2694C187.605 36.0126 187.337 35.7768 186.96 35.5619C186.588 35.347 186.019 35.1033 185.254 34.8307C184.185 34.4481 183.419 33.9948 182.958 33.4706C182.502 32.9465 182.274 32.2625 182.274 31.4187C182.274 30.5329 182.607 29.828 183.273 29.3039C183.938 28.7798 184.819 28.5177 185.914 28.5177C187.057 28.5177 188.108 28.7273 189.067 29.1466L188.65 30.3102C187.702 29.9119 186.779 29.7127 185.883 29.7127C185.175 29.7127 184.622 29.8647 184.224 30.1687C183.826 30.4727 183.627 30.8946 183.627 31.4344C183.627 31.8328 183.7 32.1603 183.847 32.4172C183.993 32.6687 184.24 32.902 184.586 33.1169C184.937 33.3265 185.471 33.5597 186.189 33.8166C187.395 34.2463 188.223 34.7076 188.674 35.2002C189.13 35.6929 189.358 36.3323 189.358 37.1185ZM195.521 40.334C194.961 40.334 194.447 40.2318 193.981 40.0274C193.519 39.8177 193.131 39.498 192.817 39.0682H192.723C192.786 39.5714 192.817 40.0483 192.817 40.4991V44.0448H191.512V31.5602H192.573L192.754 32.7395H192.817C193.152 32.2678 193.543 31.9271 193.988 31.7175C194.434 31.5078 194.945 31.403 195.521 31.403C196.664 31.403 197.545 31.7935 198.163 32.5744C198.787 33.3553 199.099 34.4507 199.099 35.8606C199.099 37.2758 198.781 38.3764 198.147 39.1626C197.518 39.9435 196.643 40.334 195.521 40.334ZM195.333 32.5115C194.452 32.5115 193.815 32.7552 193.422 33.2426C193.029 33.7301 192.827 34.5058 192.817 35.5697V35.8606C192.817 37.0713 193.019 37.9388 193.422 38.4629C193.826 38.9818 194.473 39.2412 195.364 39.2412C196.108 39.2412 196.69 38.9398 197.11 38.3371C197.534 37.7344 197.746 36.9036 197.746 35.8449C197.746 34.7705 197.534 33.9476 197.11 33.3763C196.69 32.7998 196.098 32.5115 195.333 32.5115ZM202.691 40.1768H201.386V31.5602H202.691V40.1768ZM201.276 29.2253C201.276 28.9265 201.35 28.709 201.496 28.5727C201.643 28.4312 201.827 28.3605 202.047 28.3605C202.256 28.3605 202.437 28.4312 202.589 28.5727C202.741 28.7142 202.817 28.9318 202.817 29.2253C202.817 29.5188 202.741 29.7389 202.589 29.8857C202.437 30.0272 202.256 30.0979 202.047 30.0979C201.827 30.0979 201.643 30.0272 201.496 29.8857C201.35 29.7389 201.276 29.5188 201.276 29.2253ZM211.355 40.1768V34.6027C211.355 33.9004 211.195 33.3763 210.876 33.0304C210.556 32.6845 210.055 32.5115 209.374 32.5115C208.472 32.5115 207.812 32.7552 207.393 33.2426C206.973 33.7301 206.764 34.5346 206.764 35.6562V40.1768H205.459V31.5602H206.52L206.732 32.7395H206.795C207.063 32.315 207.437 31.9874 207.919 31.7568C208.402 31.5209 208.939 31.403 209.531 31.403C210.569 31.403 211.35 31.6546 211.874 32.1577C212.398 32.6556 212.66 33.4549 212.66 34.5556V40.1768H211.355ZM220.907 37.8261C220.907 38.628 220.608 39.2464 220.011 39.6815C219.413 40.1165 218.575 40.334 217.495 40.334C216.353 40.334 215.462 40.1532 214.822 39.7915V38.5808C215.236 38.7905 215.679 38.9556 216.151 39.0761C216.628 39.1967 217.086 39.2569 217.527 39.2569C218.208 39.2569 218.732 39.1495 219.099 38.9346C219.466 38.7145 219.649 38.3816 219.649 37.9361C219.649 37.6007 219.503 37.3151 219.209 37.0792C218.921 36.8381 218.355 36.5551 217.511 36.2301C216.709 35.9314 216.138 35.6719 215.797 35.4518C215.462 35.2264 215.21 34.9722 215.042 34.6892C214.88 34.4062 214.799 34.0681 214.799 33.675C214.799 32.9727 215.084 32.4198 215.656 32.0162C216.227 31.6074 217.01 31.403 218.006 31.403C218.934 31.403 219.841 31.5917 220.726 31.969L220.263 33.0304C219.398 32.674 218.614 32.4958 217.912 32.4958C217.293 32.4958 216.827 32.5927 216.512 32.7867C216.198 32.9806 216.041 33.2479 216.041 33.5886C216.041 33.8192 216.098 34.0157 216.214 34.1782C216.334 34.3407 216.526 34.4953 216.788 34.642C217.05 34.7888 217.553 35.0011 218.297 35.2789C219.319 35.651 220.008 36.0257 220.365 36.4031C220.726 36.7805 220.907 37.2548 220.907 37.8261Z" fill="#5E5E5E"/>
<path d="M276.991 2.0127L290.548 25.4933H283.253L276.991 2.0127Z" fill="#FC0035"/>
<path d="M276.991 48.9736L290.548 25.493H283.253L276.991 48.9736Z" fill="#DD0524"/>
<circle cx="366.571" cy="25.4932" r="25.4932" fill="#FC0035"/>
<path d="M373.278 36.4775H358.752V33.4218L363.968 28.1489C365.513 26.5665 366.522 25.4722 366.996 24.8657C367.469 24.2499 367.811 23.6814 368.019 23.1602C368.228 22.6391 368.332 22.099 368.332 21.54C368.332 20.7062 368.1 20.0855 367.635 19.6781C367.18 19.2707 366.569 19.067 365.802 19.067C364.996 19.067 364.215 19.2517 363.457 19.6213C362.699 19.9908 361.908 20.5167 361.083 21.1989L358.696 18.3705C359.719 17.4988 360.567 16.8829 361.24 16.5229C361.912 16.1628 362.647 15.888 363.443 15.6985C364.238 15.4996 365.129 15.4001 366.115 15.4001C367.413 15.4001 368.559 15.637 369.554 16.1107C370.549 16.5845 371.321 17.2477 371.871 18.1005C372.42 18.9533 372.695 19.9292 372.695 21.0283C372.695 21.9853 372.524 22.8854 372.183 23.7287C371.852 24.5625 371.331 25.42 370.62 26.3012C369.919 27.1824 368.678 28.4379 366.896 30.0676L364.224 32.5833V32.7822H373.278V36.4775Z" fill="white"/>
<path d="M415.196 16.9764C415.196 19.1838 414.566 20.8745 413.306 22.0485C412.053 23.2226 410.24 23.8096 407.867 23.8096H404.07V10.4H408.28C410.469 10.4 412.169 10.9778 413.38 12.1335C414.59 13.2892 415.196 14.9035 415.196 16.9764ZM412.242 17.0497C412.242 14.1697 410.97 12.7297 408.427 12.7297H406.913V21.4615H408.133C410.873 21.4615 412.242 19.9909 412.242 17.0497ZM425.698 23.8096H417.975V10.4H425.698V12.7297H420.818V15.6739H425.358V18.0036H420.818V21.4615H425.698V23.8096ZM431.348 16.7104H432.283C433.158 16.7104 433.812 16.5391 434.246 16.1967C434.68 15.8482 434.897 15.3437 434.897 14.6833C434.897 14.0168 434.714 13.5246 434.347 13.2066C433.986 12.8886 433.418 12.7297 432.641 12.7297H431.348V16.7104ZM437.768 14.5824C437.768 16.0255 437.316 17.1292 436.411 17.8936C435.512 18.6579 434.231 19.0401 432.568 19.0401H431.348V23.8096H428.504V10.4H432.788C434.414 10.4 435.65 10.7515 436.493 11.4547C437.343 12.1518 437.768 13.1944 437.768 14.5824ZM452.471 17.0864C452.471 19.3061 451.921 21.0121 450.82 22.2045C449.72 23.3968 448.142 23.993 446.087 23.993C444.033 23.993 442.455 23.3968 441.355 22.2045C440.254 21.0121 439.704 19.3 439.704 17.0681C439.704 14.8362 440.254 13.1332 441.355 11.9592C442.461 10.7791 444.045 10.189 446.106 10.189C448.166 10.189 449.741 10.7821 450.829 11.9684C451.924 13.1546 452.471 14.8607 452.471 17.0864ZM442.685 17.0864C442.685 18.5845 442.969 19.7127 443.538 20.4709C444.106 21.2292 444.956 21.6083 446.087 21.6083C448.356 21.6083 449.49 20.101 449.49 17.0864C449.49 14.0657 448.362 12.5554 446.106 12.5554C444.975 12.5554 444.122 12.9376 443.547 13.7019C442.972 14.4601 442.685 15.5883 442.685 17.0864ZM463.166 20.0857C463.166 21.2964 462.729 22.2503 461.854 22.9474C460.986 23.6445 459.775 23.993 458.222 23.993C456.791 23.993 455.526 23.724 454.425 23.1859V20.5443C455.33 20.9479 456.094 21.2322 456.718 21.3973C457.348 21.5624 457.922 21.645 458.442 21.645C459.066 21.645 459.543 21.5257 459.873 21.2872C460.209 21.0488 460.378 20.6941 460.378 20.2233C460.378 19.9603 460.304 19.728 460.157 19.5262C460.011 19.3183 459.794 19.1196 459.506 18.93C459.225 18.7405 458.647 18.4378 457.773 18.022C456.953 17.6367 456.339 17.2668 455.929 16.9121C455.519 16.5575 455.192 16.1447 454.948 15.6739C454.703 15.2031 454.581 14.6528 454.581 14.0229C454.581 12.8367 454.981 11.9042 455.782 11.2254C456.589 10.5467 457.702 10.2073 459.121 10.2073C459.818 10.2073 460.482 10.2899 461.111 10.455C461.747 10.6201 462.411 10.8524 463.102 11.1521L462.184 13.3625C461.469 13.069 460.876 12.8642 460.405 12.748C459.94 12.6318 459.482 12.5737 459.029 12.5737C458.491 12.5737 458.078 12.6991 457.791 12.9498C457.504 13.2005 457.36 13.5276 457.36 13.9312C457.36 14.1819 457.418 14.402 457.534 14.5916C457.65 14.775 457.834 14.9554 458.085 15.1328C458.341 15.304 458.944 15.6158 459.891 16.0683C461.145 16.6676 462.004 17.2699 462.469 17.8752C462.934 18.4745 463.166 19.2113 463.166 20.0857ZM465.596 23.8096V10.4H468.44V23.8096H465.596ZM476.988 23.8096H474.145V12.7664H470.504V10.4H480.63V12.7664H476.988V23.8096Z" fill="#DD0524"/>
<path d="M408.632 29.697C406.961 29.697 405.918 30.7531 405.503 32.8653H409.513V33.8795H405.393L405.378 34.3276V34.8307L405.393 35.1845H409.033V36.1987H405.519C405.713 37.1421 406.075 37.8732 406.604 38.3921C407.139 38.9058 407.852 39.1626 408.743 39.1626C409.56 39.1626 410.37 38.9896 411.172 38.6437V39.823C410.407 40.1637 409.576 40.334 408.68 40.334C407.437 40.334 406.436 39.9828 405.676 39.2805C404.922 38.5729 404.424 37.5457 404.183 36.1987H402.878V35.1845H404.073L404.057 34.8543V34.5084L404.073 33.8795H402.878V32.8653H404.167C404.371 31.4973 404.856 30.4307 405.621 29.6655C406.387 28.9003 407.39 28.5177 408.632 28.5177C409.686 28.5177 410.645 28.7719 411.51 29.2803L410.952 30.3731C410.082 29.9223 409.309 29.697 408.632 29.697ZM417.626 28.6828L413.342 40.1768H412.037L416.321 28.6828H417.626ZM425.936 36.6468C425.936 37.3596 425.669 37.9492 425.134 38.4157C424.6 38.8769 423.853 39.1678 422.894 39.2884V41.1123H421.88V39.3591C421.293 39.3591 420.724 39.3146 420.174 39.2255C419.623 39.1311 419.173 39.0027 418.821 38.8403V37.6138C419.256 37.8077 419.757 37.9676 420.323 38.0934C420.894 38.2139 421.413 38.2742 421.88 38.2742V34.815C420.805 34.4743 420.05 34.0786 419.615 33.6279C419.186 33.1771 418.971 32.5954 418.971 31.8826C418.971 31.196 419.235 30.6325 419.765 30.1923C420.299 29.752 421.004 29.4847 421.88 29.3904V27.9595H422.894V29.3746C423.858 29.4008 424.788 29.5948 425.685 29.9564L425.276 30.9863C424.495 30.6771 423.701 30.4936 422.894 30.436V33.848C423.717 34.1101 424.332 34.3669 424.741 34.6185C425.15 34.8648 425.451 35.1504 425.645 35.4754C425.839 35.7951 425.936 36.1856 425.936 36.6468ZM424.6 36.749C424.6 36.3716 424.482 36.0677 424.246 35.837C424.015 35.6012 423.565 35.368 422.894 35.1373V38.1956C424.031 38.0383 424.6 37.5562 424.6 36.749ZM420.299 31.8668C420.299 32.2652 420.417 32.5849 420.653 32.826C420.889 33.0671 421.298 33.2951 421.88 33.5099V30.4674C421.361 30.5513 420.968 30.7164 420.7 30.9627C420.433 31.2038 420.299 31.5052 420.299 31.8668ZM432.627 40.1768H431.353V31.9848C431.353 31.3034 431.374 30.6587 431.416 30.0508C431.306 30.1608 431.183 30.2761 431.046 30.3967C430.91 30.5172 430.286 31.0282 429.175 31.9297L428.484 31.0335L431.526 28.6828H432.627V40.1768ZM444.624 34.4141C444.624 36.4005 444.309 37.8837 443.68 38.8638C443.057 39.8439 442.1 40.334 440.811 40.334C439.574 40.334 438.633 39.8335 437.988 38.8324C437.344 37.8261 437.021 36.3533 437.021 34.4141C437.021 32.4119 437.333 30.926 437.957 29.9564C438.581 28.9868 439.532 28.502 440.811 28.502C442.058 28.502 443.004 29.0078 443.649 30.0193C444.299 31.0309 444.624 32.4958 444.624 34.4141ZM438.342 34.4141C438.342 36.086 438.539 37.3046 438.932 38.0698C439.325 38.8298 439.951 39.2098 440.811 39.2098C441.681 39.2098 442.31 38.8245 442.698 38.0541C443.091 37.2784 443.287 36.065 443.287 34.4141C443.287 32.7631 443.091 31.555 442.698 30.7898C442.31 30.0193 441.681 29.6341 440.811 29.6341C439.951 29.6341 439.325 30.0141 438.932 30.774C438.539 31.5288 438.342 32.7421 438.342 34.4141ZM458.437 35.8606C458.437 37.2653 458.083 38.3633 457.376 39.1547C456.668 39.9409 455.691 40.334 454.443 40.334C453.673 40.334 452.989 40.1532 452.391 39.7915C451.794 39.4299 451.333 38.911 451.008 38.2349C450.683 37.5588 450.52 36.7674 450.52 35.8606C450.52 34.456 450.871 33.3632 451.574 32.5823C452.276 31.7961 453.251 31.403 454.498 31.403C455.704 31.403 456.66 31.8039 457.368 32.6058C458.081 33.4077 458.437 34.4927 458.437 35.8606ZM451.872 35.8606C451.872 36.9613 452.093 37.7999 452.533 38.3764C452.973 38.9529 453.62 39.2412 454.475 39.2412C455.329 39.2412 455.976 38.9556 456.417 38.3843C456.862 37.8077 457.085 36.9665 457.085 35.8606C457.085 34.7652 456.862 33.9345 456.417 33.3684C455.976 32.7971 455.324 32.5115 454.459 32.5115C453.605 32.5115 452.96 32.7919 452.525 33.3527C452.09 33.9135 451.872 34.7495 451.872 35.8606ZM464.664 31.403C465.046 31.403 465.389 31.4344 465.693 31.4973L465.513 32.708C465.156 32.6294 464.842 32.5901 464.569 32.5901C463.872 32.5901 463.275 32.8731 462.777 33.4392C462.284 34.0052 462.038 34.7102 462.038 35.554V40.1768H460.733V31.5602H461.81L461.959 33.1562H462.022C462.342 32.5954 462.727 32.163 463.178 31.859C463.628 31.555 464.124 31.403 464.664 31.403ZM482.471 40.1768V34.5713C482.471 33.8847 482.324 33.3711 482.03 33.0304C481.737 32.6845 481.281 32.5115 480.662 32.5115C479.85 32.5115 479.25 32.7447 478.862 33.2112C478.474 33.6777 478.28 34.3957 478.28 35.3653V40.1768H476.975V34.5713C476.975 33.8847 476.828 33.3711 476.535 33.0304C476.241 32.6845 475.783 32.5115 475.159 32.5115C474.341 32.5115 473.741 32.7578 473.359 33.2505C472.981 33.7379 472.793 34.5398 472.793 35.6562V40.1768H471.488V31.5602H472.549L472.761 32.7395H472.824C473.07 32.3202 473.416 31.9926 473.862 31.7568C474.313 31.5209 474.816 31.403 475.371 31.403C476.718 31.403 477.599 31.8904 478.013 32.8653H478.076C478.333 32.4145 478.705 32.0581 479.192 31.7961C479.68 31.534 480.235 31.403 480.859 31.403C481.834 31.403 482.562 31.6546 483.044 32.1577C483.532 32.6556 483.776 33.4549 483.776 34.5556V40.1768H482.471ZM493.909 35.8606C493.909 37.2653 493.556 38.3633 492.848 39.1547C492.141 39.9409 491.163 40.334 489.916 40.334C489.145 40.334 488.461 40.1532 487.864 39.7915C487.266 39.4299 486.805 38.911 486.48 38.2349C486.155 37.5588 485.993 36.7674 485.993 35.8606C485.993 34.456 486.344 33.3632 487.046 32.5823C487.748 31.7961 488.723 31.403 489.971 31.403C491.176 31.403 492.133 31.8039 492.84 32.6058C493.553 33.4077 493.909 34.4927 493.909 35.8606ZM487.345 35.8606C487.345 36.9613 487.565 37.7999 488.005 38.3764C488.446 38.9529 489.093 39.2412 489.947 39.2412C490.801 39.2412 491.449 38.9556 491.889 38.3843C492.334 37.8077 492.557 36.9665 492.557 35.8606C492.557 34.7652 492.334 33.9345 491.889 33.3684C491.449 32.7971 490.796 32.5115 489.931 32.5115C489.077 32.5115 488.432 32.7919 487.997 33.3527C487.562 33.9135 487.345 34.7495 487.345 35.8606ZM500.136 31.403C500.519 31.403 500.862 31.4344 501.166 31.4973L500.985 32.708C500.629 32.6294 500.314 32.5901 500.042 32.5901C499.345 32.5901 498.747 32.8731 498.249 33.4392C497.757 34.0052 497.51 34.7102 497.51 35.554V40.1768H496.205V31.5602H497.282L497.432 33.1562H497.494C497.814 32.5954 498.199 32.163 498.65 31.859C499.101 31.555 499.596 31.403 500.136 31.403ZM506.418 40.334C505.144 40.334 504.138 39.9461 503.399 39.1704C502.665 38.3947 502.298 37.3177 502.298 35.9392C502.298 34.5503 502.639 33.4471 503.32 32.6294C504.007 31.8118 504.926 31.403 506.08 31.403C507.159 31.403 508.014 31.7594 508.642 32.4722C509.271 33.1798 509.586 34.1153 509.586 35.2789V36.1043H503.65C503.676 37.1159 503.931 37.8837 504.413 38.4079C504.9 38.932 505.584 39.194 506.465 39.194C507.392 39.194 508.31 39.0001 509.216 38.6123V39.7758C508.755 39.975 508.318 40.1165 507.903 40.2003C507.495 40.2894 506.999 40.334 506.418 40.334ZM506.064 32.4958C505.372 32.4958 504.819 32.7211 504.405 33.1719C503.996 33.6226 503.755 34.2463 503.682 35.043H508.186C508.186 34.2201 508.003 33.5912 507.636 33.1562C507.269 32.7159 506.745 32.4958 506.064 32.4958Z" fill="#5E5E5E"/>
<path d="M566.069 2.0127L579.625 25.4933H572.33L566.069 2.0127Z" fill="#FC0035"/>
<path d="M566.069 48.9736L579.625 25.493H572.33L566.069 48.9736Z" fill="#DD0524"/>
<circle cx="655.649" cy="25.4932" r="25.4932" fill="#FC0035"/>
<path d="M661.545 20.3461C661.545 21.6442 661.152 22.7481 660.366 23.6577C659.579 24.5673 658.475 25.1926 657.054 25.5337V25.619C658.731 25.8275 660.001 26.3391 660.863 27.154C661.725 27.9594 662.156 29.049 662.156 30.4229C662.156 32.4222 661.432 33.9808 659.982 35.0989C658.532 36.2075 656.462 36.7618 653.771 36.7618C651.516 36.7618 649.517 36.3875 647.773 35.639V31.901C648.579 32.3085 649.464 32.6401 650.431 32.8959C651.397 33.1518 652.354 33.2797 653.302 33.2797C654.752 33.2797 655.822 33.0333 656.514 32.5406C657.206 32.0479 657.551 31.2567 657.551 30.1671C657.551 29.1912 657.154 28.4995 656.358 28.092C655.562 27.6846 654.292 27.4809 652.549 27.4809H650.971V24.1125H652.577C654.188 24.1125 655.363 23.904 656.102 23.4871C656.85 23.0607 657.225 22.3359 657.225 21.3126C657.225 19.7397 656.239 18.9533 654.268 18.9533C653.586 18.9533 652.89 19.067 652.179 19.2944C651.478 19.5218 650.696 19.915 649.834 20.474L647.802 17.4467C649.697 16.0823 651.956 15.4001 654.581 15.4001C656.732 15.4001 658.428 15.8359 659.669 16.7076C660.92 17.5794 661.545 18.7922 661.545 20.3461Z" fill="white"/>
<path d="M709.588 16.2793H714.908V23.2317C714.046 23.513 713.232 23.7087 712.468 23.8187C711.71 23.9349 710.933 23.993 710.138 23.993C708.114 23.993 706.567 23.3999 705.497 22.2136C704.433 21.0213 703.901 19.3122 703.901 17.0864C703.901 14.9218 704.519 13.2341 705.754 12.0234C706.995 10.8127 708.714 10.2073 710.909 10.2073C712.285 10.2073 713.611 10.4825 714.889 11.0328L713.945 13.3075C712.966 12.8183 711.948 12.5737 710.89 12.5737C709.661 12.5737 708.677 12.9865 707.937 13.812C707.197 14.6375 706.827 15.7473 706.827 17.1414C706.827 18.5968 707.124 19.7096 707.717 20.4801C708.316 21.2444 709.184 21.6266 710.322 21.6266C710.915 21.6266 711.517 21.5655 712.129 21.4432V18.6457H709.588V16.2793ZM725.832 23.8096H718.109V10.4H725.832V12.7297H720.952V15.6739H725.492V18.0036H720.952V21.4615H725.832V23.8096ZM733.812 23.8096H730.968V12.7664H727.327V10.4H737.453V12.7664H733.812V23.8096ZM744.396 10.4H748.569C750.471 10.4 751.85 10.6721 752.706 11.2163C753.568 11.7544 753.999 12.6135 753.999 13.7936C753.999 14.5947 753.81 15.252 753.431 15.7656C753.058 16.2793 752.559 16.5881 751.936 16.692V16.7837C752.786 16.9733 753.397 17.3279 753.77 17.8477C754.149 18.3675 754.339 19.0584 754.339 19.9206C754.339 21.1435 753.895 22.0974 753.009 22.7823C752.128 23.4671 750.93 23.8096 749.413 23.8096H744.396V10.4ZM747.239 15.7106H748.89C749.661 15.7106 750.217 15.5914 750.56 15.3529C750.908 15.1144 751.083 14.72 751.083 14.1697C751.083 13.656 750.893 13.2892 750.514 13.069C750.141 12.8428 749.548 12.7297 748.735 12.7297H747.239V15.7106ZM747.239 17.9669V21.4615H749.092C749.875 21.4615 750.453 21.3117 750.826 21.0121C751.199 20.7125 751.385 20.2539 751.385 19.6363C751.385 18.5234 750.59 17.9669 749.001 17.9669H747.239ZM769.188 17.0864C769.188 19.3061 768.638 21.0121 767.537 22.2045C766.437 23.3968 764.859 23.993 762.805 23.993C760.75 23.993 759.172 23.3968 758.072 22.2045C756.971 21.0121 756.421 19.3 756.421 17.0681C756.421 14.8362 756.971 13.1332 758.072 11.9592C759.179 10.7791 760.762 10.189 762.823 10.189C764.884 10.189 766.458 10.7821 767.547 11.9684C768.641 13.1546 769.188 14.8607 769.188 17.0864ZM759.402 17.0864C759.402 18.5845 759.686 19.7127 760.255 20.4709C760.823 21.2292 761.673 21.6083 762.805 21.6083C765.073 21.6083 766.207 20.101 766.207 17.0864C766.207 14.0657 765.079 12.5554 762.823 12.5554C761.692 12.5554 760.839 12.9376 760.264 13.7019C759.689 14.4601 759.402 15.5883 759.402 17.0864ZM783.864 23.8096H780.25L774.416 13.6652H774.334C774.45 15.4568 774.508 16.7348 774.508 17.4992V23.8096H771.967V10.4H775.554L781.378 20.4434H781.442C781.351 18.7007 781.305 17.4686 781.305 16.747V10.4H783.864V23.8096ZM798.163 10.4V19.0768C798.163 20.0674 797.94 20.9356 797.493 21.6816C797.053 22.4276 796.414 22.9994 795.576 23.3968C794.739 23.7943 793.748 23.993 792.605 23.993C790.88 23.993 789.541 23.5528 788.587 22.6722C787.633 21.7856 787.157 20.5749 787.157 19.0401V10.4H789.991V18.609C789.991 19.6424 790.199 20.4006 790.614 20.8837C791.03 21.3667 791.718 21.6083 792.678 21.6083C793.608 21.6083 794.28 21.3667 794.696 20.8837C795.118 20.3945 795.329 19.6301 795.329 18.5906V10.4H798.163ZM809.362 20.0857C809.362 21.2964 808.925 22.2503 808.051 22.9474C807.182 23.6445 805.972 23.993 804.418 23.993C802.988 23.993 801.722 23.724 800.621 23.1859V20.5443C801.526 20.9479 802.29 21.2322 802.914 21.3973C803.544 21.5624 804.119 21.645 804.639 21.645C805.262 21.645 805.739 21.5257 806.069 21.2872C806.406 21.0488 806.574 20.6941 806.574 20.2233C806.574 19.9603 806.5 19.728 806.354 19.5262C806.207 19.3183 805.99 19.1196 805.703 18.93C805.421 18.7405 804.843 18.4378 803.969 18.022C803.15 17.6367 802.535 17.2668 802.125 16.9121C801.716 16.5575 801.389 16.1447 801.144 15.6739C800.899 15.2031 800.777 14.6528 800.777 14.0229C800.777 12.8367 801.178 11.9042 801.979 11.2254C802.786 10.5467 803.899 10.2073 805.317 10.2073C806.014 10.2073 806.678 10.2899 807.308 10.455C807.944 10.6201 808.607 10.8524 809.298 11.1521L808.381 13.3625C807.665 13.069 807.072 12.8642 806.601 12.748C806.137 12.6318 805.678 12.5737 805.226 12.5737C804.687 12.5737 804.275 12.6991 803.987 12.9498C803.7 13.2005 803.556 13.5276 803.556 13.9312C803.556 14.1819 803.614 14.402 803.731 14.5916C803.847 14.775 804.03 14.9554 804.281 15.1328C804.538 15.304 805.14 15.6158 806.088 16.0683C807.341 16.6676 808.2 17.2699 808.665 17.8752C809.13 18.4745 809.362 19.2113 809.362 20.0857Z" fill="#DD0524"/>
<path d="M709.445 34.1546H713.352V39.7444C712.745 39.9383 712.126 40.085 711.497 40.1846C710.868 40.2842 710.14 40.334 709.312 40.334C707.571 40.334 706.217 39.8177 705.247 38.7852C704.277 37.7475 703.793 36.2956 703.793 34.4298C703.793 33.2348 704.031 32.1892 704.508 31.2929C704.99 30.3914 705.682 29.7048 706.583 29.2331C707.485 28.7562 708.541 28.5177 709.752 28.5177C710.978 28.5177 712.121 28.7431 713.18 29.1938L712.661 30.3731C711.623 29.9328 710.624 29.7127 709.665 29.7127C708.266 29.7127 707.173 30.1294 706.387 30.9627C705.601 31.7961 705.208 32.9518 705.208 34.4298C705.208 35.9812 705.585 37.1578 706.34 37.9597C707.1 38.7616 708.213 39.1626 709.681 39.1626C710.478 39.1626 711.256 39.0709 712.016 38.8874V35.3496H709.445V34.1546ZM719.563 40.334C718.29 40.334 717.283 39.9461 716.544 39.1704C715.811 38.3947 715.444 37.3177 715.444 35.9392C715.444 34.5503 715.784 33.4471 716.466 32.6294C717.152 31.8118 718.072 31.403 719.225 31.403C720.305 31.403 721.159 31.7594 721.788 32.4722C722.417 33.1798 722.732 34.1153 722.732 35.2789V36.1043H716.796C716.822 37.1159 717.076 37.8837 717.559 38.4079C718.046 38.932 718.73 39.194 719.61 39.194C720.538 39.194 721.455 39.0001 722.362 38.6123V39.7758C721.901 39.975 721.463 40.1165 721.049 40.2003C720.64 40.2894 720.145 40.334 719.563 40.334ZM719.21 32.4958C718.518 32.4958 717.965 32.7211 717.551 33.1719C717.142 33.6226 716.901 34.2463 716.827 35.043H721.332C721.332 34.2201 721.149 33.5912 720.782 33.1562C720.415 32.7159 719.891 32.4958 719.21 32.4958ZM727.747 39.2569C727.978 39.2569 728.201 39.2412 728.416 39.2098C728.631 39.1731 728.801 39.1364 728.927 39.0997V40.0981C728.785 40.1663 728.576 40.2213 728.298 40.2632C728.025 40.3104 727.779 40.334 727.559 40.334C725.892 40.334 725.059 39.4561 725.059 37.7003V32.5744H723.824V31.9454L725.059 31.403L725.609 29.5633H726.364V31.5602H728.864V32.5744H726.364V37.6453C726.364 38.1641 726.487 38.5625 726.733 38.8403C726.98 39.118 727.318 39.2569 727.747 39.2569ZM733.471 31.5602H734.87L736.757 36.4738C737.171 37.5955 737.428 38.4052 737.528 38.9031H737.59C737.659 38.6358 737.8 38.1799 738.015 37.5352C738.235 36.8853 738.948 34.8936 740.153 31.5602H741.553L737.85 41.3718C737.483 42.3414 737.053 43.028 736.561 43.4315C736.073 43.8404 735.473 44.0448 734.76 44.0448C734.362 44.0448 733.969 44.0002 733.581 43.9111V42.8655C733.869 42.9284 734.192 42.9598 734.548 42.9598C735.444 42.9598 736.084 42.4567 736.466 41.4504L736.946 40.2239L733.471 31.5602ZM750.389 35.8606C750.389 37.2653 750.036 38.3633 749.328 39.1547C748.621 39.9409 747.643 40.334 746.396 40.334C745.625 40.334 744.941 40.1532 744.344 39.7915C743.746 39.4299 743.285 38.911 742.96 38.2349C742.635 37.5588 742.473 36.7674 742.473 35.8606C742.473 34.456 742.824 33.3632 743.526 32.5823C744.228 31.7961 745.203 31.403 746.451 31.403C747.656 31.403 748.613 31.8039 749.32 32.6058C750.033 33.4077 750.389 34.4927 750.389 35.8606ZM743.825 35.8606C743.825 36.9613 744.045 37.7999 744.485 38.3764C744.926 38.9529 745.573 39.2412 746.427 39.2412C747.281 39.2412 747.929 38.9556 748.369 38.3843C748.814 37.8077 749.037 36.9665 749.037 35.8606C749.037 34.7652 748.814 33.9345 748.369 33.3684C747.929 32.7971 747.276 32.5115 746.411 32.5115C745.557 32.5115 744.912 32.7919 744.477 33.3527C744.042 33.9135 743.825 34.7495 743.825 35.8606ZM753.912 31.5602V37.15C753.912 37.8523 754.071 38.3764 754.391 38.7223C754.711 39.0682 755.211 39.2412 755.893 39.2412C756.794 39.2412 757.452 38.9949 757.866 38.5022C758.285 38.0095 758.495 37.205 758.495 36.0886V31.5602H759.8V40.1768H758.723L758.534 39.0211H758.464C758.196 39.4456 757.824 39.7706 757.347 39.9959C756.875 40.2213 756.336 40.334 755.728 40.334C754.679 40.334 753.893 40.085 753.369 39.5871C752.85 39.0892 752.591 38.2925 752.591 37.1971V31.5602H753.912ZM766.506 31.403C766.889 31.403 767.232 31.4344 767.536 31.4973L767.355 32.708C766.999 32.6294 766.684 32.5901 766.412 32.5901C765.715 32.5901 765.117 32.8731 764.619 33.4392C764.127 34.0052 763.88 34.7102 763.88 35.554V40.1768H762.575V31.5602H763.652L763.802 33.1562H763.865C764.184 32.5954 764.57 32.163 765.02 31.859C765.471 31.555 765.966 31.403 766.506 31.403ZM783.558 40.1768H782.238L779.918 32.4801C779.808 32.1394 779.685 31.7096 779.549 31.1907C779.413 30.6718 779.342 30.36 779.337 30.2552C779.221 30.947 779.038 31.7044 778.786 32.5272L776.538 40.1768H775.217L772.159 28.6828H773.574L775.39 35.782C775.642 36.7778 775.825 37.6793 775.94 38.4865C776.082 37.5273 776.291 36.5892 776.569 35.6719L778.629 28.6828H780.044L782.206 35.7348C782.458 36.5472 782.67 37.4644 782.843 38.4865C782.943 37.7422 783.131 36.8355 783.409 35.7663L785.217 28.6828H786.632L783.558 40.1768ZM791.876 40.334C790.603 40.334 789.596 39.9461 788.857 39.1704C788.124 38.3947 787.757 37.3177 787.757 35.9392C787.757 34.5503 788.097 33.4471 788.779 32.6294C789.465 31.8118 790.385 31.403 791.538 31.403C792.618 31.403 793.472 31.7594 794.101 32.4722C794.73 33.1798 795.045 34.1153 795.045 35.2789V36.1043H789.109C789.135 37.1159 789.389 37.8837 789.871 38.4079C790.359 38.932 791.043 39.194 791.923 39.194C792.851 39.194 793.768 39.0001 794.675 38.6123V39.7758C794.214 39.975 793.776 40.1165 793.362 40.2003C792.953 40.2894 792.458 40.334 791.876 40.334ZM791.522 32.4958C790.831 32.4958 790.278 32.7211 789.864 33.1719C789.455 33.6226 789.214 34.2463 789.14 35.043H793.645C793.645 34.2201 793.462 33.5912 793.095 33.1562C792.728 32.7159 792.204 32.4958 791.522 32.4958ZM798.582 40.1768H797.277V27.9438H798.582V40.1768ZM804.793 40.334C803.546 40.334 802.579 39.9514 801.892 39.1862C801.211 38.4157 800.87 37.3282 800.87 35.9235C800.87 34.4822 801.216 33.3684 801.908 32.5823C802.605 31.7961 803.596 31.403 804.88 31.403C805.294 31.403 805.708 31.4475 806.122 31.5366C806.536 31.6257 806.861 31.7306 807.097 31.8511L806.696 32.9596C806.407 32.8443 806.093 32.75 805.752 32.6766C805.412 32.598 805.11 32.5587 804.848 32.5587C803.098 32.5587 802.222 33.675 802.222 35.9078C802.222 36.9665 802.435 37.7789 802.859 38.345C803.289 38.911 803.923 39.194 804.762 39.194C805.48 39.194 806.216 39.0394 806.971 38.7302V39.8859C806.394 40.1846 805.668 40.334 804.793 40.334ZM816.46 35.8606C816.46 37.2653 816.106 38.3633 815.399 39.1547C814.691 39.9409 813.714 40.334 812.466 40.334C811.696 40.334 811.012 40.1532 810.414 39.7915C809.817 39.4299 809.356 38.911 809.031 38.2349C808.706 37.5588 808.543 36.7674 808.543 35.8606C808.543 34.456 808.894 33.3632 809.597 32.5823C810.299 31.7961 811.274 31.403 812.521 31.403C813.727 31.403 814.683 31.8039 815.391 32.6058C816.104 33.4077 816.46 34.4927 816.46 35.8606ZM809.895 35.8606C809.895 36.9613 810.116 37.7999 810.556 38.3764C810.996 38.9529 811.643 39.2412 812.498 39.2412C813.352 39.2412 813.999 38.9556 814.44 38.3843C814.885 37.8077 815.108 36.9665 815.108 35.8606C815.108 34.7652 814.885 33.9345 814.44 33.3684C813.999 32.7971 813.347 32.5115 812.482 32.5115C811.628 32.5115 810.983 32.7919 810.548 33.3527C810.113 33.9135 809.895 34.7495 809.895 35.8606ZM829.739 40.1768V34.5713C829.739 33.8847 829.592 33.3711 829.298 33.0304C829.005 32.6845 828.549 32.5115 827.93 32.5115C827.118 32.5115 826.518 32.7447 826.13 33.2112C825.742 33.6777 825.548 34.3957 825.548 35.3653V40.1768H824.243V34.5713C824.243 33.8847 824.097 33.3711 823.803 33.0304C823.509 32.6845 823.051 32.5115 822.427 32.5115C821.61 32.5115 821.009 32.7578 820.627 33.2505C820.249 33.7379 820.061 34.5398 820.061 35.6562V40.1768H818.756V31.5602H819.817L820.029 32.7395H820.092C820.339 32.3202 820.684 31.9926 821.13 31.7568C821.581 31.5209 822.084 31.403 822.639 31.403C823.986 31.403 824.867 31.8904 825.281 32.8653H825.344C825.601 32.4145 825.973 32.0581 826.46 31.7961C826.948 31.534 827.503 31.403 828.127 31.403C829.102 31.403 829.83 31.6546 830.313 32.1577C830.8 32.6556 831.044 33.4549 831.044 34.5556V40.1768H829.739ZM837.38 40.334C836.107 40.334 835.1 39.9461 834.361 39.1704C833.628 38.3947 833.261 37.3177 833.261 35.9392C833.261 34.5503 833.601 33.4471 834.283 32.6294C834.969 31.8118 835.889 31.403 837.042 31.403C838.122 31.403 838.976 31.7594 839.605 32.4722C840.234 33.1798 840.549 34.1153 840.549 35.2789V36.1043H834.613C834.639 37.1159 834.893 37.8837 835.376 38.4079C835.863 38.932 836.547 39.194 837.428 39.194C838.355 39.194 839.272 39.0001 840.179 38.6123V39.7758C839.718 39.975 839.28 40.1165 838.866 40.2003C838.457 40.2894 837.962 40.334 837.38 40.334ZM837.027 32.4958C836.335 32.4958 835.782 32.7211 835.368 33.1719C834.959 33.6226 834.718 34.2463 834.644 35.043H839.149C839.149 34.2201 838.966 33.5912 838.599 33.1562C838.232 32.7159 837.708 32.4958 837.027 32.4958ZM847.16 28.6828H850.407C851.933 28.6828 853.036 28.9108 853.717 29.3668C854.399 29.8228 854.739 30.5434 854.739 31.5288C854.739 32.2101 854.548 32.7736 854.165 33.2191C853.788 33.6593 853.235 33.945 852.506 34.076V34.1546C854.252 34.4534 855.124 35.3706 855.124 36.9062C855.124 37.9335 854.776 38.7354 854.079 39.312C853.387 39.8885 852.417 40.1768 851.17 40.1768H847.16V28.6828ZM848.497 33.6043H850.698C851.642 33.6043 852.32 33.4575 852.734 33.164C853.148 32.8653 853.356 32.3647 853.356 31.6624C853.356 31.0178 853.125 30.5539 852.664 30.2709C852.202 29.9826 851.469 29.8385 850.462 29.8385H848.497V33.6043ZM848.497 34.7364V39.0368H850.895C851.822 39.0368 852.52 38.8586 852.986 38.5022C853.458 38.1406 853.694 37.5771 853.694 36.8119C853.694 36.0991 853.452 35.575 852.97 35.2395C852.493 34.9041 851.765 34.7364 850.785 34.7364H848.497ZM864.842 35.8606C864.842 37.2653 864.488 38.3633 863.78 39.1547C863.073 39.9409 862.095 40.334 860.848 40.334C860.077 40.334 859.393 40.1532 858.796 39.7915C858.198 39.4299 857.737 38.911 857.412 38.2349C857.087 37.5588 856.925 36.7674 856.925 35.8606C856.925 34.456 857.276 33.3632 857.978 32.5823C858.681 31.7961 859.655 31.403 860.903 31.403C862.108 31.403 863.065 31.8039 863.772 32.6058C864.485 33.4077 864.842 34.4927 864.842 35.8606ZM858.277 35.8606C858.277 36.9613 858.497 37.7999 858.937 38.3764C859.378 38.9529 860.025 39.2412 860.879 39.2412C861.734 39.2412 862.381 38.9556 862.821 38.3843C863.267 37.8077 863.489 36.9665 863.489 35.8606C863.489 34.7652 863.267 33.9345 862.821 33.3684C862.381 32.7971 861.728 32.5115 860.864 32.5115C860.009 32.5115 859.365 32.7919 858.93 33.3527C858.495 33.9135 858.277 34.7495 858.277 35.8606ZM873.034 40.1768V34.6027C873.034 33.9004 872.874 33.3763 872.554 33.0304C872.234 32.6845 871.734 32.5115 871.052 32.5115C870.151 32.5115 869.491 32.7552 869.071 33.2426C868.652 33.7301 868.442 34.5346 868.442 35.6562V40.1768H867.137V31.5602H868.199L868.411 32.7395H868.474C868.741 32.315 869.116 31.9874 869.598 31.7568C870.08 31.5209 870.617 31.403 871.21 31.403C872.247 31.403 873.028 31.6546 873.552 32.1577C874.077 32.6556 874.339 33.4549 874.339 34.5556V40.1768H873.034ZM878.254 31.5602V37.15C878.254 37.8523 878.414 38.3764 878.733 38.7223C879.053 39.0682 879.554 39.2412 880.235 39.2412C881.137 39.2412 881.794 38.9949 882.208 38.5022C882.628 38.0095 882.837 37.205 882.837 36.0886V31.5602H884.142V40.1768H883.065L882.877 39.0211H882.806C882.539 39.4456 882.166 39.7706 881.689 39.9959C881.218 40.2213 880.678 40.334 880.07 40.334C879.022 40.334 878.236 40.085 877.711 39.5871C877.193 39.0892 876.933 38.2925 876.933 37.1971V31.5602H878.254ZM892.476 37.8261C892.476 38.628 892.177 39.2464 891.58 39.6815C890.982 40.1165 890.144 40.334 889.064 40.334C887.921 40.334 887.03 40.1532 886.391 39.7915V38.5808C886.805 38.7905 887.248 38.9556 887.719 39.0761C888.196 39.1967 888.655 39.2569 889.095 39.2569C889.777 39.2569 890.301 39.1495 890.668 38.9346C891.035 38.7145 891.218 38.3816 891.218 37.9361C891.218 37.6007 891.071 37.3151 890.778 37.0792C890.489 36.8381 889.923 36.5551 889.08 36.2301C888.278 35.9314 887.706 35.6719 887.366 35.4518C887.03 35.2264 886.779 34.9722 886.611 34.6892C886.448 34.4062 886.367 34.0681 886.367 33.675C886.367 32.9727 886.653 32.4198 887.224 32.0162C887.795 31.6074 888.579 31.403 889.575 31.403C890.503 31.403 891.409 31.5917 892.295 31.969L891.831 33.0304C890.966 32.674 890.183 32.4958 889.481 32.4958C888.862 32.4958 888.396 32.5927 888.081 32.7867C887.767 32.9806 887.609 33.2479 887.609 33.5886C887.609 33.8192 887.667 34.0157 887.782 34.1782C887.903 34.3407 888.094 34.4953 888.356 34.642C888.618 34.7888 889.121 35.0011 889.866 35.2789C890.888 35.651 891.577 36.0257 891.933 36.4031C892.295 36.7805 892.476 37.2548 892.476 37.8261Z" fill="#5E5E5E"/>
</svg>
