<svg width="288" height="109" viewBox="0 0 288 109" fill="none" xmlns="http://www.w3.org/2000/svg">
<path d="M210.837 40.454C212.714 39.102 214.673 37.8091 216.498 36.3396C217.652 35.4286 218.643 35.3404 219.959 35.8988C226.934 38.7787 230.046 48.0359 226.317 55.1182C223.716 60.0554 219.824 62.6708 214.566 62.6414C206.303 62.6121 198.039 62.6708 189.748 62.6414C183.175 62.6121 178.157 58.5859 176.681 52.0914C175.528 47.0367 176.923 42.7167 180.169 39.0727C184.167 34.5765 188.191 30.1388 192.189 25.672C192.324 25.5251 192.484 25.4076 192.565 25.2605C192.806 24.761 193.021 24.232 193.262 23.7325C192.752 23.9088 192.189 23.9676 191.761 24.2614C190.204 25.4076 188.728 26.6712 187.119 27.7586C186.609 28.1112 185.751 28.2876 185.187 28.1112C179.499 26.201 175.85 20.0003 176.467 13.4763C177.111 6.98167 181.913 1.69193 187.896 1.3099C192.671 1.01602 197.449 1.13357 202.224 1.13357C206.918 1.13357 211.614 1.01602 216.284 1.3099C226.21 1.92703 230.127 13.9465 225.969 21.8222C225.271 23.1742 224.331 24.4084 223.339 25.4958C219.342 29.9626 215.263 34.3708 211.238 38.8083C210.916 39.1609 210.675 39.631 210.407 40.0718C210.569 40.16 210.702 40.3069 210.837 40.454Z" fill="white"/>
<path d="M152.937 40.3952C153.285 40.1894 153.661 40.0132 154.01 39.7781C155.807 38.485 157.551 37.1333 159.403 35.9577C159.939 35.6051 160.771 35.4875 161.361 35.6933C166.244 37.3977 169.142 41.0711 169.947 46.6253C170.752 52.1501 168.632 56.4701 164.796 59.8497C162.81 61.613 160.449 62.6121 157.847 62.6121C148.671 62.6121 139.521 62.7883 130.345 62.4946C125.06 62.3182 121.25 59.0856 119.345 53.649C117.413 48.2123 118.647 43.334 122.296 39.1903C126.375 34.5177 130.56 29.9627 134.692 25.3195C135.068 24.8786 135.255 24.2616 135.524 23.7033C134.987 23.8795 134.37 23.9677 133.914 24.2909C132.358 25.437 130.882 26.7008 129.272 27.7879C128.789 28.1112 127.984 28.2583 127.448 28.0819C121.652 26.1424 118.084 20.0003 118.755 13.1825C119.372 6.92297 124.255 1.63325 130.104 1.2806C134.96 0.986725 139.843 1.10427 144.727 1.10427C149.234 1.10427 153.768 1.07489 158.276 1.22182C166.03 1.48631 171.02 9.24459 169.625 17.6788C169.115 20.7644 167.666 23.2036 165.708 25.3783C161.63 29.8451 157.551 34.312 153.473 38.779C153.151 39.1316 152.91 39.6017 152.615 40.0132C152.722 40.1601 152.829 40.2776 152.937 40.3952Z" fill="white"/>
<path d="M112.315 31.8432C112.315 37.5736 112.342 43.3042 112.315 49.0348C112.261 54.5302 108.961 59.5262 104.051 61.642C99.4633 63.6109 93.9095 62.2884 90.5826 58.4093C90.1533 57.9098 89.7776 57.3808 89.402 56.8224C87.8459 54.4126 87.0946 52.0617 89.3215 49.505C90.3946 48.2414 91.1459 46.5957 91.9777 45.0968C92.1923 44.6855 92.6795 43.9067 92.2996 43.6864C91.9196 43.4659 91.4141 43.9801 91.0923 44.3034C86.7457 48.8878 82.4261 53.5016 78.1332 58.1449C73.2768 63.4053 65.2279 63.6109 60.5325 58.5857C55.3811 53.0608 55.247 44.6855 60.3447 39.0136C69.0109 29.3159 77.7307 19.7062 86.4237 10.0377C87.9263 8.36262 89.3751 6.62877 90.9044 4.98307C94.3924 1.16271 99.8389 0.0459869 104.481 2.13249C109.31 4.27776 112.261 8.92099 112.315 14.534C112.342 20.2938 112.315 26.0538 112.315 31.8432Z" fill="white"/>
<path d="M25.0631 33.6659C25.0901 33.1662 25.1438 32.6667 25.1438 32.1964C25.1438 26.4071 25.117 20.6472 25.1706 14.8579C25.2242 8.33388 29.3561 2.77965 35.0708 1.39845C42.315 -0.335409 49.9349 5.54206 50.2569 13.653C50.5789 22.146 50.6594 30.6977 50.1496 39.1906C49.4519 50.828 42.8786 58.8802 32.5757 61.9659C24.5802 64.3463 17.041 63.0826 9.95775 58.6158C1.21107 53.0909 -1.15 42.4527 0.486653 33.901C2.20379 24.8789 11.5139 20.1477 18.8654 24.2912C21.8435 25.9663 23.5339 28.7581 24.3388 32.2259C24.4461 32.7254 24.5802 33.1956 24.6877 33.6952C24.8218 33.6952 24.9559 33.6659 25.0631 33.6659Z" fill="white"/>
<path d="M260.739 11.2721C262.698 9.36195 264.818 7.48116 266.722 5.36526C271.446 0.104919 278.206 -0.541602 283.331 3.89589C288.241 8.15707 289.501 16.3561 286.042 22.2043C285.397 23.2917 284.593 24.3202 283.761 25.2605C280.649 28.787 277.483 32.2547 274.423 35.8107C273.994 36.3102 273.672 37.1625 273.672 37.8384C273.591 41.4529 273.645 45.097 273.645 48.7117C273.591 56.3524 268.117 62.3768 261.088 62.465C254.22 62.5532 248.532 56.4699 248.426 48.8292C248.372 45.1558 248.451 41.4824 248.372 37.809C248.345 37.1036 248.049 36.2808 247.619 35.7812C244.374 32.0491 241.046 28.4344 237.8 24.7316C231.682 17.708 233.266 6.71708 241.02 2.30897C245.42 -0.188954 251.054 0.898379 254.623 4.86568C256.714 7.1285 258.916 9.36195 260.739 11.2721Z" fill="white"/>
<path d="M166.835 90.6477C166.835 92.8813 166.835 95.1147 166.835 97.3481C166.835 99.993 166.861 102.638 166.808 105.283C166.781 107.457 166.083 108.251 164.098 108.486C163.615 108.545 163.105 108.545 162.622 108.515C160.449 108.339 159.751 107.604 159.698 105.224C159.617 102.05 159.671 98.8763 159.671 95.673C159.671 90.5301 159.671 85.3874 159.671 80.2447C159.671 79.4806 159.671 78.6577 159.912 77.9231C160.1 77.3352 160.529 76.6593 161.012 76.3949C162.998 75.3075 165.869 76.1303 167.21 78.1286C170.564 83.0658 173.918 88.0323 177.298 92.9693C177.593 93.3808 177.889 93.7922 178.506 94.1449C178.506 93.704 178.506 93.2339 178.506 92.7931C178.506 88.5318 178.479 84.2707 178.506 80.0094C178.506 78.6577 178.345 77.0708 179.767 76.4243C181.377 75.6895 183.148 75.6308 184.676 76.6593C185.187 77.0119 185.508 78.0406 185.562 78.8047C185.697 80.3034 185.643 81.8316 185.643 83.3597C185.643 90.4126 185.643 97.4656 185.643 104.489C185.643 106.017 185.724 107.604 183.979 108.221C181.832 108.986 179.552 108.456 178.479 106.899C174.857 101.668 171.262 96.4371 167.666 91.2062C167.505 90.971 167.318 90.7654 167.156 90.5301C167.049 90.589 166.942 90.6183 166.835 90.6477Z" fill="white"/>
<path d="M88.3294 99.4932C88.3294 101.403 88.3562 103.108 88.3294 104.812C88.3026 106.164 88.3026 107.604 86.8538 108.104C85.1634 108.662 83.3122 108.927 81.8902 107.545C81.3266 106.987 81.1657 105.694 81.1657 104.724C81.1121 98.6998 81.1389 92.6753 81.1389 86.6509C81.1389 84.2118 81.1121 81.7431 81.1389 79.304C81.1657 76.953 81.917 76.0127 84.0097 75.9832C87.4172 75.8952 90.7977 75.807 94.2053 76.0127C99.9468 76.3653 104.24 81.6844 104.133 88.0321C104.025 94.1741 99.625 99.1993 93.9369 99.4932C92.1661 99.5813 90.3416 99.4932 88.3294 99.4932ZM88.4099 91.5586C90.3416 91.5586 92.1661 91.6761 93.9905 91.5292C95.7882 91.3822 96.9151 89.8542 96.9956 87.8558C97.0761 86.0926 95.9223 84.2411 94.2857 84.0354C92.3808 83.8003 90.4221 83.9767 88.4099 83.9767C88.4099 86.5334 88.4099 88.943 88.4099 91.5586Z" fill="white"/>
<path d="M218.993 108.927C216.176 108.868 212.85 107.31 210.434 103.725C209.147 101.815 209.307 100.463 211.052 98.5824C212.555 96.9662 213.761 96.878 215.425 98.318C215.989 98.8175 216.471 99.3758 217.008 99.9048C218.296 101.227 219.771 101.844 221.542 101.462C222.883 101.169 223.876 100.052 223.957 98.6999C224.064 97.1719 223.099 96.4959 222.024 96.0846C219.987 95.3498 217.92 94.7621 215.881 94.0567C209.174 91.7058 208.422 82.8601 212.796 78.2169C214.486 76.4243 216.525 75.5722 218.833 75.4251C222.213 75.19 225.433 75.6897 228.142 78.1876C229.778 79.6864 229.859 80.8031 228.573 82.8896C227.176 85.0937 225.808 85.6225 224.091 84.5647C223.662 84.3001 223.286 83.9475 222.91 83.6242C221.731 82.5664 220.334 82.3313 219.02 82.9777C218.322 83.3304 217.49 84.2414 217.438 85.0055C217.357 85.7401 218.001 86.7981 218.617 87.3271C219.234 87.856 220.174 88.003 220.978 88.2381C222.481 88.6789 224.037 88.9728 225.513 89.5017C229.94 91.0887 231.926 94.7915 231.148 99.8462C230.209 105.459 225.97 108.986 218.993 108.927Z" fill="white"/>
<path d="M45.1322 108.926C42.2615 108.868 38.9077 107.251 36.4661 103.637C35.232 101.815 35.4466 100.433 37.1369 98.6114C38.6662 96.995 39.8468 96.907 41.5103 98.347C42.0737 98.8465 42.5835 99.4049 43.0932 99.9339C44.3811 101.256 45.8567 101.873 47.6276 101.491C48.9691 101.197 49.9618 100.11 50.069 98.7583C50.1765 97.2301 49.2373 96.5542 48.1373 96.1429C46.3933 95.5257 44.5957 95.0849 42.8787 94.4679C37.4858 92.5576 35.7149 89.0017 36.3051 83.6532C36.8417 78.7161 40.8127 75.4542 45.9908 75.4248C48.9959 75.3953 51.8667 76.0125 54.2547 78.2459C55.8912 79.7741 55.9985 80.8615 54.6838 82.948C53.2887 85.1814 51.9203 85.7103 50.2033 84.6524C49.7472 84.3585 49.3447 83.9765 48.9154 83.6239C47.6007 82.5659 46.1787 82.4483 44.7299 83.1536C43.0932 83.9472 42.8787 86.0631 44.3543 87.1502C45.1322 87.7381 46.1251 88.0025 47.0642 88.2965C48.6202 88.7666 50.2033 89.0606 51.7326 89.6189C55.9449 91.1471 57.8768 94.6147 57.3132 99.4637C56.5621 105.253 52.2423 108.985 45.1322 108.926Z" fill="white"/>
<path d="M135.201 92.2934C135.201 96.4958 135.201 100.698 135.201 104.9C135.201 106.252 135.148 107.692 133.726 108.163C132.035 108.721 130.291 108.868 128.735 107.575C128.44 107.34 128.279 106.84 128.199 106.429C128.064 105.723 128.011 104.989 128.011 104.254C128.011 96.2312 128.011 88.2085 128.011 80.1857C128.011 76.3947 130.774 74.6315 133.94 76.3654C135.04 76.9531 135.201 78.0405 135.201 79.216C135.201 83.5653 135.201 87.9146 135.201 92.2934Z" fill="white"/>
</svg>
