<svg width="444" height="88" viewBox="0 0 444 88" fill="none" xmlns="http://www.w3.org/2000/svg">
<g clip-path="url(#clip0_219_14)">
<g clip-path="url(#clip1_219_14)">
<mask id="mask0_219_14" style="mask-type:luminance" maskUnits="userSpaceOnUse" x="25" y="5" width="53" height="45">
<path d="M77.7657 5.96289H25.4473V49.5616H77.7657V5.96289Z" fill="white"/>
</mask>
<g mask="url(#mask0_219_14)">
<path d="M63.7172 23.977C63.7172 28.8577 63.7172 33.7372 63.7172 38.6179C63.7172 40.6555 62.6868 41.7625 60.7816 41.7638C54.7512 41.7677 48.722 41.7664 42.6915 41.7638C40.7778 41.7638 39.7412 40.6607 39.7412 38.6349C39.7401 28.8747 39.7412 19.1133 39.7412 9.35321C39.7412 7.30381 40.7484 6.2269 42.6756 6.22559C48.7061 6.22298 54.7353 6.22298 60.7657 6.22559C62.7272 6.22559 63.7159 7.29468 63.7172 9.40151C63.7172 14.26 63.7172 19.1185 63.7172 23.977ZM48.4745 30.7271C48.6178 30.6578 48.9486 30.5469 49.2305 30.3537C49.7266 30.0156 50.1898 29.624 50.6725 29.2624C51.4407 28.6881 52.03 28.6894 52.7994 29.2676C53.2809 29.6305 53.749 30.013 54.2354 30.3681C54.886 30.8432 55.5279 30.8445 56.1063 30.3994C56.6699 29.966 56.8732 29.2807 56.6527 28.4922C56.4726 27.85 56.2631 27.217 56.0817 26.5747C55.8526 25.7575 56.0352 25.1441 56.6711 24.622C57.1538 24.2251 57.661 23.8609 58.1462 23.468C58.8164 22.925 59.0296 22.2918 58.8115 21.5439C58.6008 20.8181 58.0531 20.4095 57.2237 20.3847C56.6343 20.3678 56.0425 20.3926 55.4532 20.3743C54.5355 20.3469 54.0847 19.984 53.7882 19.0572C53.5909 18.4436 53.4157 17.821 53.2074 17.2115C52.9539 16.4687 52.4196 16.0562 51.747 16.0458C51.0572 16.034 50.5009 16.4596 50.2388 17.231C50.0317 17.8406 49.8565 18.4632 49.6592 19.0768C49.3689 19.9736 48.9205 20.3417 48.042 20.373C47.4123 20.3952 46.78 20.3639 46.149 20.3887C45.3686 20.42 44.8356 20.8507 44.6359 21.5622C44.4301 22.297 44.6359 22.9237 45.2718 23.438C45.7741 23.8439 46.2948 24.2238 46.7959 24.6311C47.4184 25.1362 47.5997 25.8006 47.3656 26.5917C47.1708 27.2522 46.9503 27.9048 46.7764 28.5719C46.4848 29.684 47.2248 30.7336 48.4732 30.7271H48.4745Z" fill="#FEB708"/>
<path d="M37.6559 12.0576C37.6559 12.4218 37.6559 12.6803 37.6559 12.9374C37.6559 21.5475 37.6535 30.1563 37.6583 38.7664C37.6596 41.2726 38.9767 43.1798 41.1429 43.7868C41.6476 43.9277 42.188 43.9748 42.7123 43.9774C45.6246 43.9957 48.5382 43.9852 51.4505 43.9852C51.6623 43.9852 51.8755 43.9852 52.0875 43.9852L52.1108 44.1197C50.844 44.6757 49.5771 45.2357 48.309 45.7879C45.6356 46.9496 42.9623 48.1101 40.2876 49.268C38.5515 50.0198 37.194 49.4194 36.487 47.5788C33.0075 38.5223 29.5316 29.4644 26.0582 20.4041C25.3524 18.5634 25.9332 17.1341 27.673 16.377C30.7777 15.026 33.8822 13.6723 36.9881 12.3213C37.1719 12.2417 37.3607 12.1738 37.6559 12.0576Z" fill="#FEB708"/>
<path d="M54.5293 45.4437C56.2226 44.8811 57.6058 43.748 59.386 43.9765C59.8676 44.0378 60.3625 43.9882 60.8514 43.9856C63.8114 43.9674 65.7951 41.8657 65.7975 38.7172C65.8036 31.3015 65.8 23.8858 65.8 16.4701C65.8 15.0185 65.8 13.567 65.8 12.0254C66.0389 12.1142 66.225 12.1742 66.4039 12.2512C69.565 13.6258 72.7284 14.9963 75.8858 16.3814C77.6268 17.1449 78.1757 18.5705 77.4614 20.4319C74.0027 29.4492 70.5415 38.4666 67.0778 47.4827C66.317 49.4628 65.0231 50.0386 63.1646 49.2331C60.4531 48.057 57.7442 46.8769 55.0353 45.697C54.9115 45.6434 54.7928 45.5768 54.5293 45.4437Z" fill="#FEB708"/>
</g>
<path d="M23.7921 68.0995H22.4076V64.2762H18.5033V68.0995H17.113V59.6304H18.5033V63.0944H22.4076V59.6304H23.7921V68.0995ZM31.3543 61.6868V68.0995H30.2827L30.0974 67.2364H30.0221C29.8869 67.4564 29.715 67.6399 29.5065 67.7866C29.2979 67.9296 29.0662 68.0358 28.8114 68.1053C28.5564 68.1786 28.2881 68.2154 28.0062 68.2154C27.5235 68.2154 27.1103 68.1342 26.7666 67.972C26.4267 67.806 26.166 67.5511 25.9845 67.2073C25.803 66.8636 25.7122 66.4196 25.7122 65.875V61.6868H27.0793V65.6202C27.0793 66.1184 27.1798 66.491 27.3805 66.7381C27.5853 66.9853 27.9019 67.1088 28.3305 67.1088C28.7438 67.1088 29.072 67.0239 29.3153 66.854C29.5587 66.6841 29.7304 66.4331 29.8309 66.1009C29.9352 65.7689 29.9873 65.3615 29.9873 64.8787V61.6868H31.3543ZM35.0065 70.9495C34.1377 70.9495 33.4715 70.7931 33.0081 70.4802C32.5446 70.1675 32.3129 69.7292 32.3129 69.1653C32.3129 68.7714 32.4365 68.4373 32.6837 68.1632C32.9308 67.8928 33.2842 67.7056 33.7438 67.6013C33.57 67.5241 33.4193 67.4044 33.2919 67.2421C33.1683 67.0761 33.1066 66.8926 33.1066 66.6918C33.1066 66.4524 33.1741 66.2477 33.3093 66.0778C33.4445 65.9079 33.6472 65.7437 33.9176 65.5854C33.5816 65.4425 33.3112 65.2108 33.1066 64.8902C32.9057 64.5659 32.8054 64.1854 32.8054 63.7491C32.8054 63.2857 32.9038 62.8918 33.1008 62.5673C33.2977 62.2391 33.5854 61.9901 33.9639 61.8201C34.3423 61.6463 34.8 61.5594 35.3367 61.5594C35.4526 61.5594 35.5781 61.5671 35.7133 61.5825C35.8523 61.5942 35.9797 61.6096 36.0956 61.6289C36.2153 61.6444 36.3061 61.6618 36.3679 61.681H38.5865V62.4399L37.4974 62.6427C37.6017 62.7894 37.6848 62.9574 37.7466 63.1466C37.8084 63.332 37.8392 63.5347 37.8392 63.7549C37.8392 64.4191 37.6094 64.9424 37.1499 65.3247C36.6941 65.7031 36.0648 65.8924 35.2615 65.8924C35.0684 65.8846 34.881 65.8692 34.6995 65.8461C34.5605 65.931 34.4543 66.0257 34.381 66.1299C34.3075 66.2303 34.2709 66.3442 34.2709 66.4717C34.2709 66.5759 34.3075 66.6609 34.381 66.7266C34.4543 66.7884 34.5625 66.8347 34.7053 66.8656C34.8521 66.8965 35.0298 66.9119 35.2382 66.9119H36.3448C37.0476 66.9119 37.5844 67.0606 37.9551 67.358C38.3259 67.6554 38.5112 68.0917 38.5112 68.6671C38.5112 69.397 38.21 69.959 37.6075 70.3528C37.0051 70.7506 36.1381 70.9495 35.0065 70.9495ZM35.0587 69.9937C35.5338 69.9937 35.9334 69.9473 36.2578 69.8547C36.5821 69.762 36.8275 69.6288 36.9935 69.455C37.1596 69.285 37.2426 69.0824 37.2426 68.8467C37.2426 68.6382 37.1904 68.4779 37.0862 68.3659C36.982 68.2539 36.8255 68.1767 36.6169 68.1342C36.4085 68.0917 36.1497 68.0705 35.8407 68.0705H34.8327C34.5818 68.0705 34.3597 68.1091 34.1666 68.1863C33.9736 68.2674 33.8229 68.3834 33.7148 68.5339C33.6106 68.6846 33.5584 68.8661 33.5584 69.0784C33.5584 69.3719 33.6878 69.5978 33.9465 69.7562C34.2091 69.9145 34.5798 69.9937 35.0587 69.9937ZM35.3252 65.0003C35.723 65.0003 36.0184 64.8921 36.2114 64.676C36.4046 64.4558 36.5011 64.1469 36.5011 63.7491C36.5011 63.3165 36.4008 62.9922 36.1999 62.7759C36.003 62.5596 35.7095 62.4516 35.3194 62.4516C34.937 62.4516 34.6455 62.5615 34.4447 62.7817C34.2478 63.0018 34.1493 63.3282 34.1493 63.7607C34.1493 64.1507 34.2478 64.4558 34.4447 64.676C34.6455 64.8921 34.939 65.0003 35.3252 65.0003ZM42.1807 61.5652C42.7523 61.5652 43.2427 61.683 43.6521 61.9185C44.0614 62.1541 44.3762 62.4882 44.5964 62.9208C44.8164 63.3532 44.9265 63.8707 44.9265 64.4732V65.2031H40.6457C40.6611 65.8249 40.8272 66.3037 41.1438 66.6396C41.4644 66.9756 41.9123 67.1436 42.4877 67.1436C42.8971 67.1436 43.264 67.105 43.5884 67.0278C43.9167 66.9467 44.2546 66.8289 44.6022 66.6744V67.7808C44.2816 67.9315 43.9553 68.0416 43.6232 68.1111C43.291 68.1806 42.8932 68.2154 42.4298 68.2154C41.8004 68.2154 41.2462 68.0936 40.7673 67.8503C40.2924 67.6032 39.9196 67.2364 39.6494 66.7497C39.3829 66.2631 39.2496 65.6588 39.2496 64.9366C39.2496 64.2183 39.3713 63.6081 39.6146 63.1061C39.8578 62.604 40.1996 62.2218 40.6399 61.9591C41.0801 61.6966 41.5938 61.5652 42.1807 61.5652ZM42.1807 62.5905C41.7521 62.5905 41.4046 62.7295 41.138 63.0076C40.8755 63.2857 40.721 63.6931 40.6746 64.2299H43.5942C43.5903 63.9094 43.5362 63.6255 43.432 63.3783C43.3316 63.1312 43.1771 62.9381 42.9686 62.799C42.7639 62.66 42.5013 62.5905 42.1807 62.5905ZM52.8391 63.4999H56.002V67.7519C55.5579 67.8986 55.0983 68.0126 54.6234 68.0936C54.1483 68.1748 53.6153 68.2154 53.0245 68.2154C52.1633 68.2154 51.4335 68.0454 50.8348 67.7056C50.2401 67.3619 49.7882 66.8656 49.4793 66.2168C49.1704 65.5642 49.0159 64.7782 49.0159 63.8592C49.0159 62.9747 49.1878 62.2082 49.5315 61.5594C49.8752 60.9068 50.3752 60.4028 51.0318 60.0475C51.6883 59.6884 52.4839 59.5088 53.4184 59.5088C53.878 59.5088 54.322 59.5552 54.7508 59.6478C55.1833 59.7366 55.5791 59.8602 55.9383 60.0186L55.4517 61.1655C55.1659 61.0303 54.8453 60.9164 54.4901 60.8237C54.1348 60.7311 53.766 60.6847 53.3836 60.6847C52.7774 60.6847 52.2541 60.816 51.8138 61.0786C51.3775 61.3412 51.0415 61.712 50.8059 62.1908C50.5703 62.6658 50.4525 63.2278 50.4525 63.8765C50.4525 64.506 50.5471 65.0582 50.7364 65.5332C50.9256 66.0083 51.221 66.379 51.6227 66.6455C52.0282 66.9081 52.5514 67.0393 53.1925 67.0393C53.513 67.0393 53.7853 67.022 54.0093 66.9872C54.2333 66.9525 54.4398 66.9139 54.6291 66.8713V64.6875H52.8391V63.4999ZM60.274 61.5652C61.085 61.5652 61.697 61.7448 62.1104 62.104C62.5274 62.4631 62.7359 63.023 62.7359 63.7838V68.0995H61.7686L61.5078 67.19H61.4615C61.28 67.4217 61.0927 67.6128 60.8996 67.7635C60.7065 67.914 60.4826 68.0261 60.2276 68.0995C59.9767 68.1767 59.6697 68.2154 59.3066 68.2154C58.9243 68.2154 58.5825 68.1458 58.2813 68.0068C57.98 67.8638 57.7425 67.6476 57.5687 67.358C57.3949 67.0684 57.3081 66.7015 57.3081 66.2574C57.3081 65.597 57.5533 65.1007 58.0438 64.7686C58.5381 64.4365 59.2834 64.253 60.2798 64.2183L61.392 64.1777V63.8417C61.392 63.3977 61.2877 63.081 61.0792 62.8918C60.8745 62.7025 60.5848 62.6079 60.2103 62.6079C59.8897 62.6079 59.5789 62.6543 59.2777 62.747C58.9765 62.8396 58.683 62.9535 58.3972 63.0887L57.9569 62.1271C58.2696 61.961 58.625 61.8259 59.0227 61.7216C59.4244 61.6173 59.8414 61.5652 60.274 61.5652ZM61.3862 65.0351L60.5579 65.064C59.8781 65.0872 59.4012 65.2031 59.127 65.4116C58.8529 65.6202 58.7157 65.9059 58.7157 66.2689C58.7157 66.5857 58.8104 66.8174 58.9996 66.9641C59.1888 67.1069 59.4378 67.1784 59.7469 67.1784C60.218 67.1784 60.6081 67.0451 60.917 66.7787C61.2298 66.5084 61.3862 66.1125 61.3862 65.5911V65.0351ZM71.758 61.5652C72.4763 61.5652 73.0169 61.7505 73.3799 62.1213C73.7469 62.492 73.9303 63.0867 73.9303 63.9054V68.0995H72.5689V64.1488C72.5689 63.6622 72.4744 63.2953 72.2852 63.0482C72.0959 62.8011 71.8083 62.6774 71.422 62.6774C70.8814 62.6774 70.4913 62.8512 70.2519 63.1987C70.0163 63.5425 69.8986 64.0426 69.8986 64.6991V68.0995H68.5372V64.1488C68.5372 63.8244 68.4948 63.554 68.4098 63.3378C68.3287 63.1177 68.2031 62.9535 68.0333 62.8454C67.8634 62.7334 67.649 62.6774 67.3903 62.6774C67.0156 62.6774 66.7164 62.7624 66.4924 62.9323C66.2722 63.1023 66.114 63.3532 66.0174 63.6854C65.9208 64.0136 65.8725 64.4172 65.8725 64.896V68.0995H64.5112V61.6868H65.5713L65.7624 62.55H65.8378C65.9691 62.326 66.1313 62.1425 66.3244 61.9997C66.5214 61.8529 66.7395 61.7448 66.9789 61.6753C67.2183 61.6019 67.4675 61.5652 67.7262 61.5652C68.205 61.5652 68.6086 61.6502 68.9369 61.8201C69.2652 61.9861 69.5104 62.241 69.6726 62.5848H69.7768C69.9777 62.2372 70.2577 61.9803 70.6168 61.8142C70.976 61.6483 71.3564 61.5652 71.758 61.5652ZM78.2545 61.5652C78.8259 61.5652 79.3165 61.683 79.7258 61.9185C80.1352 62.1541 80.4499 62.4882 80.67 62.9208C80.8902 63.3532 81.0002 63.8707 81.0002 64.4732V65.2031H76.7193C76.7349 65.8249 76.9008 66.3037 77.2176 66.6396C77.538 66.9756 77.986 67.1436 78.5615 67.1436C78.9708 67.1436 79.3377 67.105 79.6621 67.0278C79.9903 66.9467 80.3282 66.8289 80.6758 66.6744V67.7808C80.3553 67.9315 80.0289 68.0416 79.6968 68.1111C79.3647 68.1806 78.967 68.2154 78.5035 68.2154C77.874 68.2154 77.3199 68.0936 76.841 67.8503C76.366 67.6032 75.9934 67.2364 75.723 66.7497C75.4565 66.2631 75.3233 65.6588 75.3233 64.9366C75.3233 64.2183 75.4449 63.6081 75.6882 63.1061C75.9316 62.604 76.2734 62.2218 76.7135 61.9591C77.1538 61.6966 77.6675 61.5652 78.2545 61.5652ZM78.2545 62.5905C77.8257 62.5905 77.4782 62.7295 77.2118 63.0076C76.9491 63.2857 76.7946 63.6931 76.7483 64.2299H79.6679C79.664 63.9094 79.61 63.6255 79.5057 63.3783C79.4052 63.1312 79.2508 62.9381 79.0422 62.799C78.8376 62.66 78.575 62.5905 78.2545 62.5905ZM86.7146 66.2689C86.7146 66.6898 86.6122 67.0451 86.4076 67.3348C86.203 67.6244 85.9036 67.8446 85.5098 67.9952C85.1197 68.1419 84.6408 68.2154 84.0731 68.2154C83.6251 68.2154 83.239 68.1825 82.9146 68.1168C82.594 68.0551 82.2908 67.9585 82.0051 67.8272V66.6513C82.3102 66.7941 82.6519 66.9177 83.0304 67.022C83.4128 67.1263 83.7738 67.1784 84.1137 67.1784C84.5616 67.1784 84.8841 67.1088 85.081 66.9699C85.2781 66.827 85.3765 66.6377 85.3765 66.4021C85.3765 66.2631 85.336 66.1396 85.2548 66.0314C85.1776 65.9194 85.0308 65.8055 84.8146 65.6896C84.6022 65.5699 84.2894 65.4271 83.8761 65.261C83.4707 65.0988 83.1289 64.9366 82.8509 64.7744C82.5728 64.6122 82.3624 64.4172 82.2194 64.1893C82.0766 63.9576 82.0051 63.6622 82.0051 63.303C82.0051 62.7353 82.2291 62.3048 82.6771 62.0113C83.1289 61.7139 83.7256 61.5652 84.4671 61.5652C84.8609 61.5652 85.2317 61.6058 85.5793 61.6868C85.9307 61.7641 86.2744 61.8781 86.6103 62.0286L86.1817 63.054C85.892 62.9265 85.6005 62.8223 85.307 62.7411C85.0173 62.6562 84.7219 62.6137 84.4207 62.6137C84.0693 62.6137 83.8008 62.6677 83.6155 62.7759C83.434 62.884 83.3432 63.0384 83.3432 63.2393C83.3432 63.39 83.3876 63.5174 83.4765 63.6217C83.5653 63.7259 83.7178 63.8302 83.934 63.9345C84.1542 64.0387 84.4592 64.1681 84.8493 64.3226C85.2317 64.4693 85.5618 64.6238 85.8399 64.786C86.1218 64.9443 86.3381 65.1394 86.4887 65.3711C86.6393 65.6028 86.7146 65.9021 86.7146 66.2689ZM28.461 78.4859C28.0555 78.4859 27.6925 78.5592 27.372 78.706C27.0553 78.8527 26.787 79.0652 26.5668 79.3432C26.3467 79.6175 26.1787 79.9514 26.0628 80.3454C25.947 80.7354 25.889 81.1756 25.889 81.6661C25.889 82.3226 25.9818 82.8884 26.1671 83.3634C26.3525 83.8345 26.6344 84.1975 27.0129 84.4525C27.3913 84.7035 27.8702 84.829 28.4495 84.829C28.8086 84.829 29.1581 84.7943 29.4979 84.7248C29.8378 84.6552 30.1892 84.5606 30.5522 84.4409V85.6226C30.2086 85.7577 29.8609 85.8562 29.5095 85.918C29.1581 85.9798 28.7526 86.0108 28.2931 86.0108C27.428 86.0108 26.7097 85.8311 26.1382 85.472C25.5705 85.1128 25.1456 84.6069 24.8638 83.9543C24.5857 83.3016 24.4466 82.537 24.4466 81.6604C24.4466 81.0193 24.5355 80.4323 24.7131 79.8993C24.8908 79.3664 25.1496 78.9068 25.4893 78.5207C25.8292 78.1306 26.2482 77.8313 26.7464 77.6227C27.2485 77.4104 27.822 77.3042 28.4669 77.3042C28.8917 77.3042 29.3087 77.3525 29.7181 77.449C30.1313 77.5417 30.5137 77.6749 30.8651 77.8487L30.3784 78.9957C30.0849 78.8567 29.7779 78.737 29.4575 78.6365C29.1369 78.5361 28.8047 78.4859 28.461 78.4859ZM37.7786 82.6741C37.7786 83.207 37.7091 83.68 37.57 84.0932C37.431 84.5066 37.2282 84.856 36.9618 85.1418C36.6953 85.4238 36.3748 85.64 36.0002 85.7906C35.6256 85.9373 35.2028 86.0108 34.7315 86.0108C34.2913 86.0108 33.8878 85.9373 33.5209 85.7906C33.154 85.64 32.8354 85.4238 32.5651 85.1418C32.2986 84.856 32.092 84.5066 31.9453 84.0932C31.7985 83.68 31.7251 83.207 31.7251 82.6741C31.7251 81.9674 31.8468 81.3688 32.0901 80.8783C32.3372 80.384 32.6886 80.0074 33.1443 79.7487C33.6 79.4899 34.1426 79.3606 34.7721 79.3606C35.363 79.3606 35.8843 79.4899 36.3362 79.7487C36.788 80.0074 37.1414 80.384 37.3962 80.8783C37.6512 81.3727 37.7786 81.9712 37.7786 82.6741ZM33.127 82.6741C33.127 83.1413 33.183 83.5411 33.295 83.8732C33.4108 84.2052 33.5885 84.4602 33.8279 84.6378C34.0673 84.8116 34.3762 84.8986 34.7548 84.8986C35.1332 84.8986 35.4422 84.8116 35.6816 84.6378C35.921 84.4602 36.0967 84.2052 36.2087 83.8732C36.3207 83.5411 36.3767 83.1413 36.3767 82.6741C36.3767 82.2068 36.3207 81.8109 36.2087 81.4866C36.0967 81.1583 35.921 80.9092 35.6816 80.7393C35.4422 80.5655 35.1312 80.4786 34.749 80.4786C34.1851 80.4786 33.7738 80.6679 33.5151 81.0463C33.2563 81.4248 33.127 81.9674 33.127 82.6741ZM40.5792 85.8949H39.2121V76.8813H40.5792V85.8949ZM43.7622 85.8949H42.3951V76.8813H43.7622V85.8949ZM48.1327 79.3606C48.7043 79.3606 49.1947 79.4784 49.604 79.7139C50.0134 79.9495 50.3281 80.2836 50.5482 80.7162C50.7684 81.1486 50.8785 81.6661 50.8785 82.2686V82.9985H46.5976C46.6131 83.6202 46.7792 84.0991 47.0958 84.435C47.4163 84.771 47.8643 84.939 48.4397 84.939C48.849 84.939 49.2159 84.9005 49.5403 84.8232C49.8685 84.7421 50.2064 84.6243 50.554 84.4698V85.5762C50.2335 85.7269 49.9072 85.837 49.575 85.9065C49.243 85.976 48.8452 86.0108 48.3818 86.0108C47.7523 86.0108 47.1981 85.889 46.7192 85.6457C46.2442 85.3986 45.8716 85.0318 45.6012 84.5451C45.3348 84.0585 45.2015 83.4542 45.2015 82.732C45.2015 82.0137 45.3231 81.4035 45.5665 80.9015C45.8098 80.3994 46.1516 80.0172 46.5918 79.7545C47.0321 79.492 47.5457 79.3606 48.1327 79.3606ZM48.1327 80.3859C47.704 80.3859 47.3564 80.5249 47.09 80.803C46.8273 81.0811 46.6729 81.4885 46.6266 82.0253H49.5461C49.5423 81.7048 49.4882 81.4209 49.3839 81.1737C49.2836 80.9266 49.129 80.7335 48.9205 80.5944C48.7158 80.4554 48.4532 80.3859 48.1327 80.3859ZM54.8666 86.0108C54.2603 86.0108 53.7351 85.893 53.291 85.6573C52.8469 85.4217 52.5051 85.0607 52.2657 84.5741C52.0262 84.0876 51.9065 83.4696 51.9065 82.7204C51.9065 81.9404 52.0378 81.3032 52.3003 80.8088C52.563 80.3145 52.926 79.9495 53.3894 79.7139C53.8567 79.4784 54.3915 79.3606 54.9941 79.3606C55.3763 79.3606 55.722 79.3992 56.031 79.4764C56.3438 79.5498 56.6083 79.6406 56.8245 79.7487L56.419 80.8378C56.1835 80.7412 55.9421 80.6602 55.695 80.5944C55.4478 80.5288 55.2103 80.496 54.9825 80.496C54.6078 80.496 54.2951 80.579 54.0441 80.7451C53.7968 80.9112 53.6115 81.1583 53.4879 81.4866C53.3682 81.8148 53.3084 82.2222 53.3084 82.7089C53.3084 83.18 53.3701 83.5778 53.4937 83.9021C53.6173 84.2227 53.8007 84.466 54.0441 84.632C54.2874 84.7943 54.5866 84.8753 54.9419 84.8753C55.2933 84.8753 55.608 84.8328 55.8861 84.7479C56.1642 84.6629 56.4267 84.5528 56.674 84.4177V85.5995C56.4307 85.7385 56.17 85.8408 55.8919 85.9065C55.6139 85.976 55.2721 86.0108 54.8666 86.0108ZM60.4362 84.9101C60.6139 84.9101 60.7896 84.8946 60.9634 84.8638C61.1371 84.829 61.2955 84.7885 61.4383 84.7421V85.7733C61.2877 85.8389 61.0927 85.8949 60.8533 85.9412C60.6139 85.9875 60.3648 86.0108 60.106 86.0108C59.743 86.0108 59.4166 85.9508 59.127 85.8311C58.8374 85.7075 58.6076 85.4971 58.4377 85.1998C58.2677 84.9023 58.1828 84.491 58.1828 83.9658V80.5191H57.3081V79.911L58.2465 79.4301L58.6926 78.0573H59.55V79.4822H61.3862V80.5191H59.55V83.9485C59.55 84.2729 59.631 84.5143 59.7932 84.6726C59.9553 84.8309 60.1697 84.9101 60.4362 84.9101ZM63.9725 79.4822V85.8949H62.6112V79.4822H63.9725ZM63.3005 77.0261C63.5091 77.0261 63.6887 77.0821 63.8392 77.1941C63.9937 77.3061 64.0709 77.4992 64.0709 77.7734C64.0709 78.0438 63.9937 78.2368 63.8392 78.3527C63.6887 78.4647 63.5091 78.5207 63.3005 78.5207C63.0842 78.5207 62.9008 78.4647 62.7503 78.3527C62.6035 78.2368 62.5301 78.0438 62.5301 77.7734C62.5301 77.4992 62.6035 77.3061 62.7503 77.1941C62.9008 77.0821 63.0842 77.0261 63.3005 77.0261ZM71.4711 82.6741C71.4711 83.207 71.4016 83.68 71.2625 84.0932C71.1235 84.5066 70.9207 84.856 70.6543 85.1418C70.3878 85.4238 70.0673 85.64 69.6927 85.7906C69.3181 85.9373 68.8953 86.0108 68.424 86.0108C67.9839 86.0108 67.5803 85.9373 67.2134 85.7906C66.8465 85.64 66.5279 85.4238 66.2576 85.1418C65.9912 84.856 65.7845 84.5066 65.6378 84.0932C65.491 83.68 65.4177 83.207 65.4177 82.6741C65.4177 81.9674 65.5393 81.3688 65.7826 80.8783C66.0297 80.384 66.3811 80.0074 66.8369 79.7487C67.2926 79.4899 67.8351 79.3606 68.4646 79.3606C69.0555 79.3606 69.5768 79.4899 70.0287 79.7487C70.4805 80.0074 70.8339 80.384 71.0887 80.8783C71.3437 81.3727 71.4711 81.9712 71.4711 82.6741ZM66.8195 82.6741C66.8195 83.1413 66.8755 83.5411 66.9875 83.8732C67.1034 84.2052 67.281 84.4602 67.5204 84.6378C67.7598 84.8116 68.0689 84.8986 68.4473 84.8986C68.8257 84.8986 69.1347 84.8116 69.3741 84.6378C69.6135 84.4602 69.7893 84.2052 69.9013 83.8732C70.0133 83.5411 70.0693 83.1413 70.0693 82.6741C70.0693 82.2068 70.0133 81.8109 69.9013 81.4866C69.7893 81.1583 69.6135 80.9092 69.3741 80.7393C69.1347 80.5655 68.8239 80.4786 68.4415 80.4786C67.8776 80.4786 67.4664 80.6679 67.2077 81.0463C66.9489 81.4248 66.8195 81.9674 66.8195 82.6741ZM76.247 79.3606C76.9693 79.3606 77.5311 79.5479 77.9327 79.9225C78.3382 80.2932 78.541 80.8898 78.541 81.7125V85.8949H77.1797V81.9674C77.1797 81.4691 77.0774 81.0965 76.8727 80.8494C76.6681 80.5984 76.3513 80.4728 75.9227 80.4728C75.3009 80.4728 74.8684 80.664 74.6251 81.0463C74.3856 81.4287 74.2659 81.9828 74.2659 82.7089V85.8949H72.9047V79.4822H73.9647L74.1559 80.3511H74.2312C74.3702 80.1271 74.5421 79.9437 74.7467 79.8009C74.9553 79.6541 75.187 79.544 75.4418 79.4707C75.7006 79.3973 75.9691 79.3606 76.247 79.3606Z" fill="#FEB708"/>
</g>
<g clip-path="url(#clip2_219_14)">
<mask id="mask1_219_14" style="mask-type:luminance" maskUnits="userSpaceOnUse" x="143" y="4" width="44" height="48">
<path d="M186.802 4.28027H143.602V51.2424H186.802V4.28027Z" fill="white"/>
</mask>
<g mask="url(#mask1_219_14)">
<path d="M186.802 13.8014V27.4463C186.741 27.8869 186.679 28.3276 186.617 28.7683C185.528 36.5724 181.593 42.4946 174.819 46.4998C172.332 47.9706 169.775 49.3219 167.246 50.7211C165.934 51.4467 164.618 51.4242 163.311 50.6959C160.906 49.3571 158.474 48.0645 156.099 46.6739C148.176 42.0343 144.052 35.1073 143.824 25.925C143.73 22.1373 143.803 18.3455 143.81 14.555C143.814 12.4556 145.225 10.8403 147.291 10.6143C153.008 9.98564 158.314 8.17249 163.226 5.1791C164.579 4.35393 165.961 4.36656 167.339 5.14402C168.253 5.65906 169.155 6.19795 170.087 6.6765C174.234 8.8026 178.633 10.0895 183.262 10.6045C185.007 10.7982 186.24 11.876 186.698 13.574C186.72 13.6526 186.766 13.7241 186.801 13.7985L186.802 13.8014ZM164.065 28.0905C162.949 27.0983 161.879 26.1299 160.79 25.1827C159.758 24.2845 158.402 24.3533 157.57 25.3231C156.753 26.2745 156.884 27.6021 157.886 28.4947C159.428 29.8685 160.971 31.2424 162.516 32.6121C163.737 33.6941 164.91 33.6366 166.035 32.4381C167.898 30.4551 169.754 28.4694 171.612 26.4836C172.459 25.5785 173.323 24.6901 174.143 23.7611C174.728 23.0986 174.832 22.3058 174.491 21.4918C174.147 20.675 173.498 20.2274 172.62 20.1545C171.842 20.0899 171.235 20.4351 170.711 20.995C168.517 23.3499 166.312 25.6936 164.065 28.0919V28.0905Z" fill="#FEB708"/>
</g>
<path d="M153.335 65.7942C153.335 66.2963 153.211 66.7288 152.964 67.0918C152.721 67.4549 152.369 67.7329 151.91 67.926C151.454 68.1191 150.909 68.2157 150.276 68.2157C149.967 68.2157 149.672 68.1982 149.39 68.1635C149.108 68.1287 148.841 68.0785 148.59 68.0129C148.343 67.9434 148.117 67.8604 147.913 67.7638V66.4546C148.256 66.6052 148.641 66.7423 149.065 66.866C149.49 66.9857 149.923 67.0455 150.363 67.0455C150.722 67.0455 151.02 66.9992 151.255 66.9064C151.495 66.81 151.672 66.6747 151.788 66.5009C151.904 66.3233 151.962 66.1168 151.962 65.8812C151.962 65.6301 151.894 65.4178 151.759 65.244C151.624 65.0702 151.419 64.9118 151.145 64.7689C150.875 64.6222 150.535 64.4657 150.125 64.2997C149.847 64.1878 149.581 64.0603 149.326 63.9174C149.075 63.7745 148.851 63.6066 148.654 63.4134C148.457 63.2203 148.301 62.9925 148.185 62.7298C148.073 62.4634 148.017 62.1507 148.017 61.7914C148.017 61.3126 148.131 60.9032 148.359 60.5634C148.59 60.2235 148.915 59.9629 149.332 59.7814C149.753 59.5999 150.243 59.5091 150.803 59.5091C151.247 59.5091 151.664 59.5555 152.055 59.6481C152.448 59.7408 152.835 59.8721 153.213 60.042L152.773 61.16C152.425 61.0171 152.087 60.9032 151.759 60.8183C151.435 60.7333 151.103 60.6908 150.763 60.6908C150.469 60.6908 150.22 60.7352 150.015 60.8241C149.811 60.9129 149.654 61.0384 149.546 61.2006C149.442 61.3589 149.39 61.5481 149.39 61.7683C149.39 62.0154 149.45 62.224 149.569 62.3939C149.693 62.5599 149.882 62.7125 150.137 62.8516C150.396 62.9906 150.728 63.1451 151.133 63.3149C151.601 63.5081 151.996 63.7108 152.321 63.9232C152.649 64.1355 152.9 64.3905 153.074 64.6878C153.248 64.9813 153.335 65.3501 153.335 65.7942ZM157.213 61.5655C158.024 61.5655 158.636 61.7452 159.049 62.1043C159.466 62.4634 159.675 63.0233 159.675 63.7842V68.0998H158.707L158.447 67.1903H158.4C158.219 67.422 158.032 67.6131 157.838 67.7638C157.645 67.9143 157.421 68.0265 157.166 68.0998C156.915 68.177 156.608 68.2157 156.245 68.2157C155.863 68.2157 155.521 68.1462 155.22 68.0071C154.919 67.8642 154.681 67.6479 154.508 67.3583C154.334 67.0687 154.247 66.7018 154.247 66.2577C154.247 65.5973 154.492 65.101 154.983 64.7689C155.477 64.4368 156.222 64.2534 157.219 64.2186L158.331 64.178V63.842C158.331 63.398 158.227 63.0814 158.018 62.8921C157.813 62.7028 157.524 62.6082 157.149 62.6082C156.829 62.6082 156.518 62.6546 156.216 62.7473C155.915 62.8399 155.622 62.9538 155.336 63.0891L154.896 62.1274C155.208 61.9613 155.564 61.8262 155.962 61.7219C156.363 61.6176 156.78 61.5655 157.213 61.5655ZM158.325 65.0354L157.497 65.0643C156.817 65.0875 156.34 65.2034 156.066 65.412C155.792 65.6205 155.655 65.9062 155.655 66.2692C155.655 66.586 155.749 66.8177 155.938 66.9644C156.128 67.1073 156.377 67.1787 156.686 67.1787C157.157 67.1787 157.547 67.0455 157.856 66.779C158.169 66.5087 158.325 66.1129 158.325 65.5915V65.0354ZM164.653 62.724H163.095V68.0998H161.734V62.724H160.685V62.0695L161.734 61.6698V61.2238C161.734 60.6792 161.819 60.2467 161.989 59.9262C162.163 59.6057 162.41 59.3759 162.73 59.2368C163.055 59.094 163.441 59.0225 163.889 59.0225C164.182 59.0225 164.451 59.0476 164.694 59.0978C164.937 59.1442 165.142 59.1982 165.308 59.26L164.955 60.2912C164.823 60.2487 164.677 60.21 164.514 60.1752C164.352 60.1367 164.178 60.1173 163.993 60.1173C163.684 60.1173 163.456 60.2139 163.31 60.4069C163.167 60.6001 163.095 60.882 163.095 61.2527V61.6871H164.653V62.724ZM168.172 61.5655C168.744 61.5655 169.234 61.6833 169.644 61.9188C170.053 62.1544 170.368 62.4885 170.588 62.9211C170.808 63.3535 170.918 63.871 170.918 64.4735V65.2034H166.637C166.653 65.8252 166.819 66.304 167.136 66.64C167.456 66.9759 167.904 67.1439 168.479 67.1439C168.889 67.1439 169.256 67.1054 169.58 67.0281C169.908 66.947 170.246 66.8292 170.594 66.6747V67.7811C170.273 67.9318 169.947 68.0419 169.615 68.1114C169.283 68.1809 168.885 68.2157 168.422 68.2157C167.792 68.2157 167.238 68.094 166.759 67.8506C166.284 67.6035 165.911 67.2367 165.641 66.7501C165.374 66.2634 165.241 65.6591 165.241 64.9369C165.241 64.2186 165.363 63.6085 165.606 63.1064C165.85 62.6043 166.191 62.2221 166.632 61.9594C167.072 61.6969 167.585 61.5655 168.172 61.5655ZM168.172 62.5908C167.744 62.5908 167.396 62.7298 167.13 63.0079C166.867 63.286 166.713 63.6934 166.666 64.2302H169.586C169.582 63.9097 169.528 63.6258 169.424 63.3787C169.323 63.1315 169.169 62.9384 168.96 62.7994C168.755 62.6603 168.493 62.5908 168.172 62.5908ZM177.944 59.5033C178.381 59.5033 178.763 59.5747 179.091 59.7177C179.424 59.8605 179.682 60.0691 179.868 60.3432C180.053 60.6136 180.146 60.9438 180.146 61.3338C180.146 61.8551 179.984 62.2954 179.659 62.6546C179.335 63.0137 178.925 63.3343 178.431 63.6162L180.43 65.5625C180.619 65.3038 180.775 65.02 180.899 64.7111C181.022 64.3982 181.129 64.0699 181.217 63.7263H182.625C182.505 64.2051 182.339 64.6782 182.127 65.1455C181.914 65.6089 181.646 66.0337 181.322 66.4199L183.042 68.0998H181.299L180.441 67.2598C180.202 67.453 179.945 67.621 179.671 67.7638C179.4 67.9066 179.105 68.0186 178.784 68.0998C178.464 68.177 178.111 68.2157 177.724 68.2157C177.133 68.2157 176.624 68.121 176.195 67.9318C175.766 67.7426 175.436 67.4722 175.205 67.1208C174.977 66.7655 174.863 66.3446 174.863 65.858C174.863 65.4525 174.93 65.1049 175.065 64.8152C175.205 64.5217 175.401 64.265 175.656 64.0448C175.911 63.8208 176.216 63.6084 176.572 63.4076C176.378 63.1875 176.21 62.9732 176.068 62.7646C175.925 62.556 175.815 62.3418 175.737 62.1216C175.664 61.8976 175.627 61.6582 175.627 61.4034C175.627 61.0094 175.724 60.6715 175.917 60.3896C176.11 60.1038 176.38 59.8857 176.728 59.735C177.076 59.5805 177.481 59.5033 177.944 59.5033ZM177.377 64.236C177.153 64.3789 176.96 64.5237 176.797 64.6705C176.635 64.8133 176.51 64.9717 176.421 65.1455C176.336 65.3192 176.293 65.5219 176.293 65.7537C176.293 66.1514 176.433 66.4662 176.711 66.698C176.993 66.9297 177.356 67.0455 177.8 67.0455C178.19 67.0455 178.531 66.9876 178.825 66.8717C179.122 66.752 179.381 66.6033 179.601 66.4257L177.377 64.236ZM177.921 60.5807C177.647 60.5807 177.41 60.6522 177.209 60.7951C177.012 60.938 176.913 61.16 176.913 61.4613C176.913 61.7046 176.977 61.9344 177.104 62.1507C177.236 62.363 177.417 62.5928 177.649 62.8399C178.055 62.6159 178.356 62.3959 178.553 62.1796C178.754 61.9633 178.854 61.7123 178.854 61.4265C178.854 61.1561 178.763 60.9477 178.582 60.8009C178.4 60.6542 178.18 60.5807 177.921 60.5807ZM152.153 83.5896C152.153 84.0917 152.029 84.5242 151.782 84.8872C151.539 85.2503 151.188 85.5283 150.728 85.7214C150.272 85.9145 149.728 86.0111 149.094 86.0111C148.785 86.0111 148.49 85.9936 148.208 85.9589C147.926 85.9241 147.66 85.8739 147.409 85.8083C147.161 85.7388 146.936 85.6558 146.731 85.5592V84.25C147.075 84.4006 147.459 84.5377 147.884 84.6614C148.308 84.7811 148.741 84.8408 149.181 84.8408C149.54 84.8408 149.838 84.7946 150.073 84.7018C150.313 84.6054 150.49 84.4701 150.606 84.2963C150.722 84.1187 150.78 83.9122 150.78 83.6766C150.78 83.4255 150.713 83.2132 150.577 83.0394C150.442 82.8656 150.237 82.7072 149.963 82.5643C149.693 82.4176 149.353 82.2611 148.944 82.0951C148.666 81.9831 148.399 81.8557 148.144 81.7128C147.893 81.5699 147.669 81.4019 147.472 81.2088C147.275 81.0157 147.119 80.7879 147.003 80.5252C146.891 80.2588 146.835 79.9461 146.835 79.5868C146.835 79.108 146.949 78.6986 147.177 78.3588C147.409 78.0189 147.733 77.7583 148.15 77.5768C148.571 77.3953 149.062 77.3045 149.622 77.3045C150.066 77.3045 150.483 77.3509 150.873 77.4435C151.267 77.5362 151.653 77.6675 152.031 77.8374L151.591 78.9554C151.244 78.8125 150.906 78.6986 150.577 78.6136C150.253 78.5287 149.921 78.4862 149.581 78.4862C149.287 78.4862 149.038 78.5306 148.834 78.6195C148.629 78.7083 148.473 78.8338 148.364 78.996C148.26 79.1543 148.208 79.3435 148.208 79.5637C148.208 79.8108 148.268 80.0194 148.388 80.1893C148.511 80.3553 148.7 80.5079 148.955 80.647C149.214 80.786 149.546 80.9405 149.952 81.1103C150.419 81.3035 150.815 81.5062 151.139 81.7186C151.467 81.9309 151.719 82.1859 151.892 82.4832C152.066 82.7767 152.153 83.1455 152.153 83.5896ZM156.072 79.3609C156.643 79.3609 157.134 79.4787 157.543 79.7142C157.952 79.9498 158.267 80.2839 158.487 80.7165C158.707 81.1489 158.817 81.6664 158.817 82.2689V82.9988H154.536C154.552 83.6206 154.718 84.0994 155.035 84.4354C155.355 84.7713 155.803 84.9393 156.379 84.9393C156.788 84.9393 157.155 84.9008 157.479 84.8235C157.808 84.7424 158.145 84.6246 158.493 84.4701V85.5765C158.172 85.7272 157.846 85.8373 157.514 85.9068C157.182 85.9763 156.784 86.0111 156.321 86.0111C155.691 86.0111 155.137 85.8894 154.658 85.646C154.183 85.3989 153.81 85.0321 153.54 84.5454C153.274 84.0588 153.141 83.4545 153.141 82.7323C153.141 82.014 153.262 81.4038 153.505 80.9018C153.749 80.3997 154.091 80.0175 154.531 79.7548C154.971 79.4923 155.485 79.3609 156.072 79.3609ZM156.072 80.3862C155.643 80.3862 155.295 80.5252 155.029 80.8033C154.766 81.0814 154.612 81.4888 154.565 82.0256H157.485C157.481 81.7051 157.427 81.4212 157.323 81.174C157.222 80.9269 157.068 80.7338 156.859 80.5948C156.655 80.4557 156.392 80.3862 156.072 80.3862ZM162.806 86.0111C162.199 86.0111 161.674 85.8933 161.23 85.6577C160.786 85.422 160.444 85.061 160.205 84.5744C159.965 84.0879 159.845 83.4699 159.845 82.7207C159.845 81.9407 159.977 81.3035 160.239 80.8091C160.502 80.3148 160.865 79.9498 161.328 79.7142C161.796 79.4787 162.331 79.3609 162.933 79.3609C163.315 79.3609 163.661 79.3995 163.97 79.4767C164.283 79.5502 164.547 79.6409 164.764 79.749L164.358 80.8381C164.122 80.7415 163.881 80.6605 163.634 80.5948C163.387 80.5291 163.149 80.4963 162.921 80.4963C162.547 80.4963 162.234 80.5793 161.983 80.7454C161.736 80.9115 161.55 81.1586 161.427 81.4869C161.307 81.8152 161.247 82.2226 161.247 82.7092C161.247 83.1803 161.309 83.5781 161.433 83.9024C161.556 84.223 161.74 84.4663 161.983 84.6323C162.226 84.7946 162.526 84.8756 162.881 84.8756C163.232 84.8756 163.547 84.8331 163.825 84.7482C164.103 84.6633 164.366 84.5532 164.613 84.418V85.5998C164.37 85.7388 164.109 85.8411 163.831 85.9068C163.553 85.9763 163.211 86.0111 162.806 86.0111ZM171.579 79.4825V85.8952H170.507L170.321 85.0321H170.246C170.111 85.2522 169.939 85.4356 169.731 85.5823C169.522 85.7253 169.29 85.8315 169.035 85.901C168.781 85.9743 168.512 86.0111 168.23 86.0111C167.748 86.0111 167.334 85.9299 166.991 85.7678C166.651 85.6017 166.39 85.3468 166.209 85.003C166.027 84.6593 165.936 84.2153 165.936 83.6707V79.4825H167.304V83.4159C167.304 83.9141 167.404 84.2867 167.605 84.5338C167.809 84.7811 168.126 84.9046 168.555 84.9046C168.968 84.9046 169.296 84.8196 169.539 84.6497C169.783 84.4798 169.955 84.2288 170.055 83.8966C170.159 83.5646 170.211 83.1572 170.211 82.6744V79.4825H171.579ZM176.65 79.3609C176.758 79.3609 176.876 79.3667 177.003 79.3783C177.131 79.3899 177.241 79.4053 177.333 79.4246L177.206 80.699C177.125 80.6759 177.025 80.6585 176.905 80.647C176.789 80.6353 176.685 80.6295 176.592 80.6295C176.349 80.6295 176.117 80.6701 175.897 80.7512C175.677 80.8285 175.482 80.9482 175.312 81.1103C175.142 81.2687 175.009 81.4676 174.912 81.707C174.816 81.9464 174.767 82.2244 174.767 82.5412V85.8952H173.4V79.4825H174.466L174.651 80.6122H174.715C174.843 80.3843 175.001 80.1757 175.19 79.9865C175.379 79.7973 175.596 79.6467 175.839 79.5347C176.086 79.4188 176.356 79.3609 176.65 79.3609ZM180.945 79.3609C181.517 79.3609 182.007 79.4787 182.417 79.7142C182.826 79.9498 183.141 80.2839 183.361 80.7165C183.581 81.1489 183.691 81.6664 183.691 82.2689V82.9988H179.41C179.425 83.6206 179.592 84.0994 179.908 84.4354C180.229 84.7713 180.677 84.9393 181.252 84.9393C181.662 84.9393 182.028 84.9008 182.353 84.8235C182.681 84.7424 183.019 84.6246 183.366 84.4701V85.5765C183.046 85.7272 182.72 85.8373 182.387 85.9068C182.055 85.9763 181.658 86.0111 181.194 86.0111C180.565 86.0111 180.011 85.8894 179.532 85.646C179.057 85.3989 178.684 85.0321 178.414 84.5454C178.147 84.0588 178.014 83.4545 178.014 82.7323C178.014 82.014 178.136 81.4038 178.379 80.9018C178.622 80.3997 178.964 80.0175 179.404 79.7548C179.845 79.4923 180.358 79.3609 180.945 79.3609ZM180.945 80.3862C180.516 80.3862 180.169 80.5252 179.902 80.8033C179.64 81.0814 179.485 81.4888 179.439 82.0256H182.359C182.355 81.7051 182.301 81.4212 182.196 81.174C182.096 80.9269 181.942 80.7338 181.733 80.5948C181.528 80.4557 181.266 80.3862 180.945 80.3862Z" fill="#FEB708"/>
</g>
<g clip-path="url(#clip3_219_14)">
<mask id="mask2_219_14" style="mask-type:luminance" maskUnits="userSpaceOnUse" x="254" y="7" width="50" height="42">
<path d="M303.329 7.00195H254.267V48.5245H303.329V7.00195Z" fill="white"/>
</mask>
<g mask="url(#mask2_219_14)">
<path d="M303.329 30.6006C302.868 31.5539 302.094 31.832 301.067 31.8069C298.926 31.7544 296.784 31.7944 294.643 31.7907C291.21 31.7844 288.808 29.4119 288.821 25.9821C288.825 25.1028 288.861 24.1846 289.111 23.3541C289.815 21.0242 291.91 19.5636 294.483 19.5286C296.824 19.496 299.165 19.5286 301.506 19.5185C302.427 19.5147 302.992 19.982 303.33 20.7924V30.6006H303.329Z" fill="#FEB708"/>
<path d="M301.284 34.4063C301.222 35.9496 301.312 37.439 301.073 38.872C300.583 41.8207 298.069 43.9214 295.048 43.9427C288.745 43.9878 282.44 43.9565 276.137 43.9552C276.014 43.9552 275.891 43.9277 275.725 43.9064V43.2399C275.725 39.8628 275.681 36.4844 275.742 33.1074C275.775 31.3061 275.004 30.0083 273.603 29.0099C272.014 27.88 270.189 27.3414 268.299 27.0133C265.008 26.442 261.723 26.4646 258.452 27.1924C258.348 27.2161 258.238 27.2136 258.081 27.2274C258.081 27.0295 258.081 26.8517 258.081 26.6725C258.081 22.3873 258.076 18.1007 258.083 13.8154C258.088 10.4771 260.243 7.95429 263.531 7.43194C263.905 7.37306 264.292 7.37933 264.673 7.37933C274.664 7.37682 284.656 7.37556 294.647 7.37933C298.543 7.37933 301.22 10.06 301.226 13.9494C301.227 14.9078 301.226 15.8673 301.226 16.9044C300.96 16.9044 300.75 16.9032 300.54 16.9044C298.197 16.9245 295.848 16.8443 293.514 16.9896C289.65 17.2301 286.346 20.7263 286.218 24.5994C286.182 25.683 286.169 26.7953 286.372 27.8525C287.097 31.6329 290.472 34.37 294.338 34.4038C296.408 34.4214 298.48 34.4076 300.551 34.4076C300.749 34.4076 300.948 34.4076 301.285 34.4076L301.284 34.4063ZM271.076 17.0998C272.528 17.0998 273.98 17.1036 275.432 17.0986C276.429 17.0948 277.119 16.4861 277.153 15.5917C277.186 14.7185 276.51 14.0271 275.532 13.972C274.989 13.9419 274.443 13.962 273.9 13.962C271.522 13.962 269.146 13.9507 266.768 13.9683C265.687 13.9758 265.018 14.6221 265.035 15.5717C265.05 16.4948 265.731 17.0961 266.777 17.0986C268.21 17.1023 269.644 17.0986 271.077 17.0986L271.076 17.0998Z" fill="#FEB708"/>
<path d="M263.874 29.2334C266.128 29.2634 268.439 29.4827 270.615 30.4034C271.256 30.6752 271.883 31.0535 272.414 31.502C273.337 32.2823 273.367 33.3672 272.433 34.1262C271.757 34.6749 270.961 35.1659 270.136 35.4252C265.672 36.8281 261.201 36.8407 256.793 35.1672C256.152 34.9241 255.544 34.487 255.038 34.0148C254.258 33.287 254.298 32.3813 255.045 31.6109C255.826 30.803 256.837 30.3908 257.881 30.0589C259.802 29.445 261.785 29.251 263.874 29.2334Z" fill="#FEB708"/>
<path d="M254.485 37.0892C260.7 39.716 266.857 39.7298 273.037 37.1104C273.536 38.8003 273.03 40.0805 271.439 40.9548C269.951 41.7741 268.317 42.1361 266.655 42.3328C263.744 42.6772 260.844 42.6021 258.028 41.7052C257.143 41.4233 256.293 40.9787 255.485 40.5077C254.77 40.0906 254.414 39.404 254.478 38.531C254.515 38.0325 254.485 37.5302 254.485 37.0879V37.0892Z" fill="#FEB708"/>
<path d="M254.485 43.1748C260.718 45.8154 266.872 45.8204 273.035 43.2049C273.246 45.4221 273.263 46.1436 271.025 47.2497C269.172 48.1642 267.15 48.456 265.113 48.5587C262.395 48.6953 259.708 48.4936 257.134 47.5015C256.813 47.3775 256.502 47.2284 256.196 47.0718C255.04 46.4768 254.294 45.6363 254.479 44.222C254.525 43.8663 254.486 43.5006 254.486 43.1761L254.485 43.1748Z" fill="#FEB708"/>
</g>
<path d="M239.692 63.8525C239.692 64.5128 239.607 65.1153 239.437 65.6598C239.267 66.2043 239.012 66.6697 238.673 67.0559C238.333 67.442 237.904 67.7336 237.387 67.9306L239.402 70.1144H237.549L235.956 68.2087C235.917 68.2087 235.879 68.2087 235.84 68.2087C235.805 68.2125 235.77 68.2145 235.736 68.2145C235.06 68.2145 234.473 68.1102 233.975 67.9016C233.48 67.6931 233.069 67.3958 232.741 67.0095C232.416 66.6233 232.173 66.1618 232.011 65.625C231.849 65.0883 231.768 64.4936 231.768 63.8408C231.768 62.9682 231.91 62.2073 232.196 61.5585C232.486 60.9059 232.924 60.3999 233.511 60.0408C234.102 59.6778 234.847 59.4963 235.747 59.4963C236.628 59.4963 237.36 59.6759 237.943 60.035C238.526 60.3942 238.962 60.9001 239.252 61.5527C239.545 62.2015 239.692 62.9682 239.692 63.8525ZM233.227 63.8525C233.227 64.5051 233.316 65.0709 233.494 65.5498C233.671 66.0248 233.944 66.3916 234.311 66.6504C234.681 66.9052 235.156 67.0327 235.736 67.0327C236.319 67.0327 236.794 66.9052 237.161 66.6504C237.528 66.3916 237.798 66.0248 237.972 65.5498C238.145 65.0709 238.232 64.5051 238.232 63.8525C238.232 62.86 238.033 62.0837 237.636 61.5238C237.242 60.9599 236.612 60.678 235.747 60.678C235.168 60.678 234.691 60.8054 234.316 61.0604C233.946 61.3152 233.671 61.6801 233.494 62.1551C233.316 62.6264 233.227 63.1921 233.227 63.8525ZM246.832 61.6859V68.0986H245.76L245.575 67.2355H245.499C245.364 67.4556 245.192 67.639 244.984 67.7857C244.775 67.9287 244.543 68.0349 244.288 68.1044C244.034 68.1777 243.765 68.2145 243.483 68.2145C243.001 68.2145 242.587 68.1333 242.244 67.9712C241.904 67.8051 241.643 67.5502 241.462 67.2064C241.28 66.8627 241.189 66.4187 241.189 65.8741V61.6859H242.556V65.6193C242.556 66.1175 242.657 66.4901 242.858 66.7372C243.062 66.9845 243.379 67.108 243.808 67.108C244.221 67.108 244.549 67.023 244.792 66.8531C245.036 66.6832 245.208 66.4322 245.308 66.1C245.412 65.768 245.464 65.3606 245.464 64.8778V61.6859H246.832ZM250.014 61.6859V68.0986H248.653V61.6859H250.014ZM249.343 59.2298C249.551 59.2298 249.731 59.2858 249.881 59.3978C250.036 59.5098 250.113 59.7029 250.113 59.9771C250.113 60.2475 250.036 60.4405 249.881 60.5564C249.731 60.6684 249.551 60.7244 249.343 60.7244C249.126 60.7244 248.943 60.6684 248.792 60.5564C248.646 60.4405 248.572 60.2475 248.572 59.9771C248.572 59.7029 248.646 59.5098 248.792 59.3978C248.943 59.2858 249.126 59.2298 249.343 59.2298ZM254.42 68.2145C253.813 68.2145 253.288 68.0967 252.844 67.8611C252.4 67.6254 252.058 67.2644 251.819 66.7778C251.579 66.2913 251.46 65.6733 251.46 64.9241C251.46 64.1441 251.591 63.5069 251.854 63.0125C252.116 62.5182 252.479 62.1532 252.943 61.9176C253.41 61.6821 253.945 61.5643 254.547 61.5643C254.93 61.5643 255.275 61.6029 255.584 61.6801C255.897 61.7536 256.161 61.8443 256.378 61.9524L255.972 63.0415C255.737 62.9449 255.495 62.8639 255.248 62.7981C255.001 62.7325 254.763 62.6997 254.536 62.6997C254.161 62.6997 253.848 62.7827 253.597 62.9488C253.35 63.1149 253.165 63.362 253.041 63.6903C252.921 64.0186 252.861 64.4259 252.861 64.9126C252.861 65.3837 252.923 65.7815 253.047 66.1058C253.17 66.4264 253.354 66.6697 253.597 66.8357C253.84 66.998 254.14 67.079 254.495 67.079C254.847 67.079 255.161 67.0365 255.439 66.9516C255.717 66.8666 255.98 66.7566 256.227 66.6214V67.8032C255.984 67.9422 255.723 68.0445 255.445 68.1102C255.167 68.1797 254.825 68.2145 254.42 68.2145ZM258.964 59.085V63.4412C258.964 63.6381 258.956 63.8544 258.941 64.09C258.925 64.3217 258.91 64.5398 258.894 64.7446H258.923C259.024 64.6094 259.144 64.4511 259.283 64.2696C259.425 64.0881 259.561 63.9297 259.688 63.7946L261.646 61.6859H263.21L260.644 64.4433L263.378 68.0986H261.779L259.729 65.2833L258.964 65.9378V68.0986H257.603V59.085H258.964ZM274.239 63.7829C274.239 64.7368 274.062 65.5342 273.706 66.1754C273.351 66.8125 272.835 67.2934 272.16 67.6177C271.484 67.9383 270.669 68.0986 269.715 68.0986H267.363V59.6295H269.97C270.847 59.6295 271.603 59.7879 272.241 60.1045C272.878 60.4174 273.37 60.8826 273.718 61.5006C274.065 62.1147 274.239 62.8754 274.239 63.7829ZM272.791 63.8235C272.791 63.1283 272.681 62.5568 272.461 62.1089C272.245 61.6609 271.924 61.3287 271.499 61.1124C271.078 60.8924 270.559 60.7823 269.941 60.7823H268.753V66.9343H269.738C270.762 66.9343 271.526 66.6735 272.032 66.1522C272.538 65.6308 272.791 64.8546 272.791 63.8235ZM278.349 61.5643C278.921 61.5643 279.411 61.6821 279.82 61.9176C280.23 62.1532 280.544 62.4873 280.765 62.9199C280.985 63.3523 281.095 63.8698 281.095 64.4723V65.2022H276.814C276.829 65.824 276.995 66.3028 277.312 66.6387C277.633 66.9747 278.081 67.1427 278.656 67.1427C279.065 67.1427 279.432 67.1042 279.757 67.0269C280.085 66.9458 280.423 66.828 280.77 66.6735V67.7799C280.45 67.9306 280.124 68.0407 279.791 68.1102C279.459 68.1797 279.062 68.2145 278.598 68.2145C277.969 68.2145 277.415 68.0928 276.936 67.8494C276.461 67.6023 276.088 67.2355 275.818 66.7488C275.551 66.2622 275.418 65.6579 275.418 64.9357C275.418 64.2174 275.54 63.6072 275.783 63.1052C276.026 62.6031 276.368 62.2209 276.808 61.9582C277.248 61.6957 277.762 61.5643 278.349 61.5643ZM278.349 62.5896C277.92 62.5896 277.573 62.7286 277.306 63.0067C277.044 63.2848 276.889 63.6922 276.843 64.229H279.762C279.759 63.9085 279.705 63.6246 279.6 63.3774C279.5 63.1303 279.345 62.9372 279.137 62.7981C278.932 62.6591 278.67 62.5896 278.349 62.5896ZM285.79 61.5643C286.55 61.5643 287.161 61.8424 287.62 62.3985C288.084 62.9546 288.315 63.781 288.315 64.8778C288.315 65.6038 288.207 66.2159 287.991 66.7141C287.779 67.2084 287.479 67.583 287.093 67.8379C286.711 68.089 286.265 68.2145 285.755 68.2145C285.431 68.2145 285.149 68.1719 284.909 68.0869C284.67 68.002 284.465 67.8919 284.295 67.7568C284.125 67.6177 283.982 67.4672 283.867 67.305H283.785C283.805 67.4595 283.822 67.6313 283.837 67.8205C283.857 68.0059 283.867 68.1758 283.867 68.3303V70.9429H282.499V61.6859H283.612L283.803 62.5723H283.867C283.986 62.3908 284.131 62.2228 284.301 62.0683C284.475 61.9138 284.683 61.7921 284.927 61.7034C285.174 61.6106 285.461 61.5643 285.79 61.5643ZM285.425 62.6765C285.05 62.6765 284.749 62.7519 284.521 62.9024C284.297 63.0492 284.133 63.2713 284.029 63.5686C283.928 63.866 283.874 64.2386 283.867 64.6866V64.8778C283.867 65.3527 283.915 65.7563 284.011 66.0885C284.112 66.4168 284.276 66.6677 284.504 66.8415C284.735 67.0115 285.048 67.0964 285.442 67.0964C285.774 67.0964 286.048 67.0057 286.265 66.8242C286.485 66.6427 286.649 66.3839 286.757 66.0479C286.865 65.712 286.919 65.3161 286.919 64.8604C286.919 64.1691 286.796 63.6324 286.549 63.25C286.305 62.8677 285.931 62.6765 285.425 62.6765ZM295.437 64.8778C295.437 65.4108 295.368 65.8837 295.229 66.297C295.09 66.7103 294.887 67.0597 294.621 67.3455C294.354 67.6275 294.034 67.8437 293.659 67.9943C293.284 68.141 292.862 68.2145 292.39 68.2145C291.95 68.2145 291.547 68.141 291.18 67.9943C290.813 67.8437 290.494 67.6275 290.224 67.3455C289.957 67.0597 289.751 66.7103 289.604 66.297C289.457 65.8837 289.384 65.4108 289.384 64.8778C289.384 64.1711 289.506 63.5725 289.749 63.082C289.996 62.5877 290.347 62.2111 290.803 61.9524C291.259 61.6936 291.801 61.5643 292.431 61.5643C293.022 61.5643 293.543 61.6936 293.995 61.9524C294.447 62.2111 294.8 62.5877 295.055 63.082C295.31 63.5764 295.437 64.1749 295.437 64.8778ZM290.786 64.8778C290.786 65.345 290.842 65.7448 290.954 66.0769C291.07 66.409 291.247 66.6639 291.487 66.8415C291.726 67.0153 292.035 67.1023 292.414 67.1023C292.792 67.1023 293.101 67.0153 293.34 66.8415C293.58 66.6639 293.756 66.409 293.868 66.0769C293.98 65.7448 294.036 65.345 294.036 64.8778C294.036 64.4105 293.98 64.0146 293.868 63.6903C293.756 63.362 293.58 63.1129 293.34 62.943C293.101 62.7692 292.79 62.6824 292.408 62.6824C291.844 62.6824 291.433 62.8716 291.174 63.25C290.915 63.6285 290.786 64.1711 290.786 64.8778ZM301.181 66.268C301.181 66.6889 301.078 67.0442 300.874 67.334C300.669 67.6235 300.37 67.8437 299.976 67.9943C299.586 68.141 299.107 68.2145 298.539 68.2145C298.091 68.2145 297.705 68.1816 297.381 68.1159C297.06 68.0542 296.757 67.9576 296.471 67.8263V66.6504C296.776 66.7932 297.118 66.9168 297.496 67.0211C297.879 67.1254 298.24 67.1775 298.58 67.1775C299.028 67.1775 299.35 67.108 299.547 66.969C299.744 66.8261 299.843 66.6369 299.843 66.4012C299.843 66.2622 299.802 66.1387 299.721 66.0305C299.644 65.9185 299.497 65.8046 299.281 65.6887C299.068 65.569 298.755 65.4262 298.342 65.2601C297.937 65.0979 297.595 64.9357 297.317 64.7736C297.039 64.6113 296.828 64.4163 296.686 64.1884C296.543 63.9567 296.471 63.6613 296.471 63.3021C296.471 62.7344 296.695 62.3039 297.143 62.0104C297.595 61.713 298.192 61.5643 298.933 61.5643C299.327 61.5643 299.698 61.6049 300.045 61.6859C300.397 61.7632 300.74 61.8772 301.076 62.0277L300.648 63.0531C300.358 62.9256 300.067 62.8214 299.773 62.7403C299.484 62.6553 299.188 62.6128 298.887 62.6128C298.535 62.6128 298.267 62.6668 298.082 62.775C297.9 62.8831 297.809 63.0376 297.809 63.2384C297.809 63.3891 297.854 63.5165 297.943 63.6208C298.031 63.7251 298.184 63.8293 298.4 63.9336C298.62 64.0378 298.925 64.1672 299.316 64.3217C299.698 64.4684 300.028 64.6229 300.306 64.7851C300.588 64.9434 300.804 65.1385 300.955 65.3702C301.105 65.6019 301.181 65.9012 301.181 66.268ZM303.883 61.6859V68.0986H302.522V61.6859H303.883ZM303.211 59.2298C303.42 59.2298 303.599 59.2858 303.75 59.3978C303.904 59.5098 303.981 59.7029 303.981 59.9771C303.981 60.2475 303.904 60.4405 303.75 60.5564C303.599 60.6684 303.42 60.7244 303.211 60.7244C302.995 60.7244 302.811 60.6684 302.661 60.5564C302.514 60.4405 302.441 60.2475 302.441 59.9771C302.441 59.7029 302.514 59.5098 302.661 59.3978C302.811 59.2858 302.995 59.2298 303.211 59.2298ZM308.091 67.1138C308.269 67.1138 308.445 67.0983 308.618 67.0675C308.792 67.0327 308.95 66.9922 309.093 66.9458V67.977C308.943 68.0426 308.748 68.0986 308.508 68.145C308.269 68.1912 308.02 68.2145 307.761 68.2145C307.398 68.2145 307.072 68.1546 306.782 68.0349C306.492 67.9112 306.263 67.7008 306.093 67.4035C305.923 67.1061 305.838 66.6947 305.838 66.1695V62.7228H304.963V62.1147L305.901 61.6339L306.348 60.261H307.205V61.6859H309.041V62.7228H307.205V66.1522C307.205 66.4766 307.286 66.718 307.448 66.8763C307.61 67.0346 307.825 67.1138 308.091 67.1138ZM314.576 66.268C314.576 66.6889 314.474 67.0442 314.269 67.334C314.064 67.6235 313.765 67.8437 313.371 67.9943C312.981 68.141 312.502 68.2145 311.934 68.2145C311.487 68.2145 311.1 68.1816 310.776 68.1159C310.455 68.0542 310.152 67.9576 309.867 67.8263V66.6504C310.172 66.7932 310.513 66.9168 310.892 67.0211C311.274 67.1254 311.635 67.1775 311.975 67.1775C312.423 67.1775 312.745 67.108 312.943 66.969C313.139 66.8261 313.238 66.6369 313.238 66.4012C313.238 66.2622 313.197 66.1387 313.116 66.0305C313.039 65.9185 312.892 65.8046 312.676 65.6887C312.464 65.569 312.151 65.4262 311.738 65.2601C311.332 65.0979 310.99 64.9357 310.712 64.7736C310.434 64.6113 310.224 64.4163 310.081 64.1884C309.938 63.9567 309.867 63.6613 309.867 63.3021C309.867 62.7344 310.091 62.3039 310.539 62.0104C310.99 61.713 311.587 61.5643 312.328 61.5643C312.722 61.5643 313.093 61.6049 313.441 61.6859C313.792 61.7632 314.136 61.8772 314.472 62.0277L314.043 63.0531C313.753 62.9256 313.462 62.8214 313.168 62.7403C312.879 62.6553 312.583 62.6128 312.282 62.6128C311.931 62.6128 311.662 62.6668 311.477 62.775C311.295 62.8831 311.205 63.0376 311.205 63.2384C311.205 63.3891 311.249 63.5165 311.338 63.6208C311.427 63.7251 311.579 63.8293 311.796 63.9336C312.016 64.0378 312.321 64.1672 312.711 64.3217C313.093 64.4684 313.423 64.6229 313.701 64.7851C313.983 64.9434 314.199 65.1385 314.35 65.3702C314.501 65.6019 314.576 65.9012 314.576 66.268ZM321.539 59.5021C321.975 59.5021 322.357 59.5735 322.686 59.7165C323.018 59.8593 323.276 60.0679 323.462 60.342C323.647 60.6124 323.74 60.9426 323.74 61.3326C323.74 61.8539 323.578 62.2942 323.253 62.6534C322.929 63.0125 322.52 63.3331 322.025 63.615L324.024 65.5613C324.213 65.3026 324.369 65.0188 324.493 64.7098C324.617 64.397 324.723 64.0687 324.812 63.725H326.219C326.1 64.2039 325.933 64.677 325.721 65.1443C325.509 65.6077 325.24 66.0325 324.916 66.4187L326.636 68.0986H324.893L324.035 67.2586C323.796 67.4518 323.539 67.6198 323.265 67.7626C322.995 67.9054 322.699 68.0174 322.379 68.0986C322.058 68.1758 321.705 68.2145 321.318 68.2145C320.728 68.2145 320.218 68.1198 319.789 67.9306C319.361 67.7414 319.03 67.471 318.799 67.1196C318.571 66.7643 318.457 66.3433 318.457 65.8568C318.457 65.4513 318.524 65.1037 318.66 64.814C318.799 64.5205 318.996 64.2638 319.251 64.0436C319.505 63.8196 319.811 63.6072 320.166 63.4064C319.973 63.1863 319.805 62.9719 319.662 62.7634C319.519 62.5548 319.409 62.3406 319.332 62.1204C319.258 61.8964 319.221 61.657 319.221 61.4022C319.221 61.0082 319.318 60.6703 319.511 60.3884C319.704 60.1026 319.975 59.8844 320.322 59.7338C320.67 59.5793 321.075 59.5021 321.539 59.5021ZM320.971 64.2348C320.747 64.3777 320.554 64.5225 320.392 64.6693C320.23 64.8121 320.104 64.9705 320.015 65.1443C319.93 65.318 319.888 65.5207 319.888 65.7525C319.888 66.1502 320.027 66.4649 320.305 66.6968C320.587 66.9285 320.95 67.0442 321.394 67.0442C321.784 67.0442 322.126 66.9864 322.419 66.8704C322.716 66.7507 322.975 66.6021 323.195 66.4245L320.971 64.2348ZM321.515 60.5795C321.241 60.5795 321.004 60.651 320.803 60.7939C320.606 60.9367 320.507 61.1588 320.507 61.4601C320.507 61.7034 320.571 61.9332 320.699 62.1494C320.83 62.3618 321.011 62.5916 321.243 62.8387C321.649 62.6147 321.95 62.3947 322.147 62.1784C322.348 61.9621 322.448 61.7111 322.448 61.4253C322.448 61.1549 322.357 60.9465 322.176 60.7997C321.994 60.653 321.774 60.5795 321.515 60.5795ZM254.675 77.4249L252.462 85.894H250.944L249.531 80.8195C249.496 80.6959 249.457 80.5492 249.415 80.3793C249.372 80.2093 249.33 80.0355 249.287 79.8579C249.249 79.6803 249.214 79.5181 249.183 79.3714C249.156 79.2207 249.137 79.1048 249.125 79.0238C249.117 79.1048 249.1 79.2188 249.073 79.3655C249.046 79.5123 249.013 79.6745 248.974 79.8521C248.94 80.0259 248.901 80.1997 248.859 80.3735C248.816 80.5434 248.778 80.694 248.743 80.8252L247.353 85.894H245.841L243.634 77.4249H245.03L246.252 82.3893C246.291 82.5477 246.329 82.7195 246.368 82.9049C246.41 83.0864 246.449 83.2698 246.484 83.4552C246.522 83.6406 246.557 83.8221 246.588 83.9997C246.619 84.1735 246.644 84.3319 246.663 84.4747C246.683 84.328 246.708 84.1658 246.739 83.9882C246.769 83.8067 246.802 83.6232 246.837 83.4378C246.876 83.2486 246.914 83.0671 246.953 82.8933C246.995 82.7195 247.038 82.5631 247.08 82.4241L248.459 77.4249H249.814L251.222 82.4414C251.265 82.5844 251.305 82.7447 251.344 82.9223C251.386 83.1 251.427 83.2815 251.465 83.4668C251.504 83.6522 251.539 83.8317 251.57 84.0055C251.601 84.1793 251.626 84.3357 251.645 84.4747C251.672 84.2855 251.707 84.0692 251.749 83.8259C251.792 83.5827 251.84 83.3355 251.894 83.0844C251.948 82.8334 252.002 82.6017 252.056 82.3893L253.273 77.4249H254.675ZM256.965 79.4813V85.894H255.604V79.4813H256.965ZM256.294 77.0252C256.502 77.0252 256.682 77.0812 256.832 77.1932C256.987 77.3052 257.064 77.4983 257.064 77.7725C257.064 78.0429 256.987 78.2359 256.832 78.3518C256.682 78.4638 256.502 78.5198 256.294 78.5198C256.077 78.5198 255.894 78.4638 255.743 78.3518C255.597 78.2359 255.523 78.0429 255.523 77.7725C255.523 77.4983 255.597 77.3052 255.743 77.1932C255.894 77.0812 256.077 77.0252 256.294 77.0252ZM261.174 84.9092C261.351 84.9092 261.527 84.8937 261.701 84.8629C261.875 84.8281 262.033 84.7876 262.176 84.7412V85.7724C262.025 85.838 261.83 85.894 261.591 85.9403C261.351 85.9866 261.102 86.0099 260.844 86.0099C260.481 86.0099 260.154 85.95 259.865 85.8302C259.575 85.7066 259.345 85.4962 259.175 85.1989C259.005 84.9015 258.92 84.4901 258.92 83.9649V80.5182H258.046V79.9101L258.984 79.4293L259.43 78.0564H260.288V79.4813H262.124V80.5182H260.288V83.9476C260.288 84.272 260.369 84.5134 260.531 84.6717C260.693 84.83 260.907 84.9092 261.174 84.9092ZM264.71 76.8804V79.1454C264.71 79.381 264.702 79.6108 264.687 79.8347C264.675 80.0587 264.662 80.2325 264.646 80.356H264.722C264.857 80.132 265.023 79.9486 265.22 79.8058C265.417 79.659 265.637 79.549 265.88 79.4755C266.127 79.4022 266.39 79.3655 266.668 79.3655C267.159 79.3655 267.576 79.4486 267.919 79.6146C268.263 79.7767 268.526 80.0298 268.707 80.3735C268.893 80.7172 268.985 81.1632 268.985 81.7116V85.894H267.624V81.9665C267.624 81.4682 267.522 81.0956 267.317 80.8485C267.112 80.5975 266.796 80.4719 266.367 80.4719C265.954 80.4719 265.625 80.5588 265.382 80.7326C265.143 80.9025 264.971 81.1555 264.866 81.4915C264.762 81.8236 264.71 82.2291 264.71 82.708V85.894H263.349V76.8804H264.71ZM272.915 86.0099C272.151 86.0099 271.537 85.7318 271.073 85.1756C270.614 84.6157 270.384 83.7911 270.384 82.7022C270.384 81.6015 270.618 80.7692 271.085 80.2055C271.556 79.6416 272.176 79.3597 272.944 79.3597C273.269 79.3597 273.553 79.4041 273.796 79.493C274.039 79.5779 274.248 79.6938 274.422 79.8406C274.599 79.9873 274.75 80.1514 274.873 80.3329H274.937C274.918 80.2132 274.895 80.0413 274.868 79.8173C274.844 79.5895 274.833 79.3791 274.833 79.1859V76.8804H276.2V85.894H275.134L274.891 85.0193H274.833C274.717 85.2046 274.57 85.3726 274.393 85.5232C274.219 85.67 274.01 85.7878 273.767 85.8766C273.528 85.9654 273.244 86.0099 272.915 86.0099ZM273.298 84.9034C273.881 84.9034 274.292 84.7354 274.532 84.3994C274.771 84.0634 274.895 83.5594 274.902 82.8875V82.708C274.902 81.9896 274.786 81.4393 274.555 81.0571C274.323 80.6708 273.9 80.4778 273.286 80.4778C272.796 80.4778 272.421 80.6766 272.162 81.0744C271.907 81.4682 271.78 82.0186 271.78 82.7253C271.78 83.432 271.907 83.9726 272.162 84.3473C272.421 84.718 272.8 84.9034 273.298 84.9034ZM281.271 79.3597C281.379 79.3597 281.497 79.3655 281.625 79.377C281.752 79.3887 281.862 79.4041 281.955 79.4234L281.827 80.6978C281.746 80.6747 281.646 80.6573 281.526 80.6457C281.41 80.6341 281.306 80.6283 281.213 80.6283C280.97 80.6283 280.738 80.6689 280.518 80.75C280.298 80.8273 280.103 80.947 279.933 81.1091C279.763 81.2675 279.63 81.4664 279.533 81.7058C279.437 81.9452 279.389 82.2232 279.389 82.54V85.894H278.022V79.4813H279.087L279.273 80.611H279.337C279.464 80.3831 279.622 80.1745 279.812 79.9853C280.001 79.7961 280.217 79.6455 280.46 79.5335C280.707 79.4176 280.978 79.3597 281.271 79.3597ZM285.526 79.3597C286.337 79.3597 286.949 79.5393 287.362 79.8985C287.779 80.2576 287.988 80.8175 287.988 81.5783V85.894H287.02L286.76 84.9845H286.713C286.532 85.2162 286.345 85.4073 286.152 85.558C285.958 85.7085 285.734 85.8206 285.48 85.894C285.229 85.9712 284.922 86.0099 284.559 86.0099C284.176 86.0099 283.834 85.9403 283.533 85.8013C283.232 85.6583 282.995 85.4421 282.821 85.1525C282.647 84.8629 282.56 84.496 282.56 84.0519C282.56 83.3915 282.805 82.8952 283.296 82.5631C283.79 82.231 284.535 82.0475 285.532 82.0128L286.644 81.9722V81.6362C286.644 81.1922 286.54 80.8755 286.331 80.6863C286.126 80.497 285.837 80.4024 285.462 80.4024C285.142 80.4024 284.831 80.4488 284.53 80.5415C284.228 80.6341 283.935 80.748 283.649 80.8832L283.209 79.9216C283.522 79.7555 283.877 79.6204 284.275 79.5161C284.676 79.4118 285.093 79.3597 285.526 79.3597ZM286.638 82.8296L285.81 82.8585C285.13 82.8817 284.653 82.9976 284.379 83.2061C284.105 83.4147 283.968 83.7004 283.968 84.0634C283.968 84.3802 284.062 84.6119 284.251 84.7586C284.441 84.9015 284.69 84.9729 284.999 84.9729C285.47 84.9729 285.86 84.8396 286.169 84.5732C286.482 84.3029 286.638 83.9071 286.638 83.3856V82.8296ZM295.006 85.8881L294.195 82.9049C294.156 82.7582 294.11 82.5805 294.056 82.3719C294.002 82.1634 293.947 81.9491 293.893 81.729C293.839 81.505 293.789 81.2984 293.743 81.1091C293.7 80.9199 293.668 80.7732 293.644 80.6689H293.598C293.579 80.7732 293.548 80.9199 293.505 81.1091C293.463 81.2984 293.415 81.505 293.36 81.729C293.306 81.953 293.252 82.1712 293.198 82.3835C293.148 82.596 293.102 82.7774 293.059 82.9281L292.208 85.8881H290.713L288.917 79.4755H290.296L291.13 82.6616C291.184 82.8779 291.237 83.1115 291.287 83.3625C291.341 83.6135 291.387 83.853 291.426 84.0809C291.464 84.3086 291.493 84.496 291.513 84.6427H291.559C291.574 84.5384 291.596 84.4071 291.623 84.2488C291.65 84.0867 291.681 83.9187 291.715 83.7449C291.75 83.5672 291.785 83.4012 291.82 83.2467C291.854 83.0883 291.887 82.9609 291.918 82.8643L292.903 79.4755H294.392L295.336 82.8643C295.378 83.0111 295.425 83.1964 295.475 83.4204C295.525 83.6406 295.569 83.8627 295.608 84.0867C295.651 84.3067 295.678 84.4901 295.689 84.6369H295.736C295.751 84.5057 295.778 84.328 295.817 84.104C295.859 83.8762 295.907 83.6348 295.961 83.3799C296.016 83.1212 296.072 82.8817 296.129 82.6616L296.981 79.4755H298.337L296.529 85.8881H295.006ZM301.821 79.3597C302.632 79.3597 303.244 79.5393 303.657 79.8985C304.074 80.2576 304.283 80.8175 304.283 81.5783V85.894H303.315L303.055 84.9845H303.008C302.827 85.2162 302.639 85.4073 302.446 85.558C302.253 85.7085 302.029 85.8206 301.774 85.894C301.523 85.9712 301.216 86.0099 300.853 86.0099C300.471 86.0099 300.129 85.9403 299.828 85.8013C299.527 85.6583 299.289 85.4421 299.116 85.1525C298.942 84.8629 298.855 84.496 298.855 84.0519C298.855 83.3915 299.1 82.8952 299.59 82.5631C300.085 82.231 300.83 82.0475 301.826 82.0128L302.939 81.9722V81.6362C302.939 81.1922 302.834 80.8755 302.626 80.6863C302.421 80.497 302.132 80.4024 301.757 80.4024C301.436 80.4024 301.126 80.4488 300.824 80.5415C300.523 80.6341 300.23 80.748 299.944 80.8832L299.504 79.9216C299.816 79.7555 300.172 79.6204 300.569 79.5161C300.971 79.4118 301.388 79.3597 301.821 79.3597ZM302.933 82.8296L302.105 82.8585C301.425 82.8817 300.948 82.9976 300.674 83.2061C300.4 83.4147 300.262 83.7004 300.262 84.0634C300.262 84.3802 300.357 84.6119 300.546 84.7586C300.735 84.9015 300.985 84.9729 301.294 84.9729C301.765 84.9729 302.155 84.8396 302.464 84.5732C302.777 84.3029 302.933 83.9071 302.933 83.3856V82.8296ZM307.425 85.894H306.058V76.8804H307.425V85.894ZM313.551 84.0634C313.551 84.4843 313.448 84.8396 313.244 85.1294C313.039 85.4189 312.74 85.6391 312.346 85.7897C311.956 85.9364 311.477 86.0099 310.909 86.0099C310.461 86.0099 310.075 85.977 309.751 85.9113C309.43 85.8496 309.127 85.753 308.841 85.6217V84.4458C309.146 84.5886 309.488 84.7122 309.867 84.8165C310.249 84.9208 310.61 84.9729 310.95 84.9729C311.398 84.9729 311.72 84.9033 311.917 84.7644C312.114 84.6215 312.213 84.4322 312.213 84.1966C312.213 84.0576 312.172 83.9341 312.091 83.8259C312.014 83.7139 311.867 83.6 311.651 83.4841C311.438 83.3644 311.126 83.2216 310.712 83.0555C310.307 82.8933 309.965 82.7311 309.687 82.569C309.409 82.4067 309.198 82.2117 309.056 81.9838C308.913 81.7521 308.841 81.4567 308.841 81.0975C308.841 80.5298 309.065 80.0993 309.513 79.8058C309.965 79.5084 310.562 79.3597 311.303 79.3597C311.697 79.3597 312.068 79.4003 312.415 79.4813C312.767 79.5586 313.111 79.6726 313.447 79.8231L313.018 80.8485C312.728 80.721 312.437 80.6168 312.143 80.5356C311.853 80.4507 311.558 80.4082 311.257 80.4082C310.905 80.4082 310.637 80.4622 310.452 80.5704C310.27 80.6785 310.179 80.8329 310.179 81.0338C310.179 81.1845 310.224 81.3119 310.313 81.4162C310.401 81.5204 310.554 81.6247 310.77 81.729C310.99 81.8332 311.295 81.9626 311.685 82.1171C312.068 82.2638 312.398 82.4183 312.676 82.5805C312.958 82.7388 313.174 82.9339 313.325 83.1656C313.475 83.3973 313.551 83.6966 313.551 84.0634Z" fill="#FEB708"/>
</g>
<mask id="mask3_219_14" style="mask-type:luminance" maskUnits="userSpaceOnUse" x="366" y="4" width="53" height="44">
<path d="M418.494 4.45312H366.293V47.5161H418.494V4.45312Z" fill="white"/>
</mask>
<g mask="url(#mask3_219_14)">
<path d="M418.494 28.9929C418.395 29.432 418.317 29.8775 418.197 30.3114C417.192 33.9655 413.65 36.2783 409.904 35.7142C409.519 35.6568 409.313 35.7614 409.093 36.0767C405.925 40.609 401.616 43.4029 396.197 44.5057C395.988 44.5479 395.735 44.7418 395.643 44.932C394.716 46.8645 392.715 47.8752 390.663 47.4146C388.689 46.9716 387.248 45.1375 387.279 43.1068C387.31 41.043 388.766 39.3122 390.83 38.8871C392.606 38.5209 394.476 39.3683 395.412 41.0072C395.597 41.3314 395.778 41.3888 396.114 41.3174C402.969 39.8483 408.278 34.1991 409.283 27.2902C410.597 18.2626 404.78 9.9229 395.877 8.07091C386.948 6.21381 377.945 12.0021 375.947 20.9009C375.021 25.0299 375.557 28.9776 377.522 32.7276C378.185 33.9923 377.825 34.9177 376.476 35.3874C371.609 37.0838 366.504 33.4614 366.518 28.3113C366.523 26.5679 366.446 24.8103 366.624 23.0821C366.972 19.696 369.981 16.9288 373.387 16.7348C373.903 16.7054 374.12 16.5077 374.343 16.0673C377.594 9.64976 382.765 5.85644 389.897 4.77281C390.378 4.70005 390.862 4.6439 391.344 4.58008C392.113 4.58008 392.881 4.58008 393.651 4.58008C394.272 4.65794 394.898 4.71027 395.513 4.81876C402.516 6.05172 407.591 9.86418 410.734 16.237C410.893 16.5574 411.061 16.6952 411.43 16.7182C414.699 16.9135 417.363 19.0859 418.224 22.2321C418.324 22.5971 418.404 22.9686 418.492 23.3361V28.9942L418.494 28.9929Z" fill="#FEB708"/>
<path d="M392.218 11.5257C399.352 11.5576 405.044 16.7906 405.622 23.563C406.221 30.5766 401.251 36.8217 394.307 37.7752C392.701 37.996 391.105 37.9118 389.519 37.5671C389.279 37.5148 388.961 37.5633 388.746 37.6846C387.102 38.6061 385.483 39.5685 383.841 40.4939C382.772 41.0963 381.567 40.5207 381.433 39.3477C381.401 39.0643 381.478 38.7593 381.552 38.4759C381.931 37.026 382.319 35.5785 382.721 34.1338C382.809 33.8185 382.759 33.6015 382.542 33.3373C379.318 29.4074 378.385 24.9848 380.144 20.2075C381.922 15.379 385.511 12.557 390.597 11.684C391.231 11.5755 391.881 11.5563 392.218 11.5244V11.5257ZM392.469 26.2765C393.363 26.2829 394.075 25.581 394.067 24.7015C394.06 23.8502 393.346 23.1418 392.498 23.1418C391.648 23.1418 390.935 23.8502 390.926 24.7015C390.919 25.563 391.612 26.2701 392.469 26.2765ZM387.259 26.2752C388.127 26.2752 388.82 25.5912 388.828 24.7283C388.836 23.8846 388.127 23.1571 387.284 23.1405C386.421 23.1239 385.681 23.8617 385.688 24.7296C385.696 25.5912 386.391 26.2752 387.259 26.2752ZM397.731 26.2752C398.599 26.279 399.295 25.5988 399.308 24.7359C399.321 23.8936 398.616 23.1622 397.771 23.1405C396.909 23.1188 396.166 23.8515 396.168 24.7206C396.171 25.5835 396.863 26.2714 397.731 26.2752Z" fill="#FEB708"/>
</g>
<path d="M386.356 66.3202H380.621V65.2948L382.816 63.0704C383.241 62.6379 383.591 62.2652 383.865 61.9525C384.139 61.6357 384.342 61.3365 384.473 61.0545C384.608 60.7726 384.676 60.4656 384.676 60.1335C384.676 59.7241 384.558 59.4152 384.322 59.2066C384.087 58.9943 383.776 58.8881 383.39 58.8881C383.023 58.8881 382.683 58.9614 382.37 59.1082C382.061 59.251 381.741 59.4558 381.409 59.7222L380.661 58.8243C380.897 58.6235 381.148 58.44 381.415 58.274C381.685 58.1079 381.986 57.9766 382.318 57.88C382.65 57.7797 383.029 57.7295 383.454 57.7295C383.99 57.7295 384.454 57.8261 384.844 58.0191C385.234 58.2083 385.533 58.4729 385.742 58.8128C385.954 59.1525 386.06 59.5484 386.06 60.0003C386.06 60.456 385.97 60.8769 385.788 61.2631C385.607 61.6492 385.348 62.0316 385.012 62.41C384.676 62.7847 384.276 63.1921 383.813 63.6323L382.347 65.0631V65.1268H386.356V66.3202ZM393.321 64.4607H392.174V66.3202H390.83V64.4607H386.978V63.4296L390.848 57.828H392.174V63.3311H393.321V64.4607ZM390.83 63.3311V61.2283C390.83 61.0545 390.832 60.8788 390.836 60.7012C390.844 60.5197 390.852 60.3459 390.859 60.1798C390.867 60.0137 390.875 59.8613 390.883 59.7222C390.89 59.5793 390.896 59.4615 390.9 59.3688H390.854C390.78 59.5233 390.699 59.6816 390.61 59.8438C390.522 60.0022 390.427 60.1567 390.326 60.3072L388.241 63.3311H390.83ZM397.941 57.8511L394.784 66.3202H393.509L396.666 57.8511H397.941ZM399.409 66.3202L402.734 59.0445H398.338V57.8511H404.2V58.7838L400.875 66.3202H399.409ZM377.31 81.81C377.31 82.3121 377.187 82.7446 376.94 83.1076C376.696 83.4706 376.345 83.7487 375.885 83.9418C375.43 84.1349 374.885 84.2315 374.252 84.2315C373.943 84.2315 373.648 84.214 373.366 84.1793C373.084 84.1445 372.817 84.0943 372.566 84.0287C372.319 83.9592 372.093 83.8761 371.888 83.7796V82.4704C372.232 82.621 372.616 82.7581 373.041 82.8817C373.466 83.0014 373.898 83.0612 374.339 83.0612C374.698 83.0612 374.995 83.015 375.231 82.9222C375.47 82.8257 375.648 82.6905 375.764 82.5167C375.88 82.3391 375.938 82.1326 375.938 81.8969C375.938 81.6459 375.87 81.4336 375.735 81.2598C375.6 81.086 375.395 80.9276 375.121 80.7847C374.851 80.638 374.511 80.4815 374.101 80.3155C373.823 80.2035 373.557 80.0761 373.302 79.9332C373.051 79.7903 372.827 79.6223 372.63 79.4292C372.433 79.2361 372.277 79.0083 372.161 78.7456C372.049 78.4792 371.993 78.1664 371.993 77.8072C371.993 77.3284 372.107 76.919 372.334 76.5792C372.566 76.2393 372.891 75.9787 373.308 75.7972C373.729 75.6156 374.219 75.5249 374.779 75.5249C375.223 75.5249 375.64 75.5713 376.03 75.6639C376.424 75.7566 376.81 75.8879 377.189 76.0578L376.749 77.1758C376.401 77.0329 376.063 76.919 375.735 76.834C375.41 76.7491 375.078 76.7066 374.738 76.7066C374.445 76.7066 374.196 76.751 373.991 76.8399C373.786 76.9287 373.63 77.0542 373.522 77.2164C373.418 77.3747 373.366 77.5639 373.366 77.7841C373.366 78.0312 373.425 78.2398 373.545 78.4096C373.669 78.5757 373.858 78.7283 374.113 78.8673C374.372 79.0064 374.704 79.1608 375.109 79.3307C375.576 79.5239 375.972 79.7266 376.297 79.939C376.625 80.1513 376.876 80.4063 377.05 80.7036C377.224 80.9971 377.31 81.3659 377.31 81.81ZM384.265 77.7029V84.1156H383.193L383.007 83.2525H382.932C382.797 83.4725 382.625 83.656 382.417 83.8027C382.208 83.9457 381.976 84.0518 381.721 84.1214C381.467 84.1947 381.198 84.2315 380.916 84.2315C380.434 84.2315 380.02 84.1503 379.677 83.9881C379.337 83.8221 379.076 83.5672 378.895 83.2234C378.713 82.8797 378.622 82.4357 378.622 81.8911V77.7029H379.989V81.6363C379.989 82.1345 380.09 82.5071 380.291 82.7542C380.495 83.0014 380.812 83.1249 381.241 83.1249C381.654 83.1249 381.982 83.04 382.225 82.8701C382.469 82.7002 382.641 82.4492 382.741 82.117C382.845 81.785 382.897 81.3776 382.897 80.8948V77.7029H384.265ZM389.376 77.5813C390.137 77.5813 390.747 77.8594 391.207 78.4155C391.67 78.9716 391.902 79.798 391.902 80.8948C391.902 81.6208 391.794 82.2329 391.578 82.7311C391.365 83.2254 391.066 83.6 390.68 83.8549C390.298 84.106 389.851 84.2315 389.342 84.2315C389.017 84.2315 388.735 84.1889 388.496 84.1039C388.257 84.019 388.052 83.9089 387.882 83.7738C387.712 83.6347 387.569 83.4842 387.453 83.322H387.372C387.392 83.4765 387.409 83.6483 387.424 83.8375C387.444 84.0229 387.453 84.1928 387.453 84.3472V86.9599H386.086V77.7029H387.198L387.39 78.5893H387.453C387.573 78.4077 387.718 78.2398 387.888 78.0853C388.061 77.9308 388.27 77.8091 388.513 77.7204C388.76 77.6276 389.048 77.5813 389.376 77.5813ZM389.012 78.6935C388.637 78.6935 388.336 78.7689 388.108 78.9194C387.884 79.0662 387.72 79.2883 387.616 79.5856C387.515 79.883 387.461 80.2556 387.453 80.7036V80.8948C387.453 81.3697 387.502 81.7733 387.598 82.1055C387.699 82.4338 387.863 82.6847 388.091 82.8585C388.322 83.0285 388.635 83.1134 389.029 83.1134C389.361 83.1134 389.635 83.0227 389.851 82.8412C390.072 82.6597 390.236 82.4009 390.344 82.0649C390.452 81.729 390.506 81.3331 390.506 80.8774C390.506 80.1861 390.382 79.6494 390.135 79.267C389.892 78.8847 389.517 78.6935 389.012 78.6935ZM396.638 77.5813C397.398 77.5813 398.009 77.8594 398.468 78.4155C398.931 78.9716 399.163 79.798 399.163 80.8948C399.163 81.6208 399.055 82.2329 398.839 82.7311C398.626 83.2254 398.327 83.6 397.941 83.8549C397.559 84.106 397.113 84.2315 396.603 84.2315C396.278 84.2315 395.996 84.1889 395.757 84.1039C395.518 84.019 395.313 83.9089 395.143 83.7738C394.973 83.6347 394.83 83.4842 394.714 83.322H394.633C394.653 83.4765 394.67 83.6483 394.685 83.8375C394.705 84.0229 394.714 84.1928 394.714 84.3472V86.9599H393.347V77.7029H394.46L394.651 78.5893H394.714C394.834 78.4077 394.979 78.2398 395.149 78.0853C395.323 77.9308 395.531 77.8091 395.774 77.7204C396.022 77.6276 396.309 77.5813 396.638 77.5813ZM396.273 78.6935C395.898 78.6935 395.597 78.7689 395.369 78.9194C395.145 79.0662 394.981 79.2883 394.877 79.5856C394.776 79.883 394.722 80.2556 394.714 80.7036V80.8948C394.714 81.3697 394.763 81.7733 394.859 82.1055C394.96 82.4338 395.124 82.6847 395.352 82.8585C395.583 83.0285 395.896 83.1134 396.29 83.1134C396.622 83.1134 396.896 83.0227 397.113 82.8412C397.333 82.6597 397.497 82.4009 397.605 82.0649C397.713 81.729 397.767 81.3331 397.767 80.8774C397.767 80.1861 397.644 79.6494 397.396 79.267C397.153 78.8847 396.778 78.6935 396.273 78.6935ZM406.285 80.8948C406.285 81.4277 406.216 81.9007 406.077 82.3139C405.938 82.7273 405.735 83.0767 405.468 83.3625C405.202 83.6445 404.881 83.8607 404.507 84.0113C404.132 84.158 403.709 84.2315 403.238 84.2315C402.798 84.2315 402.394 84.158 402.028 84.0113C401.661 83.8607 401.342 83.6445 401.072 83.3625C400.805 83.0767 400.599 82.7273 400.452 82.3139C400.305 81.9007 400.232 81.4277 400.232 80.8948C400.232 80.1881 400.353 79.5895 400.597 79.099C400.844 78.6047 401.195 78.2281 401.651 77.9694C402.107 77.7106 402.649 77.5813 403.279 77.5813C403.87 77.5813 404.391 77.7106 404.843 77.9694C405.295 78.2281 405.648 78.6047 405.903 79.099C406.158 79.5934 406.285 80.1919 406.285 80.8948ZM401.634 80.8948C401.634 81.362 401.69 81.7618 401.802 82.0939C401.918 82.4259 402.095 82.6809 402.335 82.8585C402.574 83.0323 402.883 83.1193 403.261 83.1193C403.64 83.1193 403.949 83.0323 404.188 82.8585C404.428 82.6809 404.603 82.4259 404.715 82.0939C404.827 81.7618 404.883 81.362 404.883 80.8948C404.883 80.4275 404.827 80.0316 404.715 79.7073C404.603 79.379 404.428 79.1299 404.188 78.96C403.949 78.7862 403.638 78.6994 403.256 78.6994C402.692 78.6994 402.28 78.8886 402.022 79.267C401.763 79.6455 401.634 80.1881 401.634 80.8948ZM410.969 77.5813C411.077 77.5813 411.194 77.5871 411.322 77.5986C411.449 77.6103 411.559 77.6257 411.652 77.645L411.525 78.9194C411.444 78.8963 411.343 78.8788 411.223 78.8673C411.108 78.8557 411.003 78.8499 410.911 78.8499C410.667 78.8499 410.436 78.8905 410.216 78.9716C409.995 79.0489 409.8 79.1686 409.63 79.3307C409.461 79.4891 409.327 79.6879 409.231 79.9274C409.134 80.1668 409.086 80.4448 409.086 80.7616V84.1156H407.719V77.7029H408.785L408.97 78.8326H409.034C409.161 78.6047 409.32 78.3961 409.509 78.2069C409.698 78.0177 409.914 77.8671 410.158 77.7551C410.405 77.6392 410.675 77.5813 410.969 77.5813ZM415.096 83.1308C415.273 83.1308 415.449 83.1153 415.623 83.0845C415.797 83.0497 415.955 83.0092 416.098 82.9628V83.994C415.947 84.0596 415.752 84.1156 415.513 84.1619C415.273 84.2082 415.024 84.2315 414.766 84.2315C414.403 84.2315 414.076 84.1715 413.787 84.0518C413.497 83.9282 413.267 83.7178 413.097 83.4205C412.927 83.123 412.842 82.7117 412.842 82.1865V78.7398H411.968V78.1317L412.906 77.6508L413.352 76.278H414.209V77.7029H416.046V78.7398H414.209V82.1692C414.209 82.4936 414.291 82.735 414.453 82.8933C414.615 83.0516 414.829 83.1308 415.096 83.1308Z" fill="#FEB708"/>
</g>
<defs>
<clipPath id="clip0_219_14">
<rect width="444" height="87.7906" fill="white"/>
</clipPath>
<clipPath id="clip1_219_14">
<rect width="103.213" height="84.2316" fill="white" transform="translate(0 1.7793)"/>
</clipPath>
<clipPath id="clip2_219_14">
<rect width="103.213" height="84.2316" fill="white" transform="translate(113.595 1.7793)"/>
</clipPath>
<clipPath id="clip3_219_14">
<rect width="103.213" height="84.2316" fill="white" transform="translate(227.191 1.7793)"/>
</clipPath>
</defs>
</svg>
