<svg width="720" height="51" viewBox="0 0 720 51" fill="none" xmlns="http://www.w3.org/2000/svg">
<circle cx="25.4932" cy="25.4932" r="25.4932" fill="#FC0035"/>
<path d="M28.533 36.4775H24.1413V24.4536L24.1839 22.478L24.255 20.3177C23.5254 21.0473 23.0185 21.5258 22.7342 21.7532L20.3465 23.6719L18.2288 21.0283L24.923 15.6985H28.533V36.4775Z" fill="white"/>
<path d="M69.5173 16.3526H70.4346C71.3334 16.3526 71.9969 16.2028 72.4249 15.9032C72.8529 15.6036 73.067 15.1328 73.067 14.4907C73.067 13.8548 72.8468 13.4023 72.4066 13.1332C71.9724 12.8642 71.2967 12.7297 70.3795 12.7297H69.5173V16.3526ZM69.5173 18.664V23.8096H66.674V10.4H70.5813C72.4035 10.4 73.7518 10.7332 74.6262 11.3997C75.5006 12.0601 75.9378 13.066 75.9378 14.4173C75.9378 15.2061 75.7207 15.9093 75.2866 16.5269C74.8525 17.1384 74.2379 17.6184 73.443 17.9669C75.4609 20.9815 76.7755 22.929 77.387 23.8096H74.2318L71.0307 18.664H69.5173ZM86.7976 23.8096H79.0747V10.4H86.7976V12.7297H81.918V15.6739H86.4582V18.0036H81.918V21.4615H86.7976V23.8096ZM94.6948 16.2793H100.015V23.2317C99.1524 23.513 98.3392 23.7087 97.5748 23.8187C96.8166 23.9349 96.04 23.993 95.2451 23.993C93.2211 23.993 91.6741 23.3999 90.604 22.2136C89.5401 21.0213 89.0081 19.3122 89.0081 17.0864C89.0081 14.9218 89.6257 13.2341 90.8608 12.0234C92.1021 10.8127 93.8204 10.2073 96.0156 10.2073C97.3914 10.2073 98.7183 10.4825 99.9963 11.0328L99.0515 13.3075C98.0732 12.8183 97.0551 12.5737 95.9972 12.5737C94.7682 12.5737 93.7837 12.9865 93.0438 13.812C92.3039 14.6375 91.934 15.7473 91.934 17.1414C91.934 18.5968 92.2305 19.7096 92.8237 20.4801C93.4229 21.2444 94.2912 21.6266 95.4285 21.6266C96.0217 21.6266 96.624 21.5655 97.2355 21.4432V18.6457H94.6948V16.2793ZM103.216 23.8096V10.4H106.059V23.8096H103.216ZM117.35 20.0857C117.35 21.2964 116.913 22.2503 116.038 22.9474C115.17 23.6445 113.959 23.993 112.406 23.993C110.975 23.993 109.71 23.724 108.609 23.1859V20.5443C109.514 20.9479 110.278 21.2322 110.902 21.3973C111.532 21.5624 112.106 21.645 112.626 21.645C113.25 21.645 113.727 21.5257 114.057 21.2872C114.393 21.0488 114.562 20.6941 114.562 20.2233C114.562 19.9603 114.488 19.728 114.341 19.5262C114.195 19.3183 113.978 19.1196 113.69 18.93C113.409 18.7405 112.831 18.4378 111.957 18.022C111.137 17.6367 110.523 17.2668 110.113 16.9121C109.703 16.5575 109.376 16.1447 109.132 15.6739C108.887 15.2031 108.765 14.6528 108.765 14.0229C108.765 12.8367 109.165 11.9042 109.966 11.2254C110.773 10.5467 111.886 10.2073 113.305 10.2073C114.002 10.2073 114.666 10.2899 115.295 10.455C115.931 10.6201 116.595 10.8524 117.286 11.1521L116.368 13.3625C115.653 13.069 115.06 12.8642 114.589 12.748C114.124 12.6318 113.666 12.5737 113.213 12.5737C112.675 12.5737 112.262 12.6991 111.975 12.9498C111.688 13.2005 111.544 13.5276 111.544 13.9312C111.544 14.1819 111.602 14.402 111.718 14.5916C111.834 14.775 112.018 14.9554 112.269 15.1328C112.525 15.304 113.128 15.6158 114.075 16.0683C115.329 16.6676 116.188 17.2699 116.653 17.8752C117.118 18.4745 117.35 19.2113 117.35 20.0857ZM124.954 23.8096H122.11V12.7664H118.469V10.4H128.595V12.7664H124.954V23.8096ZM138.382 23.8096H130.659V10.4H138.382V12.7297H133.502V15.6739H138.042V18.0036H133.502V21.4615H138.382V23.8096ZM144.032 16.3526H144.949C145.848 16.3526 146.511 16.2028 146.939 15.9032C147.367 15.6036 147.581 15.1328 147.581 14.4907C147.581 13.8548 147.361 13.4023 146.921 13.1332C146.487 12.8642 145.811 12.7297 144.894 12.7297H144.032V16.3526ZM144.032 18.664V23.8096H141.188V10.4H145.096C146.918 10.4 148.266 10.7332 149.14 11.3997C150.015 12.0601 150.452 13.066 150.452 14.4173C150.452 15.2061 150.235 15.9093 149.801 16.5269C149.367 17.1384 148.752 17.6184 147.957 17.9669C149.975 20.9815 151.29 22.929 151.901 23.8096H148.746L145.545 18.664H144.032Z" fill="#DD0524"/>
<path d="M73.0525 37.1185C73.0525 38.1301 72.6857 38.9189 71.9519 39.4849C71.2181 40.051 70.2223 40.334 68.9644 40.334C67.6017 40.334 66.5534 40.1584 65.8197 39.8073V38.5179C66.2914 38.7171 66.805 38.8743 67.3606 38.9896C67.9162 39.1049 68.4665 39.1626 69.0116 39.1626C69.9026 39.1626 70.5735 38.9949 71.0242 38.6594C71.4749 38.3188 71.7003 37.847 71.7003 37.2443C71.7003 36.846 71.6191 36.521 71.4566 36.2694C71.2994 36.0126 71.0321 35.7768 70.6547 35.5619C70.2826 35.347 69.7139 35.1033 68.9487 34.8307C67.8795 34.4481 67.1143 33.9948 66.653 33.4706C66.197 32.9465 65.9691 32.2625 65.9691 31.4187C65.9691 30.5329 66.3019 29.828 66.9675 29.3039C67.6331 28.7798 68.5137 28.5177 69.6091 28.5177C70.7517 28.5177 71.8025 28.7273 72.7617 29.1466L72.345 30.3102C71.3963 29.9119 70.4739 29.7127 69.5776 29.7127C68.8701 29.7127 68.3171 29.8647 67.9188 30.1687C67.5204 30.4727 67.3213 30.8946 67.3213 31.4344C67.3213 31.8328 67.3947 32.1603 67.5414 32.4172C67.6882 32.6687 67.9345 32.902 68.2804 33.1169C68.6316 33.3265 69.1662 33.5597 69.8842 33.8166C71.0897 34.2463 71.9178 34.7076 72.3686 35.2002C72.8245 35.6929 73.0525 36.3323 73.0525 37.1185ZM76.5117 40.1768H75.2067V31.5602H76.5117V40.1768ZM75.0966 29.2253C75.0966 28.9265 75.17 28.709 75.3167 28.5727C75.4635 28.4312 75.6469 28.3605 75.8671 28.3605C76.0767 28.3605 76.2575 28.4312 76.4095 28.5727C76.5615 28.7142 76.6375 28.9318 76.6375 29.2253C76.6375 29.5188 76.5615 29.7389 76.4095 29.8857C76.2575 30.0272 76.0767 30.0979 75.8671 30.0979C75.6469 30.0979 75.4635 30.0272 75.3167 29.8857C75.17 29.7389 75.0966 29.5188 75.0966 29.2253ZM86.3311 31.5602V32.3857L84.7352 32.5744C84.8819 32.7578 85.013 32.9989 85.1283 33.2977C85.2436 33.5912 85.3012 33.924 85.3012 34.2961C85.3012 35.14 85.013 35.8135 84.4364 36.3166C83.8599 36.8198 83.0685 37.0713 82.0622 37.0713C81.8054 37.0713 81.5643 37.0504 81.3389 37.0085C80.7833 37.302 80.5055 37.6715 80.5055 38.117C80.5055 38.3528 80.6025 38.5284 80.7964 38.6437C80.9903 38.7538 81.3232 38.8088 81.7949 38.8088H83.3201C84.253 38.8088 84.9684 39.0053 85.4663 39.3984C85.9695 39.7915 86.2211 40.3628 86.2211 41.1123C86.2211 42.0662 85.8385 42.7921 85.0732 43.29C84.308 43.7932 83.1916 44.0448 81.7241 44.0448C80.5973 44.0448 79.7272 43.8351 79.114 43.4158C78.506 42.9965 78.202 42.4043 78.202 41.6391C78.202 41.1149 78.3697 40.6616 78.7052 40.279C79.0406 39.8964 79.5123 39.6369 80.1203 39.5006C79.9002 39.4011 79.7141 39.2464 79.5621 39.0368C79.4154 38.8271 79.342 38.5834 79.342 38.3056C79.342 37.9912 79.4258 37.716 79.5936 37.4802C79.7613 37.2443 80.026 37.0163 80.3876 36.7962C79.9421 36.6127 79.5778 36.3009 79.2948 35.8606C79.017 35.4204 78.8781 34.9172 78.8781 34.3512C78.8781 33.4077 79.1612 32.6818 79.7272 32.1734C80.2933 31.6598 81.0952 31.403 82.1329 31.403C82.5837 31.403 82.9899 31.4554 83.3515 31.5602H86.3311ZM79.4599 41.6233C79.4599 42.0898 79.6565 42.4436 80.0495 42.6847C80.4426 42.9258 81.0061 43.0463 81.7398 43.0463C82.8352 43.0463 83.645 42.8812 84.1691 42.551C84.6985 42.2261 84.9632 41.7832 84.9632 41.2224C84.9632 40.7559 84.819 40.431 84.5308 40.2475C84.2425 40.0693 83.7 39.9802 82.9034 39.9802H81.3389C80.7466 39.9802 80.2854 40.1217 79.9552 40.4048C79.625 40.6878 79.4599 41.094 79.4599 41.6233ZM80.1675 34.3197C80.1675 34.9225 80.3378 35.3784 80.6785 35.6877C81.0192 35.9969 81.4935 36.1515 82.1015 36.1515C83.3751 36.1515 84.0119 35.5331 84.0119 34.2961C84.0119 33.0016 83.3672 32.3543 82.0779 32.3543C81.4647 32.3543 80.993 32.5194 80.6628 32.8496C80.3326 33.1798 80.1675 33.6698 80.1675 34.3197ZM93.9964 40.1768V34.6027C93.9964 33.9004 93.8365 33.3763 93.5168 33.0304C93.1971 32.6845 92.6966 32.5115 92.0152 32.5115C91.1137 32.5115 90.4533 32.7552 90.034 33.2426C89.6147 33.7301 89.4051 34.5346 89.4051 35.6562V40.1768H88.1V31.5602H89.1614L89.3736 32.7395H89.4365C89.7038 32.315 90.0786 31.9874 90.5608 31.7568C91.043 31.5209 91.5802 31.403 92.1725 31.403C93.2102 31.403 93.9911 31.6546 94.5153 32.1577C95.0394 32.6556 95.3014 33.4549 95.3014 34.5556V40.1768H93.9964ZM103.399 31.5602V37.15C103.399 37.8523 103.559 38.3764 103.879 38.7223C104.198 39.0682 104.699 39.2412 105.38 39.2412C106.282 39.2412 106.94 38.9949 107.354 38.5022C107.773 38.0095 107.983 37.205 107.983 36.0886V31.5602H109.288V40.1768H108.211L108.022 39.0211H107.951C107.684 39.4456 107.312 39.7706 106.835 39.9959C106.363 40.2213 105.823 40.334 105.215 40.334C104.167 40.334 103.381 40.085 102.857 39.5871C102.338 39.0892 102.078 38.2925 102.078 37.1971V31.5602H103.399ZM116.072 40.334C115.512 40.334 114.998 40.2318 114.531 40.0274C114.07 39.8177 113.682 39.498 113.368 39.0682H113.274C113.336 39.5714 113.368 40.0483 113.368 40.4991V44.0448H112.063V31.5602H113.124L113.305 32.7395H113.368C113.703 32.2678 114.094 31.9271 114.539 31.7175C114.985 31.5078 115.496 31.403 116.072 31.403C117.215 31.403 118.095 31.7935 118.714 32.5744C119.338 33.3553 119.649 34.4507 119.649 35.8606C119.649 37.2758 119.332 38.3764 118.698 39.1626C118.069 39.9435 117.194 40.334 116.072 40.334ZM115.884 32.5115C115.003 32.5115 114.366 32.7552 113.973 33.2426C113.58 33.7301 113.378 34.5058 113.368 35.5697V35.8606C113.368 37.0713 113.57 37.9388 113.973 38.4629C114.377 38.9818 115.024 39.2412 115.915 39.2412C116.659 39.2412 117.241 38.9398 117.66 38.3371C118.085 37.7344 118.297 36.9036 118.297 35.8449C118.297 34.7705 118.085 33.9476 117.66 33.3763C117.241 32.7998 116.649 32.5115 115.884 32.5115ZM128.903 39.2569C129.133 39.2569 129.356 39.2412 129.571 39.2098C129.786 39.1731 129.956 39.1364 130.082 39.0997V40.0981C129.941 40.1663 129.731 40.2213 129.453 40.2632C129.181 40.3104 128.934 40.334 128.714 40.334C127.047 40.334 126.214 39.4561 126.214 37.7003V32.5744H124.98V31.9454L126.214 31.403L126.764 29.5633H127.519V31.5602H130.019V32.5744H127.519V37.6453C127.519 38.1641 127.642 38.5625 127.889 38.8403C128.135 39.118 128.473 39.2569 128.903 39.2569ZM139.249 35.8606C139.249 37.2653 138.895 38.3633 138.188 39.1547C137.48 39.9409 136.503 40.334 135.255 40.334C134.485 40.334 133.801 40.1532 133.203 39.7915C132.606 39.4299 132.144 38.911 131.82 38.2349C131.495 37.5588 131.332 36.7674 131.332 35.8606C131.332 34.456 131.683 33.3632 132.386 32.5823C133.088 31.7961 134.063 31.403 135.31 31.403C136.516 31.403 137.472 31.8039 138.18 32.6058C138.893 33.4077 139.249 34.4927 139.249 35.8606ZM132.684 35.8606C132.684 36.9613 132.904 37.7999 133.345 38.3764C133.785 38.9529 134.432 39.2412 135.287 39.2412C136.141 39.2412 136.788 38.9556 137.228 38.3843C137.674 37.8077 137.897 36.9665 137.897 35.8606C137.897 34.7652 137.674 33.9345 137.228 33.3684C136.788 32.7971 136.136 32.5115 135.271 32.5115C134.417 32.5115 133.772 32.7919 133.337 33.3527C132.902 33.9135 132.684 34.7495 132.684 35.8606ZM144.249 43.2036C143.756 43.2036 143.369 43.1328 143.086 42.9913V41.8513C143.458 41.9561 143.845 42.0086 144.249 42.0086C144.768 42.0086 145.161 41.8513 145.428 41.5369C145.701 41.2224 145.837 40.769 145.837 40.1768V28.6828H147.174V40.0667C147.174 41.0625 146.922 41.833 146.419 42.3781C145.916 42.9284 145.192 43.2036 144.249 43.2036ZM155.334 40.1768L155.075 38.9503H155.012C154.582 39.4902 154.152 39.857 153.723 40.051C153.298 40.2397 152.766 40.334 152.127 40.334C151.272 40.334 150.601 40.1139 150.114 39.6736C149.632 39.2333 149.391 38.607 149.391 37.7946C149.391 36.0546 150.782 35.1426 153.565 35.0587L155.028 35.0116V34.4769C155.028 33.8008 154.881 33.3029 154.587 32.9832C154.299 32.6583 153.835 32.4958 153.196 32.4958C152.478 32.4958 151.665 32.7159 150.759 33.1562L150.358 32.1577C150.782 31.9271 151.246 31.7463 151.749 31.6153C152.258 31.4842 152.766 31.4187 153.274 31.4187C154.302 31.4187 155.062 31.6467 155.554 32.1027C156.052 32.5587 156.301 33.2898 156.301 34.2961V40.1768H155.334ZM152.386 39.2569C153.198 39.2569 153.835 39.0342 154.296 38.5887C154.763 38.1432 154.996 37.5195 154.996 36.7176V35.9392L153.691 35.9943C152.653 36.031 151.904 36.1934 151.443 36.4817C150.987 36.7647 150.759 37.2076 150.759 37.8104C150.759 38.2821 150.9 38.6411 151.183 38.8874C151.471 39.1338 151.872 39.2569 152.386 39.2569ZM164.509 40.1768H158.259V39.2884L162.96 32.5744H158.55V31.5602H164.391V32.5744L159.753 39.1626H164.509V40.1768ZM172.041 40.1768H165.79V39.2884L170.492 32.5744H166.081V31.5602H171.923V32.5744L167.284 39.1626H172.041V40.1768ZM172.693 31.5602H174.092L175.979 36.4738C176.393 37.5955 176.65 38.4052 176.75 38.9031H176.813C176.881 38.6358 177.022 38.1799 177.237 37.5352C177.457 36.8853 178.17 34.8936 179.376 31.5602H180.775L177.072 41.3718C176.705 42.3414 176.275 43.028 175.783 43.4315C175.295 43.8404 174.695 44.0448 173.982 44.0448C173.584 44.0448 173.191 44.0002 172.803 43.9111V42.8655C173.091 42.9284 173.414 42.9598 173.77 42.9598C174.666 42.9598 175.306 42.4567 175.688 41.4504L176.168 40.2239L172.693 31.5602ZM193.039 37.1185C193.039 38.1301 192.673 38.9189 191.939 39.4849C191.205 40.051 190.209 40.334 188.951 40.334C187.589 40.334 186.54 40.1584 185.807 39.8073V38.5179C186.278 38.7171 186.792 38.8743 187.347 38.9896C187.903 39.1049 188.453 39.1626 188.998 39.1626C189.889 39.1626 190.56 38.9949 191.011 38.6594C191.462 38.3188 191.687 37.847 191.687 37.2443C191.687 36.846 191.606 36.521 191.443 36.2694C191.286 36.0126 191.019 35.7768 190.642 35.5619C190.269 35.347 189.701 35.1033 188.936 34.8307C187.866 34.4481 187.101 33.9948 186.64 33.4706C186.184 32.9465 185.956 32.2625 185.956 31.4187C185.956 30.5329 186.289 29.828 186.954 29.3039C187.62 28.7798 188.501 28.5177 189.596 28.5177C190.739 28.5177 191.789 28.7273 192.749 29.1466L192.332 30.3102C191.383 29.9119 190.461 29.7127 189.564 29.7127C188.857 29.7127 188.304 29.8647 187.906 30.1687C187.507 30.4727 187.308 30.8946 187.308 31.4344C187.308 31.8328 187.382 32.1603 187.528 32.4172C187.675 32.6687 187.921 32.902 188.267 33.1169C188.618 33.3265 189.153 33.5597 189.871 33.8166C191.077 34.2463 191.905 34.7076 192.355 35.2002C192.811 35.6929 193.039 36.3323 193.039 37.1185ZM199.203 40.334C198.642 40.334 198.129 40.2318 197.662 40.0274C197.201 39.8177 196.813 39.498 196.499 39.0682H196.404C196.467 39.5714 196.499 40.0483 196.499 40.4991V44.0448H195.194V31.5602H196.255L196.436 32.7395H196.499C196.834 32.2678 197.225 31.9271 197.67 31.7175C198.116 31.5078 198.627 31.403 199.203 31.403C200.346 31.403 201.226 31.7935 201.845 32.5744C202.468 33.3553 202.78 34.4507 202.78 35.8606C202.78 37.2758 202.463 38.3764 201.829 39.1626C201.2 39.9435 200.325 40.334 199.203 40.334ZM199.014 32.5115C198.134 32.5115 197.497 32.7552 197.104 33.2426C196.711 33.7301 196.509 34.5058 196.499 35.5697V35.8606C196.499 37.0713 196.7 37.9388 197.104 38.4629C197.508 38.9818 198.155 39.2412 199.046 39.2412C199.79 39.2412 200.372 38.9398 200.791 38.3371C201.216 37.7344 201.428 36.9036 201.428 35.8449C201.428 34.7705 201.216 33.9476 200.791 33.3763C200.372 32.7998 199.78 32.5115 199.014 32.5115ZM206.373 40.1768H205.068V31.5602H206.373V40.1768ZM204.958 29.2253C204.958 28.9265 205.031 28.709 205.178 28.5727C205.325 28.4312 205.508 28.3605 205.728 28.3605C205.938 28.3605 206.119 28.4312 206.271 28.5727C206.423 28.7142 206.499 28.9318 206.499 29.2253C206.499 29.5188 206.423 29.7389 206.271 29.8857C206.119 30.0272 205.938 30.0979 205.728 30.0979C205.508 30.0979 205.325 30.0272 205.178 29.8857C205.031 29.7389 204.958 29.5188 204.958 29.2253ZM215.037 40.1768V34.6027C215.037 33.9004 214.877 33.3763 214.557 33.0304C214.237 32.6845 213.737 32.5115 213.056 32.5115C212.154 32.5115 211.494 32.7552 211.074 33.2426C210.655 33.7301 210.445 34.5346 210.445 35.6562V40.1768H209.14V31.5602H210.202L210.414 32.7395H210.477C210.744 32.315 211.119 31.9874 211.601 31.7568C212.083 31.5209 212.621 31.403 213.213 31.403C214.251 31.403 215.032 31.6546 215.556 32.1577C216.08 32.6556 216.342 33.4549 216.342 34.5556V40.1768H215.037ZM224.589 37.8261C224.589 38.628 224.29 39.2464 223.693 39.6815C223.095 40.1165 222.257 40.334 221.177 40.334C220.034 40.334 219.143 40.1532 218.504 39.7915V38.5808C218.918 38.7905 219.361 38.9556 219.832 39.0761C220.309 39.1967 220.768 39.2569 221.208 39.2569C221.89 39.2569 222.414 39.1495 222.781 38.9346C223.148 38.7145 223.331 38.3816 223.331 37.9361C223.331 37.6007 223.184 37.3151 222.891 37.0792C222.602 36.8381 222.036 36.5551 221.193 36.2301C220.391 35.9314 219.819 35.6719 219.479 35.4518C219.143 35.2264 218.892 34.9722 218.724 34.6892C218.561 34.4062 218.48 34.0681 218.48 33.675C218.48 32.9727 218.766 32.4198 219.337 32.0162C219.908 31.6074 220.692 31.403 221.688 31.403C222.616 31.403 223.522 31.5917 224.408 31.969L223.944 33.0304C223.079 32.674 222.296 32.4958 221.593 32.4958C220.975 32.4958 220.509 32.5927 220.194 32.7867C219.88 32.9806 219.722 33.2479 219.722 33.5886C219.722 33.8192 219.78 34.0157 219.895 34.1782C220.016 34.3407 220.207 34.4953 220.469 34.642C220.731 34.7888 221.234 35.0011 221.979 35.2789C223.001 35.651 223.69 36.0257 224.046 36.4031C224.408 36.7805 224.589 37.2548 224.589 37.8261Z" fill="#5E5E5E"/>
<path d="M239.986 2.0127L253.543 25.4933H246.248L239.986 2.0127Z" fill="#FC0035"/>
<path d="M239.986 48.9736L253.543 25.493H246.248L239.986 48.9736Z" fill="#DD0524"/>
<circle cx="291.036" cy="25.4932" r="25.4932" fill="#FC0035"/>
<path d="M297.743 36.4775H283.218V33.4218L288.434 28.1489C289.978 26.5665 290.987 25.4722 291.461 24.8657C291.935 24.2499 292.276 23.6814 292.484 23.1602C292.693 22.6391 292.797 22.099 292.797 21.54C292.797 20.7062 292.565 20.0855 292.101 19.6781C291.646 19.2707 291.035 19.067 290.267 19.067C289.462 19.067 288.68 19.2517 287.922 19.6213C287.164 19.9908 286.373 20.5167 285.549 21.1989L283.161 18.3705C284.184 17.4988 285.032 16.8829 285.705 16.5229C286.378 16.1628 287.112 15.888 287.908 15.6985C288.704 15.4996 289.594 15.4001 290.58 15.4001C291.878 15.4001 293.024 15.637 294.019 16.1107C295.014 16.5845 295.786 17.2477 296.336 18.1005C296.886 18.9533 297.16 19.9292 297.16 21.0283C297.16 21.9853 296.99 22.8854 296.649 23.7287C296.317 24.5625 295.796 25.42 295.085 26.3012C294.384 27.1824 293.143 28.4379 291.362 30.0676L288.69 32.5833V32.7822H297.743V36.4775Z" fill="white"/>
<path d="M343.343 16.9764C343.343 19.1838 342.713 20.8745 341.453 22.0485C340.2 23.2226 338.387 23.8096 336.014 23.8096H332.217V10.4H336.427C338.616 10.4 340.316 10.9778 341.527 12.1335C342.737 13.2892 343.343 14.9035 343.343 16.9764ZM340.389 17.0497C340.389 14.1697 339.117 12.7297 336.574 12.7297H335.06V21.4615H336.28C339.02 21.4615 340.389 19.9909 340.389 17.0497ZM353.845 23.8096H346.122V10.4H353.845V12.7297H348.965V15.6739H353.505V18.0036H348.965V21.4615H353.845V23.8096ZM359.495 16.7104H360.43C361.305 16.7104 361.959 16.5391 362.393 16.1967C362.827 15.8482 363.044 15.3437 363.044 14.6833C363.044 14.0168 362.861 13.5246 362.494 13.2066C362.133 12.8886 361.565 12.7297 360.788 12.7297H359.495V16.7104ZM365.915 14.5824C365.915 16.0255 365.463 17.1292 364.558 17.8936C363.659 18.6579 362.378 19.0401 360.715 19.0401H359.495V23.8096H356.651V10.4H360.935C362.561 10.4 363.797 10.7515 364.64 11.4547C365.49 12.1518 365.915 13.1944 365.915 14.5824ZM380.618 17.0864C380.618 19.3061 380.068 21.0121 378.967 22.2045C377.867 23.3968 376.289 23.993 374.234 23.993C372.18 23.993 370.602 23.3968 369.502 22.2045C368.401 21.0121 367.851 19.3 367.851 17.0681C367.851 14.8362 368.401 13.1332 369.502 11.9592C370.608 10.7791 372.192 10.189 374.253 10.189C376.313 10.189 377.888 10.7821 378.976 11.9684C380.071 13.1546 380.618 14.8607 380.618 17.0864ZM370.832 17.0864C370.832 18.5845 371.116 19.7127 371.685 20.4709C372.253 21.2292 373.103 21.6083 374.234 21.6083C376.503 21.6083 377.637 20.101 377.637 17.0864C377.637 14.0657 376.509 12.5554 374.253 12.5554C373.122 12.5554 372.268 12.9376 371.694 13.7019C371.119 14.4601 370.832 15.5883 370.832 17.0864ZM391.313 20.0857C391.313 21.2964 390.876 22.2503 390.001 22.9474C389.133 23.6445 387.922 23.993 386.369 23.993C384.938 23.993 383.672 23.724 382.572 23.1859V20.5443C383.477 20.9479 384.241 21.2322 384.865 21.3973C385.495 21.5624 386.069 21.645 386.589 21.645C387.213 21.645 387.69 21.5257 388.02 21.2872C388.356 21.0488 388.525 20.6941 388.525 20.2233C388.525 19.9603 388.451 19.728 388.304 19.5262C388.158 19.3183 387.941 19.1196 387.653 18.93C387.372 18.7405 386.794 18.4378 385.92 18.022C385.1 17.6367 384.486 17.2668 384.076 16.9121C383.666 16.5575 383.339 16.1447 383.095 15.6739C382.85 15.2031 382.728 14.6528 382.728 14.0229C382.728 12.8367 383.128 11.9042 383.929 11.2254C384.736 10.5467 385.849 10.2073 387.268 10.2073C387.965 10.2073 388.628 10.2899 389.258 10.455C389.894 10.6201 390.558 10.8524 391.249 11.1521L390.331 13.3625C389.616 13.069 389.023 12.8642 388.552 12.748C388.087 12.6318 387.629 12.5737 387.176 12.5737C386.638 12.5737 386.225 12.6991 385.938 12.9498C385.651 13.2005 385.507 13.5276 385.507 13.9312C385.507 14.1819 385.565 14.402 385.681 14.5916C385.797 14.775 385.981 14.9554 386.231 15.1328C386.488 15.304 387.091 15.6158 388.038 16.0683C389.292 16.6676 390.151 17.2699 390.616 17.8752C391.08 18.4745 391.313 19.2113 391.313 20.0857ZM393.743 23.8096V10.4H396.587V23.8096H393.743ZM405.135 23.8096H402.292V12.7664H398.651V10.4H408.777V12.7664H405.135V23.8096Z" fill="#DD0524"/>
<path d="M335.891 28.5334C336.887 28.5334 337.83 28.7536 338.721 29.1938L338.242 30.2394C337.435 29.8359 336.656 29.6341 335.907 29.6341C335.262 29.6341 334.775 29.7966 334.444 30.1215C334.12 30.4465 333.957 30.9758 333.957 31.7096V34.0288H337.275V35.0273H333.957V36.7647C333.957 37.2889 333.871 37.7291 333.698 38.0855C333.53 38.4419 333.252 38.7354 332.864 38.966H339.114V40.1768H331.025V39.0682C332.099 38.8219 332.636 38.0593 332.636 36.7805V35.0273H331.08V34.0288H332.636V31.5445C332.636 30.6116 332.93 29.8778 333.517 29.3432C334.104 28.8033 334.895 28.5334 335.891 28.5334ZM345.365 40.1768H344.091V31.9848C344.091 31.3034 344.112 30.6587 344.154 30.0508C344.044 30.1608 343.921 30.2761 343.784 30.3967C343.648 30.5172 343.024 31.0282 341.913 31.9297L341.221 31.0335L344.264 28.6828H345.365V40.1768ZM357.362 34.4141C357.362 36.4005 357.047 37.8837 356.418 38.8638C355.795 39.8439 354.838 40.334 353.549 40.334C352.312 40.334 351.371 39.8335 350.726 38.8324C350.082 37.8261 349.759 36.3533 349.759 34.4141C349.759 32.4119 350.071 30.926 350.695 29.9564C351.319 28.9868 352.27 28.502 353.549 28.502C354.796 28.502 355.742 29.0078 356.387 30.0193C357.037 31.0309 357.362 32.4958 357.362 34.4141ZM351.08 34.4141C351.08 36.086 351.277 37.3046 351.67 38.0698C352.063 38.8298 352.689 39.2098 353.549 39.2098C354.419 39.2098 355.048 38.8245 355.435 38.0541C355.829 37.2784 356.025 36.065 356.025 34.4141C356.025 32.7631 355.829 31.555 355.435 30.7898C355.048 30.0193 354.419 29.6341 353.549 29.6341C352.689 29.6341 352.063 30.0141 351.67 30.774C351.277 31.5288 351.08 32.7421 351.08 34.4141ZM371.175 35.8606C371.175 37.2653 370.821 38.3633 370.113 39.1547C369.406 39.9409 368.428 40.334 367.181 40.334C366.411 40.334 365.727 40.1532 365.129 39.7915C364.532 39.4299 364.07 38.911 363.745 38.2349C363.42 37.5588 363.258 36.7674 363.258 35.8606C363.258 34.456 363.609 33.3632 364.311 32.5823C365.014 31.7961 365.989 31.403 367.236 31.403C368.442 31.403 369.398 31.8039 370.106 32.6058C370.818 33.4077 371.175 34.4927 371.175 35.8606ZM364.61 35.8606C364.61 36.9613 364.83 37.7999 365.271 38.3764C365.711 38.9529 366.358 39.2412 367.212 39.2412C368.067 39.2412 368.714 38.9556 369.154 38.3843C369.6 37.8077 369.823 36.9665 369.823 35.8606C369.823 34.7652 369.6 33.9345 369.154 33.3684C368.714 32.7971 368.062 32.5115 367.197 32.5115C366.342 32.5115 365.698 32.7919 365.263 33.3527C364.828 33.9135 364.61 34.7495 364.61 35.8606ZM377.401 31.403C377.784 31.403 378.127 31.4344 378.431 31.4973L378.25 32.708C377.894 32.6294 377.58 32.5901 377.307 32.5901C376.61 32.5901 376.012 32.8731 375.515 33.4392C375.022 34.0052 374.776 34.7102 374.776 35.554V40.1768H373.47V31.5602H374.548L374.697 33.1562H374.76C375.08 32.5954 375.465 32.163 375.915 31.859C376.366 31.555 376.862 31.403 377.401 31.403ZM395.208 40.1768V34.5713C395.208 33.8847 395.062 33.3711 394.768 33.0304C394.475 32.6845 394.019 32.5115 393.4 32.5115C392.588 32.5115 391.988 32.7447 391.6 33.2112C391.212 33.6777 391.018 34.3957 391.018 35.3653V40.1768H389.713V34.5713C389.713 33.8847 389.566 33.3711 389.273 33.0304C388.979 32.6845 388.521 32.5115 387.897 32.5115C387.079 32.5115 386.479 32.7578 386.097 33.2505C385.719 33.7379 385.53 34.5398 385.53 35.6562V40.1768H384.225V31.5602H385.287L385.499 32.7395H385.562C385.808 32.3202 386.154 31.9926 386.6 31.7568C387.05 31.5209 387.554 31.403 388.109 31.403C389.456 31.403 390.337 31.8904 390.751 32.8653H390.814C391.07 32.4145 391.443 32.0581 391.93 31.7961C392.417 31.534 392.973 31.403 393.597 31.403C394.572 31.403 395.3 31.6546 395.782 32.1577C396.27 32.6556 396.513 33.4549 396.513 34.5556V40.1768H395.208ZM406.647 35.8606C406.647 37.2653 406.294 38.3633 405.586 39.1547C404.878 39.9409 403.901 40.334 402.653 40.334C401.883 40.334 401.199 40.1532 400.602 39.7915C400.004 39.4299 399.543 38.911 399.218 38.2349C398.893 37.5588 398.73 36.7674 398.73 35.8606C398.73 34.456 399.082 33.3632 399.784 32.5823C400.486 31.7961 401.461 31.403 402.709 31.403C403.914 31.403 404.871 31.8039 405.578 32.6058C406.291 33.4077 406.647 34.4927 406.647 35.8606ZM400.083 35.8606C400.083 36.9613 400.303 37.7999 400.743 38.3764C401.183 38.9529 401.831 39.2412 402.685 39.2412C403.539 39.2412 404.187 38.9556 404.627 38.3843C405.072 37.8077 405.295 36.9665 405.295 35.8606C405.295 34.7652 405.072 33.9345 404.627 33.3684C404.187 32.7971 403.534 32.5115 402.669 32.5115C401.815 32.5115 401.17 32.7919 400.735 33.3527C400.3 33.9135 400.083 34.7495 400.083 35.8606ZM412.874 31.403C413.256 31.403 413.6 31.4344 413.904 31.4973L413.723 32.708C413.367 32.6294 413.052 32.5901 412.78 32.5901C412.082 32.5901 411.485 32.8731 410.987 33.4392C410.494 34.0052 410.248 34.7102 410.248 35.554V40.1768H408.943V31.5602H410.02L410.169 33.1562H410.232C410.552 32.5954 410.937 32.163 411.388 31.859C411.839 31.555 412.334 31.403 412.874 31.403ZM419.155 40.334C417.882 40.334 416.876 39.9461 416.136 39.1704C415.403 38.3947 415.036 37.3177 415.036 35.9392C415.036 34.5503 415.377 33.4471 416.058 32.6294C416.744 31.8118 417.664 31.403 418.817 31.403C419.897 31.403 420.751 31.7594 421.38 32.4722C422.009 33.1798 422.324 34.1153 422.324 35.2789V36.1043H416.388C416.414 37.1159 416.668 37.8837 417.151 38.4079C417.638 38.932 418.322 39.194 419.203 39.194C420.13 39.194 421.048 39.0001 421.954 38.6123V39.7758C421.493 39.975 421.055 40.1165 420.641 40.2003C420.232 40.2894 419.737 40.334 419.155 40.334ZM418.802 32.4958C418.11 32.4958 417.557 32.7211 417.143 33.1719C416.734 33.6226 416.493 34.2463 416.42 35.043H420.924C420.924 34.2201 420.741 33.5912 420.374 33.1562C420.007 32.7159 419.483 32.4958 418.802 32.4958Z" fill="#5E5E5E"/>
<path d="M437.529 2.0127L451.086 25.4933H443.791L437.529 2.0127Z" fill="#FC0035"/>
<path d="M437.529 48.9736L451.086 25.493H443.791L437.529 48.9736Z" fill="#DD0524"/>
<circle cx="488.579" cy="25.4932" r="25.4932" fill="#FC0035"/>
<path d="M494.476 20.3461C494.476 21.6442 494.083 22.7481 493.296 23.6577C492.51 24.5673 491.406 25.1926 489.985 25.5337V25.619C491.662 25.8275 492.931 26.3391 493.794 27.154C494.656 27.9594 495.087 29.049 495.087 30.4229C495.087 32.4222 494.362 33.9808 492.913 35.0989C491.463 36.2075 489.393 36.7618 486.702 36.7618C484.446 36.7618 482.447 36.3875 480.704 35.639V31.901C481.509 32.3085 482.395 32.6401 483.362 32.8959C484.328 33.1518 485.285 33.2797 486.233 33.2797C487.682 33.2797 488.753 33.0333 489.445 32.5406C490.136 32.0479 490.482 31.2567 490.482 30.1671C490.482 29.1912 490.084 28.4995 489.288 28.092C488.492 27.6846 487.223 27.4809 485.479 27.4809H483.902V24.1125H485.508C487.118 24.1125 488.293 23.904 489.032 23.4871C489.781 23.0607 490.155 22.3359 490.155 21.3126C490.155 19.7397 489.17 18.9533 487.199 18.9533C486.517 18.9533 485.82 19.067 485.11 19.2944C484.409 19.5218 483.627 19.915 482.765 20.474L480.732 17.4467C482.627 16.0823 484.887 15.4001 487.512 15.4001C489.663 15.4001 491.359 15.8359 492.6 16.7076C493.851 17.5794 494.476 18.7922 494.476 20.3461Z" fill="white"/>
<path d="M534.851 16.2793H540.17V23.2317C539.308 23.513 538.495 23.7087 537.731 23.8187C536.972 23.9349 536.196 23.993 535.401 23.993C533.377 23.993 531.83 23.3999 530.76 22.2136C529.696 21.0213 529.164 19.3122 529.164 17.0864C529.164 14.9218 529.781 13.2341 531.017 12.0234C532.258 10.8127 533.976 10.2073 536.171 10.2073C537.547 10.2073 538.874 10.4825 540.152 11.0328L539.207 13.3075C538.229 12.8183 537.211 12.5737 536.153 12.5737C534.924 12.5737 533.939 12.9865 533.2 13.812C532.46 14.6375 532.09 15.7473 532.09 17.1414C532.09 18.5968 532.386 19.7096 532.979 20.4801C533.579 21.2444 534.447 21.6266 535.584 21.6266C536.177 21.6266 536.78 21.5655 537.391 21.4432V18.6457H534.851V16.2793ZM551.094 23.8096H543.371V10.4H551.094V12.7297H546.215V15.6739H550.755V18.0036H546.215V21.4615H551.094V23.8096ZM559.074 23.8096H556.231V12.7664H552.589V10.4H562.715V12.7664H559.074V23.8096ZM569.659 10.4H573.832C575.734 10.4 577.113 10.6721 577.969 11.2163C578.831 11.7544 579.262 12.6135 579.262 13.7936C579.262 14.5947 579.072 15.252 578.693 15.7656C578.32 16.2793 577.822 16.5881 577.198 16.692V16.7837C578.048 16.9733 578.66 17.3279 579.033 17.8477C579.412 18.3675 579.601 19.0584 579.601 19.9206C579.601 21.1435 579.158 22.0974 578.271 22.7823C577.391 23.4671 576.192 23.8096 574.676 23.8096H569.659V10.4ZM572.502 15.7106H574.153C574.924 15.7106 575.48 15.5914 575.822 15.3529C576.171 15.1144 576.345 14.72 576.345 14.1697C576.345 13.656 576.156 13.2892 575.777 13.069C575.404 12.8428 574.81 12.7297 573.997 12.7297H572.502V15.7106ZM572.502 17.9669V21.4615H574.355C575.138 21.4615 575.715 21.3117 576.088 21.0121C576.461 20.7125 576.648 20.2539 576.648 19.6363C576.648 18.5234 575.853 17.9669 574.263 17.9669H572.502ZM594.451 17.0864C594.451 19.3061 593.901 21.0121 592.8 22.2045C591.699 23.3968 590.122 23.993 588.067 23.993C586.013 23.993 584.435 23.3968 583.334 22.2045C582.234 21.0121 581.683 19.3 581.683 17.0681C581.683 14.8362 582.234 13.1332 583.334 11.9592C584.441 10.7791 586.025 10.189 588.085 10.189C590.146 10.189 591.721 10.7821 592.809 11.9684C593.904 13.1546 594.451 14.8607 594.451 17.0864ZM584.664 17.0864C584.664 18.5845 584.949 19.7127 585.517 20.4709C586.086 21.2292 586.936 21.6083 588.067 21.6083C590.336 21.6083 591.47 20.101 591.47 17.0864C591.47 14.0657 590.342 12.5554 588.085 12.5554C586.954 12.5554 586.101 12.9376 585.526 13.7019C584.952 14.4601 584.664 15.5883 584.664 17.0864ZM609.126 23.8096H605.512L599.679 13.6652H599.596C599.713 15.4568 599.771 16.7348 599.771 17.4992V23.8096H597.23V10.4H600.816L606.641 20.4434H606.705C606.613 18.7007 606.567 17.4686 606.567 16.747V10.4H609.126V23.8096ZM623.426 10.4V19.0768C623.426 20.0674 623.202 20.9356 622.756 21.6816C622.316 22.4276 621.677 22.9994 620.839 23.3968C620.001 23.7943 619.011 23.993 617.867 23.993C616.143 23.993 614.804 23.5528 613.85 22.6722C612.896 21.7856 612.419 20.5749 612.419 19.0401V10.4H615.253V18.609C615.253 19.6424 615.461 20.4006 615.877 20.8837C616.293 21.3667 616.981 21.6083 617.941 21.6083C618.87 21.6083 619.543 21.3667 619.959 20.8837C620.38 20.3945 620.591 19.6301 620.591 18.5906V10.4H623.426ZM634.625 20.0857C634.625 21.2964 634.188 22.2503 633.313 22.9474C632.445 23.6445 631.234 23.993 629.681 23.993C628.25 23.993 626.984 23.724 625.884 23.1859V20.5443C626.789 20.9479 627.553 21.2322 628.177 21.3973C628.807 21.5624 629.381 21.645 629.901 21.645C630.525 21.645 631.002 21.5257 631.332 21.2872C631.668 21.0488 631.836 20.6941 631.836 20.2233C631.836 19.9603 631.763 19.728 631.616 19.5262C631.47 19.3183 631.252 19.1196 630.965 18.93C630.684 18.7405 630.106 18.4378 629.232 18.022C628.412 17.6367 627.798 17.2668 627.388 16.9121C626.978 16.5575 626.651 16.1447 626.407 15.6739C626.162 15.2031 626.04 14.6528 626.04 14.0229C626.04 12.8367 626.44 11.9042 627.241 11.2254C628.048 10.5467 629.161 10.2073 630.58 10.2073C631.277 10.2073 631.94 10.2899 632.57 10.455C633.206 10.6201 633.87 10.8524 634.561 11.1521L633.643 13.3625C632.928 13.069 632.335 12.8642 631.864 12.748C631.399 12.6318 630.941 12.5737 630.488 12.5737C629.95 12.5737 629.537 12.6991 629.25 12.9498C628.963 13.2005 628.819 13.5276 628.819 13.9312C628.819 14.1819 628.877 14.402 628.993 14.5916C629.109 14.775 629.293 14.9554 629.543 15.1328C629.8 15.304 630.403 15.6158 631.35 16.0683C632.604 16.6676 633.463 17.2699 633.928 17.8752C634.392 18.4745 634.625 19.2113 634.625 20.0857Z" fill="#DD0524"/>
<path d="M534.708 34.1546H538.615V39.7444C538.007 39.9383 537.389 40.085 536.76 40.1846C536.131 40.2842 535.402 40.334 534.574 40.334C532.834 40.334 531.479 39.8177 530.51 38.7852C529.54 37.7475 529.055 36.2956 529.055 34.4298C529.055 33.2348 529.294 32.1892 529.771 31.2929C530.253 30.3914 530.945 29.7048 531.846 29.2331C532.748 28.7562 533.804 28.5177 535.014 28.5177C536.241 28.5177 537.383 28.7431 538.442 29.1938L537.923 30.3731C536.885 29.9328 535.887 29.7127 534.928 29.7127C533.528 29.7127 532.436 30.1294 531.65 30.9627C530.863 31.7961 530.47 32.9518 530.47 34.4298C530.47 35.9812 530.848 37.1578 531.602 37.9597C532.362 38.7616 533.476 39.1626 534.944 39.1626C535.74 39.1626 536.519 39.0709 537.279 38.8874V35.3496H534.708V34.1546ZM544.826 40.334C543.552 40.334 542.546 39.9461 541.807 39.1704C541.073 38.3947 540.706 37.3177 540.706 35.9392C540.706 34.5503 541.047 33.4471 541.728 32.6294C542.415 31.8118 543.335 31.403 544.488 31.403C545.568 31.403 546.422 31.7594 547.051 32.4722C547.68 33.1798 547.994 34.1153 547.994 35.2789V36.1043H542.059C542.085 37.1159 542.339 37.8837 542.821 38.4079C543.309 38.932 543.993 39.194 544.873 39.194C545.801 39.194 546.718 39.0001 547.625 38.6123V39.7758C547.163 39.975 546.726 40.1165 546.312 40.2003C545.903 40.2894 545.408 40.334 544.826 40.334ZM544.472 32.4958C543.78 32.4958 543.227 32.7211 542.813 33.1719C542.404 33.6226 542.163 34.2463 542.09 35.043H546.595C546.595 34.2201 546.411 33.5912 546.044 33.1562C545.678 32.7159 545.153 32.4958 544.472 32.4958ZM553.01 39.2569C553.241 39.2569 553.463 39.2412 553.678 39.2098C553.893 39.1731 554.064 39.1364 554.189 39.0997V40.0981C554.048 40.1663 553.838 40.2213 553.56 40.2632C553.288 40.3104 553.041 40.334 552.821 40.334C551.155 40.334 550.321 39.4561 550.321 37.7003V32.5744H549.087V31.9454L550.321 31.403L550.872 29.5633H551.626V31.5602H554.126V32.5744H551.626V37.6453C551.626 38.1641 551.75 38.5625 551.996 38.8403C552.242 39.118 552.58 39.2569 553.01 39.2569ZM558.733 31.5602H560.133L562.02 36.4738C562.434 37.5955 562.691 38.4052 562.79 38.9031H562.853C562.921 38.6358 563.063 38.1799 563.278 37.5352C563.498 36.8853 564.21 34.8936 565.416 31.5602H566.815L563.112 41.3718C562.746 42.3414 562.316 43.028 561.823 43.4315C561.336 43.8404 560.736 44.0448 560.023 44.0448C559.624 44.0448 559.231 44.0002 558.843 43.9111V42.8655C559.132 42.9284 559.454 42.9598 559.81 42.9598C560.707 42.9598 561.346 42.4567 561.729 41.4504L562.208 40.2239L558.733 31.5602ZM575.652 35.8606C575.652 37.2653 575.298 38.3633 574.591 39.1547C573.883 39.9409 572.906 40.334 571.658 40.334C570.888 40.334 570.204 40.1532 569.606 39.7915C569.009 39.4299 568.548 38.911 568.223 38.2349C567.898 37.5588 567.735 36.7674 567.735 35.8606C567.735 34.456 568.086 33.3632 568.789 32.5823C569.491 31.7961 570.466 31.403 571.713 31.403C572.919 31.403 573.875 31.8039 574.583 32.6058C575.296 33.4077 575.652 34.4927 575.652 35.8606ZM569.087 35.8606C569.087 36.9613 569.308 37.7999 569.748 38.3764C570.188 38.9529 570.835 39.2412 571.69 39.2412C572.544 39.2412 573.191 38.9556 573.632 38.3843C574.077 37.8077 574.3 36.9665 574.3 35.8606C574.3 34.7652 574.077 33.9345 573.632 33.3684C573.191 32.7971 572.539 32.5115 571.674 32.5115C570.82 32.5115 570.175 32.7919 569.74 33.3527C569.305 33.9135 569.087 34.7495 569.087 35.8606ZM579.174 31.5602V37.15C579.174 37.8523 579.334 38.3764 579.654 38.7223C579.973 39.0682 580.474 39.2412 581.155 39.2412C582.057 39.2412 582.715 38.9949 583.129 38.5022C583.548 38.0095 583.758 37.205 583.758 36.0886V31.5602H585.063V40.1768H583.986L583.797 39.0211H583.726C583.459 39.4456 583.087 39.7706 582.61 39.9959C582.138 40.2213 581.598 40.334 580.99 40.334C579.942 40.334 579.156 40.085 578.632 39.5871C578.113 39.0892 577.853 38.2925 577.853 37.1971V31.5602H579.174ZM591.769 31.403C592.151 31.403 592.495 31.4344 592.799 31.4973L592.618 32.708C592.261 32.6294 591.947 32.5901 591.674 32.5901C590.977 32.5901 590.38 32.8731 589.882 33.4392C589.389 34.0052 589.143 34.7102 589.143 35.554V40.1768H587.838V31.5602H588.915L589.064 33.1562H589.127C589.447 32.5954 589.832 32.163 590.283 31.859C590.734 31.555 591.229 31.403 591.769 31.403ZM608.821 40.1768H607.5L605.181 32.4801C605.071 32.1394 604.948 31.7096 604.811 31.1907C604.675 30.6718 604.604 30.36 604.599 30.2552C604.484 30.947 604.3 31.7044 604.049 32.5272L601.8 40.1768H600.48L597.421 28.6828H598.837L600.653 35.782C600.904 36.7778 601.088 37.6793 601.203 38.4865C601.344 37.5273 601.554 36.5892 601.832 35.6719L603.892 28.6828H605.307L607.469 35.7348C607.72 36.5472 607.933 37.4644 608.106 38.4865C608.205 37.7422 608.394 36.8355 608.672 35.7663L610.48 28.6828H611.895L608.821 40.1768ZM617.139 40.334C615.865 40.334 614.859 39.9461 614.12 39.1704C613.386 38.3947 613.019 37.3177 613.019 35.9392C613.019 34.5503 613.36 33.4471 614.041 32.6294C614.728 31.8118 615.648 31.403 616.801 31.403C617.88 31.403 618.735 31.7594 619.364 32.4722C619.993 33.1798 620.307 34.1153 620.307 35.2789V36.1043H614.371C614.398 37.1159 614.652 37.8837 615.134 38.4079C615.621 38.932 616.305 39.194 617.186 39.194C618.114 39.194 619.031 39.0001 619.938 38.6123V39.7758C619.476 39.975 619.039 40.1165 618.625 40.2003C618.216 40.2894 617.721 40.334 617.139 40.334ZM616.785 32.4958C616.093 32.4958 615.54 32.7211 615.126 33.1719C614.717 33.6226 614.476 34.2463 614.403 35.043H618.908C618.908 34.2201 618.724 33.5912 618.357 33.1562C617.99 32.7159 617.466 32.4958 616.785 32.4958ZM623.845 40.1768H622.54V27.9438H623.845V40.1768ZM630.056 40.334C628.808 40.334 627.841 39.9514 627.155 39.1862C626.473 38.4157 626.133 37.3282 626.133 35.9235C626.133 34.4822 626.479 33.3684 627.17 32.5823C627.868 31.7961 628.858 31.403 630.142 31.403C630.556 31.403 630.97 31.4475 631.384 31.5366C631.798 31.6257 632.123 31.7306 632.359 31.8511L631.958 32.9596C631.67 32.8443 631.356 32.75 631.015 32.6766C630.674 32.598 630.373 32.5587 630.111 32.5587C628.36 32.5587 627.485 33.675 627.485 35.9078C627.485 36.9665 627.697 37.7789 628.122 38.345C628.551 38.911 629.186 39.194 630.024 39.194C630.742 39.194 631.479 39.0394 632.233 38.7302V39.8859C631.657 40.1846 630.931 40.334 630.056 40.334ZM641.723 35.8606C641.723 37.2653 641.369 38.3633 640.661 39.1547C639.954 39.9409 638.976 40.334 637.729 40.334C636.958 40.334 636.274 40.1532 635.677 39.7915C635.079 39.4299 634.618 38.911 634.293 38.2349C633.968 37.5588 633.806 36.7674 633.806 35.8606C633.806 34.456 634.157 33.3632 634.859 32.5823C635.562 31.7961 636.536 31.403 637.784 31.403C638.989 31.403 639.946 31.8039 640.653 32.6058C641.366 33.4077 641.723 34.4927 641.723 35.8606ZM635.158 35.8606C635.158 36.9613 635.378 37.7999 635.818 38.3764C636.259 38.9529 636.906 39.2412 637.76 39.2412C638.615 39.2412 639.262 38.9556 639.702 38.3843C640.148 37.8077 640.37 36.9665 640.37 35.8606C640.37 34.7652 640.148 33.9345 639.702 33.3684C639.262 32.7971 638.609 32.5115 637.745 32.5115C636.89 32.5115 636.246 32.7919 635.811 33.3527C635.376 33.9135 635.158 34.7495 635.158 35.8606ZM655.001 40.1768V34.5713C655.001 33.8847 654.854 33.3711 654.561 33.0304C654.267 32.6845 653.811 32.5115 653.193 32.5115C652.381 32.5115 651.781 32.7447 651.393 33.2112C651.005 33.6777 650.811 34.3957 650.811 35.3653V40.1768H649.506V34.5713C649.506 33.8847 649.359 33.3711 649.066 33.0304C648.772 32.6845 648.313 32.5115 647.69 32.5115C646.872 32.5115 646.272 32.7578 645.889 33.2505C645.512 33.7379 645.323 34.5398 645.323 35.6562V40.1768H644.018V31.5602H645.08L645.292 32.7395H645.355C645.601 32.3202 645.947 31.9926 646.393 31.7568C646.843 31.5209 647.346 31.403 647.902 31.403C649.249 31.403 650.13 31.8904 650.544 32.8653H650.606C650.863 32.4145 651.235 32.0581 651.723 31.7961C652.21 31.534 652.766 31.403 653.39 31.403C654.364 31.403 655.093 31.6546 655.575 32.1577C656.063 32.6556 656.306 33.4549 656.306 34.5556V40.1768H655.001ZM662.643 40.334C661.369 40.334 660.363 39.9461 659.624 39.1704C658.89 38.3947 658.523 37.3177 658.523 35.9392C658.523 34.5503 658.864 33.4471 659.545 32.6294C660.232 31.8118 661.152 31.403 662.305 31.403C663.385 31.403 664.239 31.7594 664.868 32.4722C665.497 33.1798 665.811 34.1153 665.811 35.2789V36.1043H659.876C659.902 37.1159 660.156 37.8837 660.638 38.4079C661.126 38.932 661.81 39.194 662.69 39.194C663.618 39.194 664.535 39.0001 665.442 38.6123V39.7758C664.98 39.975 664.543 40.1165 664.129 40.2003C663.72 40.2894 663.225 40.334 662.643 40.334ZM662.289 32.4958C661.597 32.4958 661.044 32.7211 660.63 33.1719C660.221 33.6226 659.98 34.2463 659.907 35.043H664.412C664.412 34.2201 664.228 33.5912 663.861 33.1562C663.495 32.7159 662.97 32.4958 662.289 32.4958ZM672.423 28.6828H675.67C677.195 28.6828 678.298 28.9108 678.98 29.3668C679.661 29.8228 680.002 30.5434 680.002 31.5288C680.002 32.2101 679.81 32.7736 679.428 33.2191C679.05 33.6593 678.498 33.945 677.769 34.076V34.1546C679.514 34.4534 680.387 35.3706 680.387 36.9062C680.387 37.9335 680.038 38.7354 679.341 39.312C678.65 39.8885 677.68 40.1768 676.433 40.1768H672.423V28.6828ZM673.76 33.6043H675.961C676.904 33.6043 677.583 33.4575 677.997 33.164C678.411 32.8653 678.618 32.3647 678.618 31.6624C678.618 31.0178 678.387 30.5539 677.926 30.2709C677.465 29.9826 676.731 29.8385 675.725 29.8385H673.76V33.6043ZM673.76 34.7364V39.0368H676.157C677.085 39.0368 677.782 38.8586 678.249 38.5022C678.72 38.1406 678.956 37.5771 678.956 36.8119C678.956 36.0991 678.715 35.575 678.233 35.2395C677.756 34.9041 677.027 34.7364 676.047 34.7364H673.76ZM690.104 35.8606C690.104 37.2653 689.75 38.3633 689.043 39.1547C688.335 39.9409 687.358 40.334 686.11 40.334C685.34 40.334 684.656 40.1532 684.058 39.7915C683.461 39.4299 683 38.911 682.675 38.2349C682.35 37.5588 682.187 36.7674 682.187 35.8606C682.187 34.456 682.539 33.3632 683.241 32.5823C683.943 31.7961 684.918 31.403 686.165 31.403C687.371 31.403 688.327 31.8039 689.035 32.6058C689.748 33.4077 690.104 34.4927 690.104 35.8606ZM683.54 35.8606C683.54 36.9613 683.76 37.7999 684.2 38.3764C684.64 38.9529 685.288 39.2412 686.142 39.2412C686.996 39.2412 687.643 38.9556 688.084 38.3843C688.529 37.8077 688.752 36.9665 688.752 35.8606C688.752 34.7652 688.529 33.9345 688.084 33.3684C687.643 32.7971 686.991 32.5115 686.126 32.5115C685.272 32.5115 684.627 32.7919 684.192 33.3527C683.757 33.9135 683.54 34.7495 683.54 35.8606ZM698.296 40.1768V34.6027C698.296 33.9004 698.136 33.3763 697.817 33.0304C697.497 32.6845 696.996 32.5115 696.315 32.5115C695.414 32.5115 694.753 32.7552 694.334 33.2426C693.915 33.7301 693.705 34.5346 693.705 35.6562V40.1768H692.4V31.5602H693.461L693.673 32.7395H693.736C694.004 32.315 694.378 31.9874 694.861 31.7568C695.343 31.5209 695.88 31.403 696.472 31.403C697.51 31.403 698.291 31.6546 698.815 32.1577C699.339 32.6556 699.601 33.4549 699.601 34.5556V40.1768H698.296ZM703.516 31.5602V37.15C703.516 37.8523 703.676 38.3764 703.996 38.7223C704.316 39.0682 704.816 39.2412 705.498 39.2412C706.399 39.2412 707.057 38.9949 707.471 38.5022C707.89 38.0095 708.1 37.205 708.1 36.0886V31.5602H709.405V40.1768H708.328L708.139 39.0211H708.068C707.801 39.4456 707.429 39.7706 706.952 39.9959C706.48 40.2213 705.94 40.334 705.333 40.334C704.284 40.334 703.498 40.085 702.974 39.5871C702.455 39.0892 702.196 38.2925 702.196 37.1971V31.5602H703.516ZM717.738 37.8261C717.738 38.628 717.44 39.2464 716.842 39.6815C716.245 40.1165 715.406 40.334 714.326 40.334C713.184 40.334 712.293 40.1532 711.653 39.7915V38.5808C712.067 38.7905 712.51 38.9556 712.982 39.0761C713.459 39.1967 713.918 39.2569 714.358 39.2569C715.039 39.2569 715.563 39.1495 715.93 38.9346C716.297 38.7145 716.481 38.3816 716.481 37.9361C716.481 37.6007 716.334 37.3151 716.04 37.0792C715.752 36.8381 715.186 36.5551 714.342 36.2301C713.54 35.9314 712.969 35.6719 712.628 35.4518C712.293 35.2264 712.041 34.9722 711.874 34.6892C711.711 34.4062 711.63 34.0681 711.63 33.675C711.63 32.9727 711.915 32.4198 712.487 32.0162C713.058 31.6074 713.842 31.403 714.837 31.403C715.765 31.403 716.672 31.5917 717.558 31.969L717.094 33.0304C716.229 32.674 715.445 32.4958 714.743 32.4958C714.125 32.4958 713.658 32.5927 713.344 32.7867C713.029 32.9806 712.872 33.2479 712.872 33.5886C712.872 33.8192 712.93 34.0157 713.045 34.1782C713.165 34.3407 713.357 34.4953 713.619 34.642C713.881 34.7888 714.384 35.0011 715.128 35.2789C716.15 35.651 716.84 36.0257 717.196 36.4031C717.558 36.7805 717.738 37.2548 717.738 37.8261Z" fill="#5E5E5E"/>
</svg>
