<svg width="878" height="51" viewBox="0 0 878 51" fill="none" xmlns="http://www.w3.org/2000/svg">
<circle cx="25.4932" cy="25.4932" r="25.4932" fill="#FC0035"/>
<path d="M28.533 36.4775H24.1413V24.4536L24.1839 22.478L24.255 20.3177C23.5254 21.0473 23.0185 21.5258 22.7342 21.7532L20.3465 23.6719L18.2288 21.0283L24.923 15.6985H28.533V36.4775Z" fill="white"/>
<path d="M65.8357 16.3526H66.7529C67.6518 16.3526 68.3152 16.2028 68.7433 15.9032C69.1713 15.6036 69.3853 15.1328 69.3853 14.4907C69.3853 13.8548 69.1652 13.4023 68.7249 13.1332C68.2908 12.8642 67.6151 12.7297 66.6979 12.7297H65.8357V16.3526ZM65.8357 18.664V23.8096H62.9924V10.4H66.8997C68.7219 10.4 70.0702 10.7332 70.9446 11.3997C71.819 12.0601 72.2562 13.066 72.2562 14.4173C72.2562 15.2061 72.0391 15.9093 71.605 16.5269C71.1708 17.1384 70.5563 17.6184 69.7614 17.9669C71.7792 20.9815 73.0939 22.929 73.7054 23.8096H70.5502L67.3491 18.664H65.8357ZM83.116 23.8096H75.393V10.4H83.116V12.7297H78.2364V15.6739H82.7766V18.0036H78.2364V21.4615H83.116V23.8096ZM91.0131 16.2793H96.333V23.2317C95.4708 23.513 94.6575 23.7087 93.8932 23.8187C93.135 23.9349 92.3584 23.993 91.5635 23.993C89.5395 23.993 87.9925 23.3999 86.9224 22.2136C85.8584 21.0213 85.3264 19.3122 85.3264 17.0864C85.3264 14.9218 85.944 13.2341 87.1792 12.0234C88.4205 10.8127 90.1387 10.2073 92.3339 10.2073C93.7097 10.2073 95.0366 10.4825 96.3146 11.0328L95.3699 13.3075C94.3915 12.8183 93.3734 12.5737 92.3156 12.5737C91.0865 12.5737 90.102 12.9865 89.3622 13.812C88.6223 14.6375 88.2523 15.7473 88.2523 17.1414C88.2523 18.5968 88.5489 19.7096 89.142 20.4801C89.7413 21.2444 90.6096 21.6266 91.7469 21.6266C92.34 21.6266 92.9423 21.5655 93.5538 21.4432V18.6457H91.0131V16.2793ZM99.534 23.8096V10.4H102.377V23.8096H99.534ZM113.668 20.0857C113.668 21.2964 113.231 22.2503 112.357 22.9474C111.488 23.6445 110.278 23.993 108.724 23.993C107.294 23.993 106.028 23.724 104.927 23.1859V20.5443C105.832 20.9479 106.597 21.2322 107.22 21.3973C107.85 21.5624 108.425 21.645 108.945 21.645C109.568 21.645 110.045 21.5257 110.375 21.2872C110.712 21.0488 110.88 20.6941 110.88 20.2233C110.88 19.9603 110.807 19.728 110.66 19.5262C110.513 19.3183 110.296 19.1196 110.009 18.93C109.727 18.7405 109.149 18.4378 108.275 18.022C107.456 17.6367 106.841 17.2668 106.431 16.9121C106.022 16.5575 105.695 16.1447 105.45 15.6739C105.205 15.2031 105.083 14.6528 105.083 14.0229C105.083 12.8367 105.484 11.9042 106.285 11.2254C107.092 10.5467 108.205 10.2073 109.623 10.2073C110.32 10.2073 110.984 10.2899 111.614 10.455C112.25 10.6201 112.913 10.8524 113.604 11.1521L112.687 13.3625C111.971 13.069 111.378 12.8642 110.907 12.748C110.443 12.6318 109.984 12.5737 109.532 12.5737C108.994 12.5737 108.581 12.6991 108.293 12.9498C108.006 13.2005 107.862 13.5276 107.862 13.9312C107.862 14.1819 107.92 14.402 108.037 14.5916C108.153 14.775 108.336 14.9554 108.587 15.1328C108.844 15.304 109.446 15.6158 110.394 16.0683C111.647 16.6676 112.506 17.2699 112.971 17.8752C113.436 18.4745 113.668 19.2113 113.668 20.0857ZM121.272 23.8096H118.429V12.7664H114.787V10.4H124.913V12.7664H121.272V23.8096ZM134.7 23.8096H126.977V10.4H134.7V12.7297H129.82V15.6739H134.361V18.0036H129.82V21.4615H134.7V23.8096ZM140.35 16.3526H141.267C142.166 16.3526 142.829 16.2028 143.257 15.9032C143.685 15.6036 143.9 15.1328 143.9 14.4907C143.9 13.8548 143.679 13.4023 143.239 13.1332C142.805 12.8642 142.129 12.7297 141.212 12.7297H140.35V16.3526ZM140.35 18.664V23.8096H137.507V10.4H141.414C143.236 10.4 144.584 10.7332 145.459 11.3997C146.333 12.0601 146.77 13.066 146.77 14.4173C146.77 15.2061 146.553 15.9093 146.119 16.5269C145.685 17.1384 145.07 17.6184 144.276 17.9669C146.293 20.9815 147.608 22.929 148.22 23.8096H145.064L141.863 18.664H140.35Z" fill="#DD0524"/>
<path d="M69.3709 37.1185C69.3709 38.1301 69.004 38.9189 68.2702 39.4849C67.5365 40.051 66.5406 40.334 65.2828 40.334C63.92 40.334 62.8718 40.1584 62.138 39.8073V38.5179C62.6097 38.7171 63.1234 38.8743 63.679 38.9896C64.2345 39.1049 64.7848 39.1626 65.3299 39.1626C66.2209 39.1626 66.8918 38.9949 67.3426 38.6594C67.7933 38.3188 68.0187 37.847 68.0187 37.2443C68.0187 36.846 67.9374 36.521 67.775 36.2694C67.6177 36.0126 67.3504 35.7768 66.973 35.5619C66.6009 35.347 66.0323 35.1033 65.267 34.8307C64.1978 34.4481 63.4326 33.9948 62.9714 33.4706C62.5154 32.9465 62.2874 32.2625 62.2874 31.4187C62.2874 30.5329 62.6202 29.828 63.2859 29.3039C63.9515 28.7798 64.832 28.5177 65.9274 28.5177C67.07 28.5177 68.1209 28.7273 69.08 29.1466L68.6633 30.3102C67.7147 29.9119 66.7922 29.7127 65.896 29.7127C65.1884 29.7127 64.6355 29.8647 64.2371 30.1687C63.8388 30.4727 63.6396 30.8946 63.6396 31.4344C63.6396 31.8328 63.713 32.1603 63.8598 32.4172C64.0065 32.6687 64.2529 32.902 64.5988 33.1169C64.9499 33.3265 65.4845 33.5597 66.2026 33.8166C67.4081 34.2463 68.2362 34.7076 68.6869 35.2002C69.1429 35.6929 69.3709 36.3323 69.3709 37.1185ZM72.8301 40.1768H71.525V31.5602H72.8301V40.1768ZM71.415 29.2253C71.415 28.9265 71.4883 28.709 71.6351 28.5727C71.7819 28.4312 71.9653 28.3605 72.1854 28.3605C72.3951 28.3605 72.5759 28.4312 72.7279 28.5727C72.8799 28.7142 72.9559 28.9318 72.9559 29.2253C72.9559 29.5188 72.8799 29.7389 72.7279 29.8857C72.5759 30.0272 72.3951 30.0979 72.1854 30.0979C71.9653 30.0979 71.7819 30.0272 71.6351 29.8857C71.4883 29.7389 71.415 29.5188 71.415 29.2253ZM82.6495 31.5602V32.3857L81.0535 32.5744C81.2003 32.7578 81.3313 32.9989 81.4466 33.2977C81.5619 33.5912 81.6196 33.924 81.6196 34.2961C81.6196 35.14 81.3313 35.8135 80.7548 36.3166C80.1783 36.8198 79.3868 37.0713 78.3805 37.0713C78.1237 37.0713 77.8826 37.0504 77.6572 37.0085C77.1017 37.302 76.8239 37.6715 76.8239 38.117C76.8239 38.3528 76.9209 38.5284 77.1148 38.6437C77.3087 38.7538 77.6415 38.8088 78.1132 38.8088H79.6384C80.5714 38.8088 81.2868 39.0053 81.7847 39.3984C82.2878 39.7915 82.5394 40.3628 82.5394 41.1123C82.5394 42.0662 82.1568 42.7921 81.3916 43.29C80.6264 43.7932 79.51 44.0448 78.0425 44.0448C76.9156 44.0448 76.0456 43.8351 75.4324 43.4158C74.8244 42.9965 74.5204 42.4043 74.5204 41.6391C74.5204 41.1149 74.6881 40.6616 75.0235 40.279C75.359 39.8964 75.8307 39.6369 76.4387 39.5006C76.2185 39.4011 76.0325 39.2464 75.8805 39.0368C75.7337 38.8271 75.6603 38.5834 75.6603 38.3056C75.6603 37.9912 75.7442 37.716 75.9119 37.4802C76.0796 37.2443 76.3443 37.0163 76.706 36.7962C76.2605 36.6127 75.8962 36.3009 75.6132 35.8606C75.3354 35.4204 75.1965 34.9172 75.1965 34.3512C75.1965 33.4077 75.4795 32.6818 76.0456 32.1734C76.6116 31.6598 77.4135 31.403 78.4513 31.403C78.902 31.403 79.3082 31.4554 79.6699 31.5602H82.6495ZM75.7783 41.6233C75.7783 42.0898 75.9748 42.4436 76.3679 42.6847C76.761 42.9258 77.3244 43.0463 78.0582 43.0463C79.1536 43.0463 79.9634 42.8812 80.4875 42.551C81.0169 42.2261 81.2815 41.7832 81.2815 41.2224C81.2815 40.7559 81.1374 40.431 80.8491 40.2475C80.5609 40.0693 80.0184 39.9802 79.2217 39.9802H77.6572C77.065 39.9802 76.6038 40.1217 76.2736 40.4048C75.9434 40.6878 75.7783 41.094 75.7783 41.6233ZM76.4858 34.3197C76.4858 34.9225 76.6562 35.3784 76.9969 35.6877C77.3375 35.9969 77.8119 36.1515 78.4198 36.1515C79.6935 36.1515 80.3303 35.5331 80.3303 34.2961C80.3303 33.0016 79.6856 32.3543 78.3963 32.3543C77.783 32.3543 77.3113 32.5194 76.9811 32.8496C76.6509 33.1798 76.4858 33.6698 76.4858 34.3197ZM90.3147 40.1768V34.6027C90.3147 33.9004 90.1549 33.3763 89.8352 33.0304C89.5155 32.6845 89.0149 32.5115 88.3336 32.5115C87.4321 32.5115 86.7717 32.7552 86.3524 33.2426C85.9331 33.7301 85.7235 34.5346 85.7235 35.6562V40.1768H84.4184V31.5602H85.4797L85.692 32.7395H85.7549C86.0222 32.315 86.3969 31.9874 86.8791 31.7568C87.3613 31.5209 87.8986 31.403 88.4908 31.403C89.5286 31.403 90.3095 31.6546 90.8336 32.1577C91.3577 32.6556 91.6198 33.4549 91.6198 34.5556V40.1768H90.3147ZM99.7175 31.5602V37.15C99.7175 37.8523 99.8773 38.3764 100.197 38.7223C100.517 39.0682 101.017 39.2412 101.699 39.2412C102.6 39.2412 103.258 38.9949 103.672 38.5022C104.091 38.0095 104.301 37.205 104.301 36.0886V31.5602H105.606V40.1768H104.529L104.34 39.0211H104.269C104.002 39.4456 103.63 39.7706 103.153 39.9959C102.681 40.2213 102.142 40.334 101.534 40.334C100.485 40.334 99.6991 40.085 99.175 39.5871C98.6561 39.0892 98.3967 38.2925 98.3967 37.1971V31.5602H99.7175ZM112.391 40.334C111.83 40.334 111.316 40.2318 110.85 40.0274C110.389 39.8177 110.001 39.498 109.686 39.0682H109.592C109.655 39.5714 109.686 40.0483 109.686 40.4991V44.0448H108.381V31.5602H109.443L109.623 32.7395H109.686C110.022 32.2678 110.412 31.9271 110.858 31.7175C111.303 31.5078 111.814 31.403 112.391 31.403C113.533 31.403 114.414 31.7935 115.032 32.5744C115.656 33.3553 115.968 34.4507 115.968 35.8606C115.968 37.2758 115.651 38.3764 115.017 39.1626C114.388 39.9435 113.512 40.334 112.391 40.334ZM112.202 32.5115C111.321 32.5115 110.685 32.7552 110.292 33.2426C109.899 33.7301 109.697 34.5058 109.686 35.5697V35.8606C109.686 37.0713 109.888 37.9388 110.292 38.4629C110.695 38.9818 111.342 39.2412 112.233 39.2412C112.978 39.2412 113.559 38.9398 113.979 38.3371C114.403 37.7344 114.616 36.9036 114.616 35.8449C114.616 34.7705 114.403 33.9476 113.979 33.3763C113.559 32.7998 112.967 32.5115 112.202 32.5115ZM125.221 39.2569C125.452 39.2569 125.675 39.2412 125.889 39.2098C126.104 39.1731 126.275 39.1364 126.4 39.0997V40.0981C126.259 40.1663 126.049 40.2213 125.771 40.2632C125.499 40.3104 125.253 40.334 125.032 40.334C123.366 40.334 122.532 39.4561 122.532 37.7003V32.5744H121.298V31.9454L122.532 31.403L123.083 29.5633H123.837V31.5602H126.338V32.5744H123.837V37.6453C123.837 38.1641 123.961 38.5625 124.207 38.8403C124.453 39.118 124.791 39.2569 125.221 39.2569ZM135.567 35.8606C135.567 37.2653 135.214 38.3633 134.506 39.1547C133.798 39.9409 132.821 40.334 131.574 40.334C130.803 40.334 130.119 40.1532 129.522 39.7915C128.924 39.4299 128.463 38.911 128.138 38.2349C127.813 37.5588 127.65 36.7674 127.65 35.8606C127.65 34.456 128.002 33.3632 128.704 32.5823C129.406 31.7961 130.381 31.403 131.629 31.403C132.834 31.403 133.791 31.8039 134.498 32.6058C135.211 33.4077 135.567 34.4927 135.567 35.8606ZM129.003 35.8606C129.003 36.9613 129.223 37.7999 129.663 38.3764C130.103 38.9529 130.751 39.2412 131.605 39.2412C132.459 39.2412 133.107 38.9556 133.547 38.3843C133.992 37.8077 134.215 36.9665 134.215 35.8606C134.215 34.7652 133.992 33.9345 133.547 33.3684C133.107 32.7971 132.454 32.5115 131.589 32.5115C130.735 32.5115 130.09 32.7919 129.655 33.3527C129.22 33.9135 129.003 34.7495 129.003 35.8606ZM140.567 43.2036C140.075 43.2036 139.687 43.1328 139.404 42.9913V41.8513C139.776 41.9561 140.164 42.0086 140.567 42.0086C141.086 42.0086 141.479 41.8513 141.747 41.5369C142.019 41.2224 142.155 40.769 142.155 40.1768V28.6828H143.492V40.0667C143.492 41.0625 143.24 41.833 142.737 42.3781C142.234 42.9284 141.511 43.2036 140.567 43.2036ZM151.653 40.1768L151.393 38.9503H151.33C150.9 39.4902 150.471 39.857 150.041 40.051C149.616 40.2397 149.084 40.334 148.445 40.334C147.591 40.334 146.92 40.1139 146.432 39.6736C145.95 39.2333 145.709 38.607 145.709 37.7946C145.709 36.0546 147.101 35.1426 149.884 35.0587L151.346 35.0116V34.4769C151.346 33.8008 151.199 33.3029 150.906 32.9832C150.617 32.6583 150.154 32.4958 149.514 32.4958C148.796 32.4958 147.984 32.7159 147.077 33.1562L146.676 32.1577C147.101 31.9271 147.564 31.7463 148.068 31.6153C148.576 31.4842 149.084 31.4187 149.593 31.4187C150.62 31.4187 151.38 31.6467 151.873 32.1027C152.371 32.5587 152.62 33.2898 152.62 34.2961V40.1768H151.653ZM148.704 39.2569C149.517 39.2569 150.154 39.0342 150.615 38.5887C151.081 38.1432 151.314 37.5195 151.314 36.7176V35.9392L150.009 35.9943C148.972 36.031 148.222 36.1934 147.761 36.4817C147.305 36.7647 147.077 37.2076 147.077 37.8104C147.077 38.2821 147.218 38.6411 147.502 38.8874C147.79 39.1338 148.191 39.2569 148.704 39.2569ZM160.827 40.1768H154.577V39.2884L159.278 32.5744H154.868V31.5602H160.709V32.5744L156.071 39.1626H160.827V40.1768ZM168.359 40.1768H162.109V39.2884L166.81 32.5744H162.4V31.5602H168.241V32.5744L163.602 39.1626H168.359V40.1768ZM169.011 31.5602H170.411L172.298 36.4738C172.712 37.5955 172.969 38.4052 173.068 38.9031H173.131C173.199 38.6358 173.341 38.1799 173.556 37.5352C173.776 36.8853 174.488 34.8936 175.694 31.5602H177.093L173.39 41.3718C173.024 42.3414 172.594 43.028 172.101 43.4315C171.614 43.8404 171.014 44.0448 170.301 44.0448C169.902 44.0448 169.509 44.0002 169.121 43.9111V42.8655C169.41 42.9284 169.732 42.9598 170.088 42.9598C170.985 42.9598 171.624 42.4567 172.007 41.4504L172.486 40.2239L169.011 31.5602ZM189.358 37.1185C189.358 38.1301 188.991 38.9189 188.257 39.4849C187.523 40.051 186.528 40.334 185.27 40.334C183.907 40.334 182.859 40.1584 182.125 39.8073V38.5179C182.597 38.7171 183.11 38.8743 183.666 38.9896C184.221 39.1049 184.772 39.1626 185.317 39.1626C186.208 39.1626 186.879 38.9949 187.329 38.6594C187.78 38.3188 188.006 37.847 188.006 37.2443C188.006 36.846 187.924 36.521 187.762 36.2694C187.605 36.0126 187.337 35.7768 186.96 35.5619C186.588 35.347 186.019 35.1033 185.254 34.8307C184.185 34.4481 183.419 33.9948 182.958 33.4706C182.502 32.9465 182.274 32.2625 182.274 31.4187C182.274 30.5329 182.607 29.828 183.273 29.3039C183.938 28.7798 184.819 28.5177 185.914 28.5177C187.057 28.5177 188.108 28.7273 189.067 29.1466L188.65 30.3102C187.702 29.9119 186.779 29.7127 185.883 29.7127C185.175 29.7127 184.622 29.8647 184.224 30.1687C183.826 30.4727 183.627 30.8946 183.627 31.4344C183.627 31.8328 183.7 32.1603 183.847 32.4172C183.993 32.6687 184.24 32.902 184.586 33.1169C184.937 33.3265 185.471 33.5597 186.189 33.8166C187.395 34.2463 188.223 34.7076 188.674 35.2002C189.13 35.6929 189.358 36.3323 189.358 37.1185ZM195.521 40.334C194.961 40.334 194.447 40.2318 193.981 40.0274C193.519 39.8177 193.131 39.498 192.817 39.0682H192.723C192.786 39.5714 192.817 40.0483 192.817 40.4991V44.0448H191.512V31.5602H192.573L192.754 32.7395H192.817C193.152 32.2678 193.543 31.9271 193.988 31.7175C194.434 31.5078 194.945 31.403 195.521 31.403C196.664 31.403 197.545 31.7935 198.163 32.5744C198.787 33.3553 199.099 34.4507 199.099 35.8606C199.099 37.2758 198.781 38.3764 198.147 39.1626C197.518 39.9435 196.643 40.334 195.521 40.334ZM195.333 32.5115C194.452 32.5115 193.815 32.7552 193.422 33.2426C193.029 33.7301 192.827 34.5058 192.817 35.5697V35.8606C192.817 37.0713 193.019 37.9388 193.422 38.4629C193.826 38.9818 194.473 39.2412 195.364 39.2412C196.108 39.2412 196.69 38.9398 197.11 38.3371C197.534 37.7344 197.746 36.9036 197.746 35.8449C197.746 34.7705 197.534 33.9476 197.11 33.3763C196.69 32.7998 196.098 32.5115 195.333 32.5115ZM202.691 40.1768H201.386V31.5602H202.691V40.1768ZM201.276 29.2253C201.276 28.9265 201.35 28.709 201.496 28.5727C201.643 28.4312 201.827 28.3605 202.047 28.3605C202.256 28.3605 202.437 28.4312 202.589 28.5727C202.741 28.7142 202.817 28.9318 202.817 29.2253C202.817 29.5188 202.741 29.7389 202.589 29.8857C202.437 30.0272 202.256 30.0979 202.047 30.0979C201.827 30.0979 201.643 30.0272 201.496 29.8857C201.35 29.7389 201.276 29.5188 201.276 29.2253ZM211.355 40.1768V34.6027C211.355 33.9004 211.195 33.3763 210.876 33.0304C210.556 32.6845 210.055 32.5115 209.374 32.5115C208.472 32.5115 207.812 32.7552 207.393 33.2426C206.973 33.7301 206.764 34.5346 206.764 35.6562V40.1768H205.459V31.5602H206.52L206.732 32.7395H206.795C207.063 32.315 207.437 31.9874 207.919 31.7568C208.402 31.5209 208.939 31.403 209.531 31.403C210.569 31.403 211.35 31.6546 211.874 32.1577C212.398 32.6556 212.66 33.4549 212.66 34.5556V40.1768H211.355ZM220.907 37.8261C220.907 38.628 220.608 39.2464 220.011 39.6815C219.413 40.1165 218.575 40.334 217.495 40.334C216.353 40.334 215.462 40.1532 214.822 39.7915V38.5808C215.236 38.7905 215.679 38.9556 216.151 39.0761C216.628 39.1967 217.086 39.2569 217.527 39.2569C218.208 39.2569 218.732 39.1495 219.099 38.9346C219.466 38.7145 219.649 38.3816 219.649 37.9361C219.649 37.6007 219.503 37.3151 219.209 37.0792C218.921 36.8381 218.355 36.5551 217.511 36.2301C216.709 35.9314 216.138 35.6719 215.797 35.4518C215.462 35.2264 215.21 34.9722 215.042 34.6892C214.88 34.4062 214.799 34.0681 214.799 33.675C214.799 32.9727 215.084 32.4198 215.656 32.0162C216.227 31.6074 217.01 31.403 218.006 31.403C218.934 31.403 219.841 31.5917 220.726 31.969L220.263 33.0304C219.398 32.674 218.614 32.4958 217.912 32.4958C217.293 32.4958 216.827 32.5927 216.512 32.7867C216.198 32.9806 216.041 33.2479 216.041 33.5886C216.041 33.8192 216.098 34.0157 216.214 34.1782C216.334 34.3407 216.526 34.4953 216.788 34.642C217.05 34.7888 217.553 35.0011 218.297 35.2789C219.319 35.651 220.008 36.0257 220.365 36.4031C220.726 36.7805 220.907 37.2548 220.907 37.8261Z" fill="#5E5E5E"/>
<path d="M276.991 2.0127L290.548 25.4933H283.253L276.991 2.0127Z" fill="#FC0035"/>
<path d="M276.991 48.9736L290.548 25.493H283.253L276.991 48.9736Z" fill="#DD0524"/>
<circle cx="366.571" cy="25.4932" r="25.4932" fill="#FC0035"/>
<path d="M373.278 36.4775H358.752V33.4218L363.968 28.1489C365.513 26.5665 366.522 25.4722 366.996 24.8657C367.469 24.2499 367.811 23.6814 368.019 23.1602C368.228 22.6391 368.332 22.099 368.332 21.54C368.332 20.7062 368.1 20.0855 367.635 19.6781C367.18 19.2707 366.569 19.067 365.802 19.067C364.996 19.067 364.215 19.2517 363.457 19.6213C362.699 19.9908 361.908 20.5167 361.083 21.1989L358.696 18.3705C359.719 17.4988 360.567 16.8829 361.24 16.5229C361.912 16.1628 362.647 15.888 363.443 15.6985C364.238 15.4996 365.129 15.4001 366.115 15.4001C367.413 15.4001 368.559 15.637 369.554 16.1107C370.549 16.5845 371.321 17.2477 371.871 18.1005C372.42 18.9533 372.695 19.9292 372.695 21.0283C372.695 21.9853 372.524 22.8854 372.183 23.7287C371.852 24.5625 371.331 25.42 370.62 26.3012C369.919 27.1824 368.678 28.4379 366.896 30.0676L364.224 32.5833V32.7822H373.278V36.4775Z" fill="white"/>
<path d="M415.196 16.9764C415.196 19.1838 414.566 20.8745 413.306 22.0485C412.053 23.2226 410.24 23.8096 407.867 23.8096H404.07V10.4H408.28C410.469 10.4 412.169 10.9778 413.38 12.1335C414.59 13.2892 415.196 14.9035 415.196 16.9764ZM412.242 17.0497C412.242 14.1697 410.97 12.7297 408.427 12.7297H406.913V21.4615H408.133C410.873 21.4615 412.242 19.9909 412.242 17.0497ZM425.698 23.8096H417.975V10.4H425.698V12.7297H420.818V15.6739H425.358V18.0036H420.818V21.4615H425.698V23.8096ZM431.348 16.7104H432.283C433.158 16.7104 433.812 16.5391 434.246 16.1967C434.68 15.8482 434.897 15.3437 434.897 14.6833C434.897 14.0168 434.714 13.5246 434.347 13.2066C433.986 12.8886 433.418 12.7297 432.641 12.7297H431.348V16.7104ZM437.768 14.5824C437.768 16.0255 437.316 17.1292 436.411 17.8936C435.512 18.6579 434.231 19.0401 432.568 19.0401H431.348V23.8096H428.504V10.4H432.788C434.414 10.4 435.65 10.7515 436.493 11.4547C437.343 12.1518 437.768 13.1944 437.768 14.5824ZM452.471 17.0864C452.471 19.3061 451.921 21.0121 450.82 22.2045C449.72 23.3968 448.142 23.993 446.087 23.993C444.033 23.993 442.455 23.3968 441.355 22.2045C440.254 21.0121 439.704 19.3 439.704 17.0681C439.704 14.8362 440.254 13.1332 441.355 11.9592C442.461 10.7791 444.045 10.189 446.106 10.189C448.166 10.189 449.741 10.7821 450.829 11.9684C451.924 13.1546 452.471 14.8607 452.471 17.0864ZM442.685 17.0864C442.685 18.5845 442.969 19.7127 443.538 20.4709C444.106 21.2292 444.956 21.6083 446.087 21.6083C448.356 21.6083 449.49 20.101 449.49 17.0864C449.49 14.0657 448.362 12.5554 446.106 12.5554C444.975 12.5554 444.122 12.9376 443.547 13.7019C442.972 14.4601 442.685 15.5883 442.685 17.0864ZM463.166 20.0857C463.166 21.2964 462.729 22.2503 461.854 22.9474C460.986 23.6445 459.775 23.993 458.222 23.993C456.791 23.993 455.526 23.724 454.425 23.1859V20.5443C455.33 20.9479 456.094 21.2322 456.718 21.3973C457.348 21.5624 457.922 21.645 458.442 21.645C459.066 21.645 459.543 21.5257 459.873 21.2872C460.209 21.0488 460.378 20.6941 460.378 20.2233C460.378 19.9603 460.304 19.728 460.157 19.5262C460.011 19.3183 459.794 19.1196 459.506 18.93C459.225 18.7405 458.647 18.4378 457.773 18.022C456.953 17.6367 456.339 17.2668 455.929 16.9121C455.519 16.5575 455.192 16.1447 454.948 15.6739C454.703 15.2031 454.581 14.6528 454.581 14.0229C454.581 12.8367 454.981 11.9042 455.782 11.2254C456.589 10.5467 457.702 10.2073 459.121 10.2073C459.818 10.2073 460.482 10.2899 461.111 10.455C461.747 10.6201 462.411 10.8524 463.102 11.1521L462.184 13.3625C461.469 13.069 460.876 12.8642 460.405 12.748C459.94 12.6318 459.482 12.5737 459.029 12.5737C458.491 12.5737 458.078 12.6991 457.791 12.9498C457.504 13.2005 457.36 13.5276 457.36 13.9312C457.36 14.1819 457.418 14.402 457.534 14.5916C457.65 14.775 457.834 14.9554 458.085 15.1328C458.341 15.304 458.944 15.6158 459.891 16.0683C461.145 16.6676 462.004 17.2699 462.469 17.8752C462.934 18.4745 463.166 19.2113 463.166 20.0857ZM465.596 23.8096V10.4H468.44V23.8096H465.596ZM476.988 23.8096H474.145V12.7664H470.504V10.4H480.63V12.7664H476.988V23.8096Z" fill="#DD0524"/>
<path d="M407.744 28.5334C408.74 28.5334 409.683 28.7536 410.574 29.1938L410.095 30.2394C409.288 29.8359 408.509 29.6341 407.76 29.6341C407.115 29.6341 406.628 29.7966 406.298 30.1215C405.973 30.4465 405.81 30.9758 405.81 31.7096V34.0288H409.128V35.0273H405.81V36.7647C405.81 37.2889 405.724 37.7291 405.551 38.0855C405.383 38.4419 405.105 38.7354 404.717 38.966H410.967V40.1768H402.878V39.0682C403.952 38.8219 404.489 38.0593 404.489 36.7805V35.0273H402.933V34.0288H404.489V31.5445C404.489 30.6116 404.783 29.8778 405.37 29.3432C405.957 28.8033 406.748 28.5334 407.744 28.5334ZM419.938 40.1768H412.383V39.0525L415.409 36.01C416.332 35.0771 416.94 34.4114 417.233 34.0131C417.527 33.6148 417.747 33.2269 417.894 32.8496C418.04 32.4722 418.114 32.066 418.114 31.631C418.114 31.0178 417.928 30.5329 417.556 30.1765C417.183 29.8149 416.667 29.6341 416.007 29.6341C415.53 29.6341 415.077 29.7127 414.647 29.8699C414.222 30.0272 413.748 30.3128 413.224 30.7269L412.532 29.8385C413.591 28.958 414.744 28.5177 415.991 28.5177C417.071 28.5177 417.917 28.7955 418.53 29.3511C419.144 29.9014 419.45 30.643 419.45 31.5759C419.45 32.3045 419.246 33.0251 418.837 33.7379C418.428 34.4507 417.663 35.3522 416.541 36.4424L414.026 38.9031V38.966H419.938V40.1768ZM429.215 34.4141C429.215 36.4005 428.9 37.8837 428.271 38.8638C427.648 39.8439 426.691 40.334 425.402 40.334C424.165 40.334 423.224 39.8335 422.579 38.8324C421.935 37.8261 421.612 36.3533 421.612 34.4141C421.612 32.4119 421.924 30.926 422.548 29.9564C423.172 28.9868 424.123 28.502 425.402 28.502C426.649 28.502 427.595 29.0078 428.24 30.0193C428.89 31.0309 429.215 32.4958 429.215 34.4141ZM422.933 34.4141C422.933 36.086 423.13 37.3046 423.523 38.0698C423.916 38.8298 424.542 39.2098 425.402 39.2098C426.272 39.2098 426.901 38.8245 427.289 38.0541C427.682 37.2784 427.878 36.065 427.878 34.4141C427.878 32.7631 427.682 31.555 427.289 30.7898C426.901 30.0193 426.272 29.6341 425.402 29.6341C424.542 29.6341 423.916 30.0141 423.523 30.774C423.13 31.5288 422.933 32.7421 422.933 34.4141ZM443.028 35.8606C443.028 37.2653 442.674 38.3633 441.967 39.1547C441.259 39.9409 440.281 40.334 439.034 40.334C438.264 40.334 437.58 40.1532 436.982 39.7915C436.385 39.4299 435.923 38.911 435.598 38.2349C435.273 37.5588 435.111 36.7674 435.111 35.8606C435.111 34.456 435.462 33.3632 436.165 32.5823C436.867 31.7961 437.842 31.403 439.089 31.403C440.295 31.403 441.251 31.8039 441.959 32.6058C442.671 33.4077 443.028 34.4927 443.028 35.8606ZM436.463 35.8606C436.463 36.9613 436.683 37.7999 437.124 38.3764C437.564 38.9529 438.211 39.2412 439.066 39.2412C439.92 39.2412 440.567 38.9556 441.007 38.3843C441.453 37.8077 441.676 36.9665 441.676 35.8606C441.676 34.7652 441.453 33.9345 441.007 33.3684C440.567 32.7971 439.915 32.5115 439.05 32.5115C438.195 32.5115 437.551 32.7919 437.116 33.3527C436.681 33.9135 436.463 34.7495 436.463 35.8606ZM449.254 31.403C449.637 31.403 449.98 31.4344 450.284 31.4973L450.103 32.708C449.747 32.6294 449.433 32.5901 449.16 32.5901C448.463 32.5901 447.865 32.8731 447.368 33.4392C446.875 34.0052 446.629 34.7102 446.629 35.554V40.1768H445.324V31.5602H446.401L446.55 33.1562H446.613C446.933 32.5954 447.318 32.163 447.769 31.859C448.219 31.555 448.715 31.403 449.254 31.403ZM467.061 40.1768V34.5713C467.061 33.8847 466.915 33.3711 466.621 33.0304C466.328 32.6845 465.872 32.5115 465.253 32.5115C464.441 32.5115 463.841 32.7447 463.453 33.2112C463.065 33.6777 462.871 34.3957 462.871 35.3653V40.1768H461.566V34.5713C461.566 33.8847 461.419 33.3711 461.126 33.0304C460.832 32.6845 460.374 32.5115 459.75 32.5115C458.932 32.5115 458.332 32.7578 457.95 33.2505C457.572 33.7379 457.384 34.5398 457.384 35.6562V40.1768H456.078V31.5602H457.14L457.352 32.7395H457.415C457.661 32.3202 458.007 31.9926 458.453 31.7568C458.903 31.5209 459.407 31.403 459.962 31.403C461.309 31.403 462.19 31.8904 462.604 32.8653H462.667C462.923 32.4145 463.296 32.0581 463.783 31.7961C464.27 31.534 464.826 31.403 465.45 31.403C466.425 31.403 467.153 31.6546 467.635 32.1577C468.123 32.6556 468.366 33.4549 468.366 34.5556V40.1768H467.061ZM478.5 35.8606C478.5 37.2653 478.147 38.3633 477.439 39.1547C476.731 39.9409 475.754 40.334 474.507 40.334C473.736 40.334 473.052 40.1532 472.455 39.7915C471.857 39.4299 471.396 38.911 471.071 38.2349C470.746 37.5588 470.583 36.7674 470.583 35.8606C470.583 34.456 470.935 33.3632 471.637 32.5823C472.339 31.7961 473.314 31.403 474.562 31.403C475.767 31.403 476.724 31.8039 477.431 32.6058C478.144 33.4077 478.5 34.4927 478.5 35.8606ZM471.936 35.8606C471.936 36.9613 472.156 37.7999 472.596 38.3764C473.036 38.9529 473.684 39.2412 474.538 39.2412C475.392 39.2412 476.04 38.9556 476.48 38.3843C476.925 37.8077 477.148 36.9665 477.148 35.8606C477.148 34.7652 476.925 33.9345 476.48 33.3684C476.04 32.7971 475.387 32.5115 474.522 32.5115C473.668 32.5115 473.023 32.7919 472.588 33.3527C472.153 33.9135 471.936 34.7495 471.936 35.8606ZM484.727 31.403C485.109 31.403 485.453 31.4344 485.757 31.4973L485.576 32.708C485.22 32.6294 484.905 32.5901 484.633 32.5901C483.935 32.5901 483.338 32.8731 482.84 33.4392C482.347 34.0052 482.101 34.7102 482.101 35.554V40.1768H480.796V31.5602H481.873L482.022 33.1562H482.085C482.405 32.5954 482.79 32.163 483.241 31.859C483.692 31.555 484.187 31.403 484.727 31.403ZM491.008 40.334C489.735 40.334 488.729 39.9461 487.99 39.1704C487.256 38.3947 486.889 37.3177 486.889 35.9392C486.889 34.5503 487.23 33.4471 487.911 32.6294C488.598 31.8118 489.517 31.403 490.67 31.403C491.75 31.403 492.604 31.7594 493.233 32.4722C493.862 33.1798 494.177 34.1153 494.177 35.2789V36.1043H488.241C488.267 37.1159 488.522 37.8837 489.004 38.4079C489.491 38.932 490.175 39.194 491.056 39.194C491.983 39.194 492.901 39.0001 493.807 38.6123V39.7758C493.346 39.975 492.908 40.1165 492.494 40.2003C492.086 40.2894 491.59 40.334 491.008 40.334ZM490.655 32.4958C489.963 32.4958 489.41 32.7211 488.996 33.1719C488.587 33.6226 488.346 34.2463 488.273 35.043H492.777C492.777 34.2201 492.594 33.5912 492.227 33.1562C491.86 32.7159 491.336 32.4958 490.655 32.4958Z" fill="#5E5E5E"/>
<path d="M550.069 2.0127L563.625 25.4933H556.33L550.069 2.0127Z" fill="#FC0035"/>
<path d="M550.069 48.9736L563.625 25.493H556.33L550.069 48.9736Z" fill="#DD0524"/>
<circle cx="639.649" cy="25.4932" r="25.4932" fill="#FC0035"/>
<path d="M645.545 20.3461C645.545 21.6442 645.152 22.7481 644.366 23.6577C643.579 24.5673 642.475 25.1926 641.054 25.5337V25.619C642.731 25.8275 644.001 26.3391 644.863 27.154C645.725 27.9594 646.156 29.049 646.156 30.4229C646.156 32.4222 645.432 33.9808 643.982 35.0989C642.532 36.2075 640.462 36.7618 637.771 36.7618C635.516 36.7618 633.517 36.3875 631.773 35.639V31.901C632.579 32.3085 633.464 32.6401 634.431 32.8959C635.397 33.1518 636.354 33.2797 637.302 33.2797C638.752 33.2797 639.822 33.0333 640.514 32.5406C641.206 32.0479 641.551 31.2567 641.551 30.1671C641.551 29.1912 641.154 28.4995 640.358 28.092C639.562 27.6846 638.292 27.4809 636.549 27.4809H634.971V24.1125H636.577C638.188 24.1125 639.363 23.904 640.102 23.4871C640.85 23.0607 641.225 22.3359 641.225 21.3126C641.225 19.7397 640.239 18.9533 638.268 18.9533C637.586 18.9533 636.89 19.067 636.179 19.2944C635.478 19.5218 634.696 19.915 633.834 20.474L631.802 17.4467C633.697 16.0823 635.956 15.4001 638.581 15.4001C640.732 15.4001 642.428 15.8359 643.669 16.7076C644.92 17.5794 645.545 18.7922 645.545 20.3461Z" fill="white"/>
<path d="M693.588 16.2793H698.908V23.2317C698.046 23.513 697.232 23.7087 696.468 23.8187C695.71 23.9349 694.933 23.993 694.138 23.993C692.114 23.993 690.567 23.3999 689.497 22.2136C688.433 21.0213 687.901 19.3122 687.901 17.0864C687.901 14.9218 688.519 13.2341 689.754 12.0234C690.995 10.8127 692.714 10.2073 694.909 10.2073C696.285 10.2073 697.611 10.4825 698.889 11.0328L697.945 13.3075C696.966 12.8183 695.948 12.5737 694.89 12.5737C693.661 12.5737 692.677 12.9865 691.937 13.812C691.197 14.6375 690.827 15.7473 690.827 17.1414C690.827 18.5968 691.124 19.7096 691.717 20.4801C692.316 21.2444 693.184 21.6266 694.322 21.6266C694.915 21.6266 695.517 21.5655 696.129 21.4432V18.6457H693.588V16.2793ZM709.832 23.8096H702.109V10.4H709.832V12.7297H704.952V15.6739H709.492V18.0036H704.952V21.4615H709.832V23.8096ZM717.812 23.8096H714.968V12.7664H711.327V10.4H721.453V12.7664H717.812V23.8096ZM728.396 10.4H732.569C734.471 10.4 735.85 10.6721 736.706 11.2163C737.568 11.7544 737.999 12.6135 737.999 13.7936C737.999 14.5947 737.81 15.252 737.431 15.7656C737.058 16.2793 736.559 16.5881 735.936 16.692V16.7837C736.786 16.9733 737.397 17.3279 737.77 17.8477C738.149 18.3675 738.339 19.0584 738.339 19.9206C738.339 21.1435 737.895 22.0974 737.009 22.7823C736.128 23.4671 734.93 23.8096 733.413 23.8096H728.396V10.4ZM731.239 15.7106H732.89C733.661 15.7106 734.217 15.5914 734.56 15.3529C734.908 15.1144 735.083 14.72 735.083 14.1697C735.083 13.656 734.893 13.2892 734.514 13.069C734.141 12.8428 733.548 12.7297 732.735 12.7297H731.239V15.7106ZM731.239 17.9669V21.4615H733.092C733.875 21.4615 734.453 21.3117 734.826 21.0121C735.199 20.7125 735.385 20.2539 735.385 19.6363C735.385 18.5234 734.59 17.9669 733.001 17.9669H731.239ZM753.188 17.0864C753.188 19.3061 752.638 21.0121 751.537 22.2045C750.437 23.3968 748.859 23.993 746.805 23.993C744.75 23.993 743.172 23.3968 742.072 22.2045C740.971 21.0121 740.421 19.3 740.421 17.0681C740.421 14.8362 740.971 13.1332 742.072 11.9592C743.179 10.7791 744.762 10.189 746.823 10.189C748.884 10.189 750.458 10.7821 751.547 11.9684C752.641 13.1546 753.188 14.8607 753.188 17.0864ZM743.402 17.0864C743.402 18.5845 743.686 19.7127 744.255 20.4709C744.823 21.2292 745.673 21.6083 746.805 21.6083C749.073 21.6083 750.207 20.101 750.207 17.0864C750.207 14.0657 749.079 12.5554 746.823 12.5554C745.692 12.5554 744.839 12.9376 744.264 13.7019C743.689 14.4601 743.402 15.5883 743.402 17.0864ZM767.864 23.8096H764.25L758.416 13.6652H758.334C758.45 15.4568 758.508 16.7348 758.508 17.4992V23.8096H755.967V10.4H759.554L765.378 20.4434H765.442C765.351 18.7007 765.305 17.4686 765.305 16.747V10.4H767.864V23.8096ZM782.163 10.4V19.0768C782.163 20.0674 781.94 20.9356 781.493 21.6816C781.053 22.4276 780.414 22.9994 779.576 23.3968C778.739 23.7943 777.748 23.993 776.605 23.993C774.88 23.993 773.541 23.5528 772.587 22.6722C771.633 21.7856 771.157 20.5749 771.157 19.0401V10.4H773.991V18.609C773.991 19.6424 774.199 20.4006 774.614 20.8837C775.03 21.3667 775.718 21.6083 776.678 21.6083C777.608 21.6083 778.28 21.3667 778.696 20.8837C779.118 20.3945 779.329 19.6301 779.329 18.5906V10.4H782.163ZM793.362 20.0857C793.362 21.2964 792.925 22.2503 792.051 22.9474C791.182 23.6445 789.972 23.993 788.418 23.993C786.988 23.993 785.722 23.724 784.621 23.1859V20.5443C785.526 20.9479 786.29 21.2322 786.914 21.3973C787.544 21.5624 788.119 21.645 788.639 21.645C789.262 21.645 789.739 21.5257 790.069 21.2872C790.406 21.0488 790.574 20.6941 790.574 20.2233C790.574 19.9603 790.5 19.728 790.354 19.5262C790.207 19.3183 789.99 19.1196 789.703 18.93C789.421 18.7405 788.843 18.4378 787.969 18.022C787.15 17.6367 786.535 17.2668 786.125 16.9121C785.716 16.5575 785.389 16.1447 785.144 15.6739C784.899 15.2031 784.777 14.6528 784.777 14.0229C784.777 12.8367 785.178 11.9042 785.979 11.2254C786.786 10.5467 787.899 10.2073 789.317 10.2073C790.014 10.2073 790.678 10.2899 791.308 10.455C791.944 10.6201 792.607 10.8524 793.298 11.1521L792.381 13.3625C791.665 13.069 791.072 12.8642 790.601 12.748C790.137 12.6318 789.678 12.5737 789.226 12.5737C788.687 12.5737 788.275 12.6991 787.987 12.9498C787.7 13.2005 787.556 13.5276 787.556 13.9312C787.556 14.1819 787.614 14.402 787.731 14.5916C787.847 14.775 788.03 14.9554 788.281 15.1328C788.538 15.304 789.14 15.6158 790.088 16.0683C791.341 16.6676 792.2 17.2699 792.665 17.8752C793.13 18.4745 793.362 19.2113 793.362 20.0857Z" fill="#DD0524"/>
<path d="M693.445 34.1546H697.352V39.7444C696.745 39.9383 696.126 40.085 695.497 40.1846C694.868 40.2842 694.14 40.334 693.312 40.334C691.571 40.334 690.217 39.8177 689.247 38.7852C688.277 37.7475 687.793 36.2956 687.793 34.4298C687.793 33.2348 688.031 32.1892 688.508 31.2929C688.99 30.3914 689.682 29.7048 690.583 29.2331C691.485 28.7562 692.541 28.5177 693.752 28.5177C694.978 28.5177 696.121 28.7431 697.18 29.1938L696.661 30.3731C695.623 29.9328 694.624 29.7127 693.665 29.7127C692.266 29.7127 691.173 30.1294 690.387 30.9627C689.601 31.7961 689.208 32.9518 689.208 34.4298C689.208 35.9812 689.585 37.1578 690.34 37.9597C691.1 38.7616 692.213 39.1626 693.681 39.1626C694.478 39.1626 695.256 39.0709 696.016 38.8874V35.3496H693.445V34.1546ZM703.563 40.334C702.29 40.334 701.283 39.9461 700.544 39.1704C699.811 38.3947 699.444 37.3177 699.444 35.9392C699.444 34.5503 699.784 33.4471 700.466 32.6294C701.152 31.8118 702.072 31.403 703.225 31.403C704.305 31.403 705.159 31.7594 705.788 32.4722C706.417 33.1798 706.732 34.1153 706.732 35.2789V36.1043H700.796C700.822 37.1159 701.076 37.8837 701.559 38.4079C702.046 38.932 702.73 39.194 703.61 39.194C704.538 39.194 705.455 39.0001 706.362 38.6123V39.7758C705.901 39.975 705.463 40.1165 705.049 40.2003C704.64 40.2894 704.145 40.334 703.563 40.334ZM703.21 32.4958C702.518 32.4958 701.965 32.7211 701.551 33.1719C701.142 33.6226 700.901 34.2463 700.827 35.043H705.332C705.332 34.2201 705.149 33.5912 704.782 33.1562C704.415 32.7159 703.891 32.4958 703.21 32.4958ZM711.747 39.2569C711.978 39.2569 712.201 39.2412 712.416 39.2098C712.631 39.1731 712.801 39.1364 712.927 39.0997V40.0981C712.785 40.1663 712.576 40.2213 712.298 40.2632C712.025 40.3104 711.779 40.334 711.559 40.334C709.892 40.334 709.059 39.4561 709.059 37.7003V32.5744H707.824V31.9454L709.059 31.403L709.609 29.5633H710.364V31.5602H712.864V32.5744H710.364V37.6453C710.364 38.1641 710.487 38.5625 710.733 38.8403C710.98 39.118 711.318 39.2569 711.747 39.2569ZM717.471 31.5602H718.87L720.757 36.4738C721.171 37.5955 721.428 38.4052 721.528 38.9031H721.59C721.659 38.6358 721.8 38.1799 722.015 37.5352C722.235 36.8853 722.948 34.8936 724.153 31.5602H725.553L721.85 41.3718C721.483 42.3414 721.053 43.028 720.561 43.4315C720.073 43.8404 719.473 44.0448 718.76 44.0448C718.362 44.0448 717.969 44.0002 717.581 43.9111V42.8655C717.869 42.9284 718.192 42.9598 718.548 42.9598C719.444 42.9598 720.084 42.4567 720.466 41.4504L720.946 40.2239L717.471 31.5602ZM734.389 35.8606C734.389 37.2653 734.036 38.3633 733.328 39.1547C732.621 39.9409 731.643 40.334 730.396 40.334C729.625 40.334 728.941 40.1532 728.344 39.7915C727.746 39.4299 727.285 38.911 726.96 38.2349C726.635 37.5588 726.473 36.7674 726.473 35.8606C726.473 34.456 726.824 33.3632 727.526 32.5823C728.228 31.7961 729.203 31.403 730.451 31.403C731.656 31.403 732.613 31.8039 733.32 32.6058C734.033 33.4077 734.389 34.4927 734.389 35.8606ZM727.825 35.8606C727.825 36.9613 728.045 37.7999 728.485 38.3764C728.926 38.9529 729.573 39.2412 730.427 39.2412C731.281 39.2412 731.929 38.9556 732.369 38.3843C732.814 37.8077 733.037 36.9665 733.037 35.8606C733.037 34.7652 732.814 33.9345 732.369 33.3684C731.929 32.7971 731.276 32.5115 730.411 32.5115C729.557 32.5115 728.912 32.7919 728.477 33.3527C728.042 33.9135 727.825 34.7495 727.825 35.8606ZM737.912 31.5602V37.15C737.912 37.8523 738.071 38.3764 738.391 38.7223C738.711 39.0682 739.211 39.2412 739.893 39.2412C740.794 39.2412 741.452 38.9949 741.866 38.5022C742.285 38.0095 742.495 37.205 742.495 36.0886V31.5602H743.8V40.1768H742.723L742.534 39.0211H742.464C742.196 39.4456 741.824 39.7706 741.347 39.9959C740.875 40.2213 740.336 40.334 739.728 40.334C738.679 40.334 737.893 40.085 737.369 39.5871C736.85 39.0892 736.591 38.2925 736.591 37.1971V31.5602H737.912ZM750.506 31.403C750.889 31.403 751.232 31.4344 751.536 31.4973L751.355 32.708C750.999 32.6294 750.684 32.5901 750.412 32.5901C749.715 32.5901 749.117 32.8731 748.619 33.4392C748.127 34.0052 747.88 34.7102 747.88 35.554V40.1768H746.575V31.5602H747.652L747.802 33.1562H747.865C748.184 32.5954 748.57 32.163 749.02 31.859C749.471 31.555 749.966 31.403 750.506 31.403ZM767.558 40.1768H766.238L763.918 32.4801C763.808 32.1394 763.685 31.7096 763.549 31.1907C763.413 30.6718 763.342 30.36 763.337 30.2552C763.221 30.947 763.038 31.7044 762.786 32.5272L760.538 40.1768H759.217L756.159 28.6828H757.574L759.39 35.782C759.642 36.7778 759.825 37.6793 759.94 38.4865C760.082 37.5273 760.291 36.5892 760.569 35.6719L762.629 28.6828H764.044L766.206 35.7348C766.458 36.5472 766.67 37.4644 766.843 38.4865C766.943 37.7422 767.131 36.8355 767.409 35.7663L769.217 28.6828H770.632L767.558 40.1768ZM775.876 40.334C774.603 40.334 773.596 39.9461 772.857 39.1704C772.124 38.3947 771.757 37.3177 771.757 35.9392C771.757 34.5503 772.097 33.4471 772.779 32.6294C773.465 31.8118 774.385 31.403 775.538 31.403C776.618 31.403 777.472 31.7594 778.101 32.4722C778.73 33.1798 779.045 34.1153 779.045 35.2789V36.1043H773.109C773.135 37.1159 773.389 37.8837 773.871 38.4079C774.359 38.932 775.043 39.194 775.923 39.194C776.851 39.194 777.768 39.0001 778.675 38.6123V39.7758C778.214 39.975 777.776 40.1165 777.362 40.2003C776.953 40.2894 776.458 40.334 775.876 40.334ZM775.522 32.4958C774.831 32.4958 774.278 32.7211 773.864 33.1719C773.455 33.6226 773.214 34.2463 773.14 35.043H777.645C777.645 34.2201 777.462 33.5912 777.095 33.1562C776.728 32.7159 776.204 32.4958 775.522 32.4958ZM782.582 40.1768H781.277V27.9438H782.582V40.1768ZM788.793 40.334C787.546 40.334 786.579 39.9514 785.892 39.1862C785.211 38.4157 784.87 37.3282 784.87 35.9235C784.87 34.4822 785.216 33.3684 785.908 32.5823C786.605 31.7961 787.596 31.403 788.88 31.403C789.294 31.403 789.708 31.4475 790.122 31.5366C790.536 31.6257 790.861 31.7306 791.097 31.8511L790.696 32.9596C790.407 32.8443 790.093 32.75 789.752 32.6766C789.412 32.598 789.11 32.5587 788.848 32.5587C787.098 32.5587 786.222 33.675 786.222 35.9078C786.222 36.9665 786.435 37.7789 786.859 38.345C787.289 38.911 787.923 39.194 788.762 39.194C789.48 39.194 790.216 39.0394 790.971 38.7302V39.8859C790.394 40.1846 789.668 40.334 788.793 40.334ZM800.46 35.8606C800.46 37.2653 800.106 38.3633 799.399 39.1547C798.691 39.9409 797.714 40.334 796.466 40.334C795.696 40.334 795.012 40.1532 794.414 39.7915C793.817 39.4299 793.356 38.911 793.031 38.2349C792.706 37.5588 792.543 36.7674 792.543 35.8606C792.543 34.456 792.894 33.3632 793.597 32.5823C794.299 31.7961 795.274 31.403 796.521 31.403C797.727 31.403 798.683 31.8039 799.391 32.6058C800.104 33.4077 800.46 34.4927 800.46 35.8606ZM793.895 35.8606C793.895 36.9613 794.116 37.7999 794.556 38.3764C794.996 38.9529 795.643 39.2412 796.498 39.2412C797.352 39.2412 797.999 38.9556 798.44 38.3843C798.885 37.8077 799.108 36.9665 799.108 35.8606C799.108 34.7652 798.885 33.9345 798.44 33.3684C797.999 32.7971 797.347 32.5115 796.482 32.5115C795.628 32.5115 794.983 32.7919 794.548 33.3527C794.113 33.9135 793.895 34.7495 793.895 35.8606ZM813.739 40.1768V34.5713C813.739 33.8847 813.592 33.3711 813.298 33.0304C813.005 32.6845 812.549 32.5115 811.93 32.5115C811.118 32.5115 810.518 32.7447 810.13 33.2112C809.742 33.6777 809.548 34.3957 809.548 35.3653V40.1768H808.243V34.5713C808.243 33.8847 808.097 33.3711 807.803 33.0304C807.509 32.6845 807.051 32.5115 806.427 32.5115C805.61 32.5115 805.009 32.7578 804.627 33.2505C804.249 33.7379 804.061 34.5398 804.061 35.6562V40.1768H802.756V31.5602H803.817L804.029 32.7395H804.092C804.339 32.3202 804.684 31.9926 805.13 31.7568C805.581 31.5209 806.084 31.403 806.639 31.403C807.986 31.403 808.867 31.8904 809.281 32.8653H809.344C809.601 32.4145 809.973 32.0581 810.46 31.7961C810.948 31.534 811.503 31.403 812.127 31.403C813.102 31.403 813.83 31.6546 814.313 32.1577C814.8 32.6556 815.044 33.4549 815.044 34.5556V40.1768H813.739ZM821.38 40.334C820.107 40.334 819.1 39.9461 818.361 39.1704C817.628 38.3947 817.261 37.3177 817.261 35.9392C817.261 34.5503 817.601 33.4471 818.283 32.6294C818.969 31.8118 819.889 31.403 821.042 31.403C822.122 31.403 822.976 31.7594 823.605 32.4722C824.234 33.1798 824.549 34.1153 824.549 35.2789V36.1043H818.613C818.639 37.1159 818.893 37.8837 819.376 38.4079C819.863 38.932 820.547 39.194 821.428 39.194C822.355 39.194 823.272 39.0001 824.179 38.6123V39.7758C823.718 39.975 823.28 40.1165 822.866 40.2003C822.457 40.2894 821.962 40.334 821.38 40.334ZM821.027 32.4958C820.335 32.4958 819.782 32.7211 819.368 33.1719C818.959 33.6226 818.718 34.2463 818.644 35.043H823.149C823.149 34.2201 822.966 33.5912 822.599 33.1562C822.232 32.7159 821.708 32.4958 821.027 32.4958ZM831.16 28.6828H834.407C835.933 28.6828 837.036 28.9108 837.717 29.3668C838.399 29.8228 838.739 30.5434 838.739 31.5288C838.739 32.2101 838.548 32.7736 838.165 33.2191C837.788 33.6593 837.235 33.945 836.506 34.076V34.1546C838.252 34.4534 839.124 35.3706 839.124 36.9062C839.124 37.9335 838.776 38.7354 838.079 39.312C837.387 39.8885 836.417 40.1768 835.17 40.1768H831.16V28.6828ZM832.497 33.6043H834.698C835.642 33.6043 836.32 33.4575 836.734 33.164C837.148 32.8653 837.356 32.3647 837.356 31.6624C837.356 31.0178 837.125 30.5539 836.664 30.2709C836.202 29.9826 835.469 29.8385 834.462 29.8385H832.497V33.6043ZM832.497 34.7364V39.0368H834.895C835.822 39.0368 836.52 38.8586 836.986 38.5022C837.458 38.1406 837.694 37.5771 837.694 36.8119C837.694 36.0991 837.452 35.575 836.97 35.2395C836.493 34.9041 835.765 34.7364 834.785 34.7364H832.497ZM848.842 35.8606C848.842 37.2653 848.488 38.3633 847.78 39.1547C847.073 39.9409 846.095 40.334 844.848 40.334C844.077 40.334 843.393 40.1532 842.796 39.7915C842.198 39.4299 841.737 38.911 841.412 38.2349C841.087 37.5588 840.925 36.7674 840.925 35.8606C840.925 34.456 841.276 33.3632 841.978 32.5823C842.681 31.7961 843.655 31.403 844.903 31.403C846.108 31.403 847.065 31.8039 847.772 32.6058C848.485 33.4077 848.842 34.4927 848.842 35.8606ZM842.277 35.8606C842.277 36.9613 842.497 37.7999 842.937 38.3764C843.378 38.9529 844.025 39.2412 844.879 39.2412C845.734 39.2412 846.381 38.9556 846.821 38.3843C847.267 37.8077 847.489 36.9665 847.489 35.8606C847.489 34.7652 847.267 33.9345 846.821 33.3684C846.381 32.7971 845.728 32.5115 844.864 32.5115C844.009 32.5115 843.365 32.7919 842.93 33.3527C842.495 33.9135 842.277 34.7495 842.277 35.8606ZM857.034 40.1768V34.6027C857.034 33.9004 856.874 33.3763 856.554 33.0304C856.234 32.6845 855.734 32.5115 855.052 32.5115C854.151 32.5115 853.491 32.7552 853.071 33.2426C852.652 33.7301 852.442 34.5346 852.442 35.6562V40.1768H851.137V31.5602H852.199L852.411 32.7395H852.474C852.741 32.315 853.116 31.9874 853.598 31.7568C854.08 31.5209 854.617 31.403 855.21 31.403C856.247 31.403 857.028 31.6546 857.552 32.1577C858.077 32.6556 858.339 33.4549 858.339 34.5556V40.1768H857.034ZM862.254 31.5602V37.15C862.254 37.8523 862.414 38.3764 862.733 38.7223C863.053 39.0682 863.554 39.2412 864.235 39.2412C865.137 39.2412 865.794 38.9949 866.208 38.5022C866.628 38.0095 866.837 37.205 866.837 36.0886V31.5602H868.142V40.1768H867.065L866.877 39.0211H866.806C866.539 39.4456 866.166 39.7706 865.689 39.9959C865.218 40.2213 864.678 40.334 864.07 40.334C863.022 40.334 862.236 40.085 861.711 39.5871C861.193 39.0892 860.933 38.2925 860.933 37.1971V31.5602H862.254ZM876.476 37.8261C876.476 38.628 876.177 39.2464 875.58 39.6815C874.982 40.1165 874.144 40.334 873.064 40.334C871.921 40.334 871.03 40.1532 870.391 39.7915V38.5808C870.805 38.7905 871.248 38.9556 871.719 39.0761C872.196 39.1967 872.655 39.2569 873.095 39.2569C873.777 39.2569 874.301 39.1495 874.668 38.9346C875.035 38.7145 875.218 38.3816 875.218 37.9361C875.218 37.6007 875.071 37.3151 874.778 37.0792C874.489 36.8381 873.923 36.5551 873.08 36.2301C872.278 35.9314 871.706 35.6719 871.366 35.4518C871.03 35.2264 870.779 34.9722 870.611 34.6892C870.448 34.4062 870.367 34.0681 870.367 33.675C870.367 32.9727 870.653 32.4198 871.224 32.0162C871.795 31.6074 872.579 31.403 873.575 31.403C874.503 31.403 875.409 31.5917 876.295 31.969L875.831 33.0304C874.966 32.674 874.183 32.4958 873.481 32.4958C872.862 32.4958 872.396 32.5927 872.081 32.7867C871.767 32.9806 871.609 33.2479 871.609 33.5886C871.609 33.8192 871.667 34.0157 871.782 34.1782C871.903 34.3407 872.094 34.4953 872.356 34.642C872.618 34.7888 873.121 35.0011 873.866 35.2789C874.888 35.651 875.577 36.0257 875.933 36.4031C876.295 36.7805 876.476 37.2548 876.476 37.8261Z" fill="#5E5E5E"/>
</svg>
