<svg width="291" height="51" viewBox="0 0 291 51" fill="none" xmlns="http://www.w3.org/2000/svg">
<circle cx="25.4932" cy="25.4932" r="25.4932" fill="#FC0035"/>
<path d="M28.5332 36.4775H24.1415V24.4536L24.1841 22.478L24.2552 20.3177C23.5256 21.0473 23.0187 21.5258 22.7344 21.7532L20.3467 23.6719L18.229 21.0283L24.9232 15.6985H28.5332V36.4775Z" fill="white"/>
<path d="M65.8357 16.3526H66.7529C67.6518 16.3526 68.3152 16.2028 68.7433 15.9032C69.1713 15.6036 69.3853 15.1328 69.3853 14.4907C69.3853 13.8548 69.1652 13.4023 68.7249 13.1332C68.2908 12.8642 67.6151 12.7297 66.6979 12.7297H65.8357V16.3526ZM65.8357 18.664V23.8096H62.9924V10.4H66.8997C68.7219 10.4 70.0702 10.7332 70.9446 11.3997C71.819 12.0601 72.2562 13.066 72.2562 14.4173C72.2562 15.2061 72.0391 15.9093 71.605 16.5269C71.1708 17.1384 70.5563 17.6184 69.7614 17.9669C71.7792 20.9815 73.0939 22.929 73.7054 23.8096H70.5502L67.3491 18.664H65.8357ZM83.116 23.8096H75.393V10.4H83.116V12.7297H78.2364V15.6739H82.7766V18.0036H78.2364V21.4615H83.116V23.8096ZM91.0131 16.2793H96.333V23.2317C95.4708 23.513 94.6575 23.7087 93.8932 23.8187C93.135 23.9349 92.3584 23.993 91.5635 23.993C89.5395 23.993 87.9925 23.3999 86.9224 22.2136C85.8584 21.0213 85.3264 19.3122 85.3264 17.0864C85.3264 14.9218 85.944 13.2341 87.1792 12.0234C88.4205 10.8127 90.1387 10.2073 92.3339 10.2073C93.7097 10.2073 95.0366 10.4825 96.3146 11.0328L95.3699 13.3075C94.3915 12.8183 93.3734 12.5737 92.3156 12.5737C91.0865 12.5737 90.102 12.9865 89.3622 13.812C88.6223 14.6375 88.2523 15.7473 88.2523 17.1414C88.2523 18.5968 88.5489 19.7096 89.142 20.4801C89.7413 21.2444 90.6096 21.6266 91.7469 21.6266C92.34 21.6266 92.9423 21.5655 93.5538 21.4432V18.6457H91.0131V16.2793ZM99.534 23.8096V10.4H102.377V23.8096H99.534ZM113.668 20.0857C113.668 21.2964 113.231 22.2503 112.357 22.9474C111.488 23.6445 110.278 23.993 108.724 23.993C107.294 23.993 106.028 23.724 104.927 23.1859V20.5443C105.832 20.9479 106.597 21.2322 107.22 21.3973C107.85 21.5624 108.425 21.645 108.945 21.645C109.568 21.645 110.045 21.5257 110.375 21.2872C110.712 21.0488 110.88 20.6941 110.88 20.2233C110.88 19.9603 110.807 19.728 110.66 19.5262C110.513 19.3183 110.296 19.1196 110.009 18.93C109.727 18.7405 109.149 18.4378 108.275 18.022C107.456 17.6367 106.841 17.2668 106.431 16.9121C106.022 16.5575 105.695 16.1447 105.45 15.6739C105.205 15.2031 105.083 14.6528 105.083 14.0229C105.083 12.8367 105.484 11.9042 106.285 11.2254C107.092 10.5467 108.205 10.2073 109.623 10.2073C110.32 10.2073 110.984 10.2899 111.614 10.455C112.25 10.6201 112.913 10.8524 113.604 11.1521L112.687 13.3625C111.971 13.069 111.378 12.8642 110.907 12.748C110.443 12.6318 109.984 12.5737 109.532 12.5737C108.994 12.5737 108.581 12.6991 108.293 12.9498C108.006 13.2005 107.862 13.5276 107.862 13.9312C107.862 14.1819 107.92 14.402 108.037 14.5916C108.153 14.775 108.336 14.9554 108.587 15.1328C108.844 15.304 109.446 15.6158 110.394 16.0683C111.647 16.6676 112.506 17.2699 112.971 17.8752C113.436 18.4745 113.668 19.2113 113.668 20.0857ZM121.272 23.8096H118.429V12.7664H114.787V10.4H124.913V12.7664H121.272V23.8096ZM134.7 23.8096H126.977V10.4H134.7V12.7297H129.82V15.6739H134.361V18.0036H129.82V21.4615H134.7V23.8096ZM140.35 16.3526H141.267C142.166 16.3526 142.829 16.2028 143.257 15.9032C143.685 15.6036 143.9 15.1328 143.9 14.4907C143.9 13.8548 143.679 13.4023 143.239 13.1332C142.805 12.8642 142.129 12.7297 141.212 12.7297H140.35V16.3526ZM140.35 18.664V23.8096H137.507V10.4H141.414C143.236 10.4 144.584 10.7332 145.459 11.3997C146.333 12.0601 146.77 13.066 146.77 14.4173C146.77 15.2061 146.553 15.9093 146.119 16.5269C145.685 17.1384 145.07 17.6184 144.276 17.9669C146.293 20.9815 147.608 22.929 148.22 23.8096H145.064L141.863 18.664H140.35Z" fill="#DD0524"/>
<path d="M69.3709 37.1185C69.3709 38.1301 69.004 38.9189 68.2702 39.4849C67.5365 40.051 66.5406 40.334 65.2828 40.334C63.92 40.334 62.8718 40.1584 62.138 39.8073V38.5179C62.6097 38.7171 63.1234 38.8743 63.679 38.9896C64.2345 39.1049 64.7848 39.1626 65.3299 39.1626C66.2209 39.1626 66.8918 38.9949 67.3426 38.6594C67.7933 38.3188 68.0187 37.847 68.0187 37.2443C68.0187 36.846 67.9374 36.521 67.775 36.2694C67.6177 36.0126 67.3504 35.7768 66.973 35.5619C66.6009 35.347 66.0323 35.1033 65.267 34.8307C64.1978 34.4481 63.4326 33.9948 62.9714 33.4706C62.5154 32.9465 62.2874 32.2625 62.2874 31.4187C62.2874 30.5329 62.6202 29.828 63.2859 29.3039C63.9515 28.7798 64.832 28.5177 65.9274 28.5177C67.07 28.5177 68.1209 28.7273 69.08 29.1466L68.6633 30.3102C67.7147 29.9119 66.7922 29.7127 65.896 29.7127C65.1884 29.7127 64.6355 29.8647 64.2371 30.1687C63.8388 30.4727 63.6396 30.8946 63.6396 31.4344C63.6396 31.8328 63.713 32.1603 63.8598 32.4172C64.0065 32.6687 64.2529 32.902 64.5988 33.1169C64.9499 33.3265 65.4845 33.5597 66.2026 33.8166C67.4081 34.2463 68.2362 34.7076 68.6869 35.2002C69.1429 35.6929 69.3709 36.3323 69.3709 37.1185ZM72.8301 40.1768H71.525V31.5602H72.8301V40.1768ZM71.415 29.2253C71.415 28.9265 71.4883 28.709 71.6351 28.5727C71.7819 28.4312 71.9653 28.3605 72.1854 28.3605C72.3951 28.3605 72.5759 28.4312 72.7279 28.5727C72.8799 28.7142 72.9559 28.9318 72.9559 29.2253C72.9559 29.5188 72.8799 29.7389 72.7279 29.8857C72.5759 30.0272 72.3951 30.0979 72.1854 30.0979C71.9653 30.0979 71.7819 30.0272 71.6351 29.8857C71.4883 29.7389 71.415 29.5188 71.415 29.2253ZM82.6495 31.5602V32.3857L81.0535 32.5744C81.2003 32.7578 81.3313 32.9989 81.4466 33.2977C81.5619 33.5912 81.6196 33.924 81.6196 34.2961C81.6196 35.14 81.3313 35.8135 80.7548 36.3166C80.1783 36.8198 79.3868 37.0713 78.3805 37.0713C78.1237 37.0713 77.8826 37.0504 77.6572 37.0085C77.1017 37.302 76.8239 37.6715 76.8239 38.117C76.8239 38.3528 76.9209 38.5284 77.1148 38.6437C77.3087 38.7538 77.6415 38.8088 78.1132 38.8088H79.6384C80.5714 38.8088 81.2868 39.0053 81.7847 39.3984C82.2878 39.7915 82.5394 40.3628 82.5394 41.1123C82.5394 42.0662 82.1568 42.7921 81.3916 43.29C80.6264 43.7932 79.51 44.0448 78.0425 44.0448C76.9156 44.0448 76.0456 43.8351 75.4324 43.4158C74.8244 42.9965 74.5204 42.4043 74.5204 41.6391C74.5204 41.1149 74.6881 40.6616 75.0235 40.279C75.359 39.8964 75.8307 39.6369 76.4387 39.5006C76.2185 39.4011 76.0325 39.2464 75.8805 39.0368C75.7337 38.8271 75.6603 38.5834 75.6603 38.3056C75.6603 37.9912 75.7442 37.716 75.9119 37.4802C76.0796 37.2443 76.3443 37.0163 76.706 36.7962C76.2605 36.6127 75.8962 36.3009 75.6132 35.8606C75.3354 35.4204 75.1965 34.9172 75.1965 34.3512C75.1965 33.4077 75.4795 32.6818 76.0456 32.1734C76.6116 31.6598 77.4135 31.403 78.4513 31.403C78.902 31.403 79.3082 31.4554 79.6699 31.5602H82.6495ZM75.7783 41.6233C75.7783 42.0898 75.9748 42.4436 76.3679 42.6847C76.761 42.9258 77.3244 43.0463 78.0582 43.0463C79.1536 43.0463 79.9634 42.8812 80.4875 42.551C81.0169 42.2261 81.2815 41.7832 81.2815 41.2224C81.2815 40.7559 81.1374 40.431 80.8491 40.2475C80.5609 40.0693 80.0184 39.9802 79.2217 39.9802H77.6572C77.065 39.9802 76.6038 40.1217 76.2736 40.4048C75.9434 40.6878 75.7783 41.094 75.7783 41.6233ZM76.4858 34.3197C76.4858 34.9225 76.6562 35.3784 76.9969 35.6877C77.3375 35.9969 77.8119 36.1515 78.4198 36.1515C79.6935 36.1515 80.3303 35.5331 80.3303 34.2961C80.3303 33.0016 79.6856 32.3543 78.3963 32.3543C77.783 32.3543 77.3113 32.5194 76.9811 32.8496C76.6509 33.1798 76.4858 33.6698 76.4858 34.3197ZM90.3147 40.1768V34.6027C90.3147 33.9004 90.1549 33.3763 89.8352 33.0304C89.5155 32.6845 89.0149 32.5115 88.3336 32.5115C87.4321 32.5115 86.7717 32.7552 86.3524 33.2426C85.9331 33.7301 85.7235 34.5346 85.7235 35.6562V40.1768H84.4184V31.5602H85.4797L85.692 32.7395H85.7549C86.0222 32.315 86.3969 31.9874 86.8791 31.7568C87.3613 31.5209 87.8986 31.403 88.4908 31.403C89.5286 31.403 90.3095 31.6546 90.8336 32.1577C91.3577 32.6556 91.6198 33.4549 91.6198 34.5556V40.1768H90.3147ZM99.7175 31.5602V37.15C99.7175 37.8523 99.8773 38.3764 100.197 38.7223C100.517 39.0682 101.017 39.2412 101.699 39.2412C102.6 39.2412 103.258 38.9949 103.672 38.5022C104.091 38.0095 104.301 37.205 104.301 36.0886V31.5602H105.606V40.1768H104.529L104.34 39.0211H104.269C104.002 39.4456 103.63 39.7706 103.153 39.9959C102.681 40.2213 102.142 40.334 101.534 40.334C100.485 40.334 99.6991 40.085 99.175 39.5871C98.6561 39.0892 98.3967 38.2925 98.3967 37.1971V31.5602H99.7175ZM112.391 40.334C111.83 40.334 111.316 40.2318 110.85 40.0274C110.389 39.8177 110.001 39.498 109.686 39.0682H109.592C109.655 39.5714 109.686 40.0483 109.686 40.4991V44.0448H108.381V31.5602H109.443L109.623 32.7395H109.686C110.022 32.2678 110.412 31.9271 110.858 31.7175C111.303 31.5078 111.814 31.403 112.391 31.403C113.533 31.403 114.414 31.7935 115.032 32.5744C115.656 33.3553 115.968 34.4507 115.968 35.8606C115.968 37.2758 115.651 38.3764 115.017 39.1626C114.388 39.9435 113.512 40.334 112.391 40.334ZM112.202 32.5115C111.321 32.5115 110.685 32.7552 110.292 33.2426C109.899 33.7301 109.697 34.5058 109.686 35.5697V35.8606C109.686 37.0713 109.888 37.9388 110.292 38.4629C110.695 38.9818 111.342 39.2412 112.233 39.2412C112.978 39.2412 113.559 38.9398 113.979 38.3371C114.403 37.7344 114.616 36.9036 114.616 35.8449C114.616 34.7705 114.403 33.9476 113.979 33.3763C113.559 32.7998 112.967 32.5115 112.202 32.5115ZM125.221 39.2569C125.452 39.2569 125.675 39.2412 125.889 39.2098C126.104 39.1731 126.275 39.1364 126.4 39.0997V40.0981C126.259 40.1663 126.049 40.2213 125.771 40.2632C125.499 40.3104 125.253 40.334 125.032 40.334C123.366 40.334 122.532 39.4561 122.532 37.7003V32.5744H121.298V31.9454L122.532 31.403L123.083 29.5633H123.837V31.5602H126.338V32.5744H123.837V37.6453C123.837 38.1641 123.961 38.5625 124.207 38.8403C124.453 39.118 124.791 39.2569 125.221 39.2569ZM135.567 35.8606C135.567 37.2653 135.214 38.3633 134.506 39.1547C133.798 39.9409 132.821 40.334 131.574 40.334C130.803 40.334 130.119 40.1532 129.522 39.7915C128.924 39.4299 128.463 38.911 128.138 38.2349C127.813 37.5588 127.65 36.7674 127.65 35.8606C127.65 34.456 128.002 33.3632 128.704 32.5823C129.406 31.7961 130.381 31.403 131.629 31.403C132.834 31.403 133.791 31.8039 134.498 32.6058C135.211 33.4077 135.567 34.4927 135.567 35.8606ZM129.003 35.8606C129.003 36.9613 129.223 37.7999 129.663 38.3764C130.103 38.9529 130.751 39.2412 131.605 39.2412C132.459 39.2412 133.107 38.9556 133.547 38.3843C133.992 37.8077 134.215 36.9665 134.215 35.8606C134.215 34.7652 133.992 33.9345 133.547 33.3684C133.107 32.7971 132.454 32.5115 131.589 32.5115C130.735 32.5115 130.09 32.7919 129.655 33.3527C129.22 33.9135 129.003 34.7495 129.003 35.8606ZM140.567 43.2036C140.075 43.2036 139.687 43.1328 139.404 42.9913V41.8513C139.776 41.9561 140.164 42.0086 140.567 42.0086C141.086 42.0086 141.479 41.8513 141.747 41.5369C142.019 41.2224 142.155 40.769 142.155 40.1768V28.6828H143.492V40.0667C143.492 41.0625 143.24 41.833 142.737 42.3781C142.234 42.9284 141.511 43.2036 140.567 43.2036ZM151.653 40.1768L151.393 38.9503H151.33C150.9 39.4902 150.471 39.857 150.041 40.051C149.616 40.2397 149.084 40.334 148.445 40.334C147.591 40.334 146.92 40.1139 146.432 39.6736C145.95 39.2333 145.709 38.607 145.709 37.7946C145.709 36.0546 147.101 35.1426 149.884 35.0587L151.346 35.0116V34.4769C151.346 33.8008 151.199 33.3029 150.906 32.9832C150.617 32.6583 150.154 32.4958 149.514 32.4958C148.796 32.4958 147.984 32.7159 147.077 33.1562L146.676 32.1577C147.101 31.9271 147.564 31.7463 148.068 31.6153C148.576 31.4842 149.084 31.4187 149.593 31.4187C150.62 31.4187 151.38 31.6467 151.873 32.1027C152.371 32.5587 152.62 33.2898 152.62 34.2961V40.1768H151.653ZM148.704 39.2569C149.517 39.2569 150.154 39.0342 150.615 38.5887C151.081 38.1432 151.314 37.5195 151.314 36.7176V35.9392L150.009 35.9943C148.972 36.031 148.222 36.1934 147.761 36.4817C147.305 36.7647 147.077 37.2076 147.077 37.8104C147.077 38.2821 147.218 38.6411 147.502 38.8874C147.79 39.1338 148.191 39.2569 148.704 39.2569ZM160.827 40.1768H154.577V39.2884L159.278 32.5744H154.868V31.5602H160.709V32.5744L156.071 39.1626H160.827V40.1768ZM168.359 40.1768H162.109V39.2884L166.81 32.5744H162.4V31.5602H168.241V32.5744L163.602 39.1626H168.359V40.1768ZM169.011 31.5602H170.411L172.298 36.4738C172.712 37.5955 172.969 38.4052 173.068 38.9031H173.131C173.199 38.6358 173.341 38.1799 173.556 37.5352C173.776 36.8853 174.488 34.8936 175.694 31.5602H177.093L173.39 41.3718C173.024 42.3414 172.594 43.028 172.101 43.4315C171.614 43.8404 171.014 44.0448 170.301 44.0448C169.902 44.0448 169.509 44.0002 169.121 43.9111V42.8655C169.41 42.9284 169.732 42.9598 170.088 42.9598C170.985 42.9598 171.624 42.4567 172.007 41.4504L172.486 40.2239L169.011 31.5602ZM189.358 37.1185C189.358 38.1301 188.991 38.9189 188.257 39.4849C187.523 40.051 186.528 40.334 185.27 40.334C183.907 40.334 182.859 40.1584 182.125 39.8073V38.5179C182.597 38.7171 183.11 38.8743 183.666 38.9896C184.221 39.1049 184.772 39.1626 185.317 39.1626C186.208 39.1626 186.879 38.9949 187.329 38.6594C187.78 38.3188 188.006 37.847 188.006 37.2443C188.006 36.846 187.924 36.521 187.762 36.2694C187.605 36.0126 187.337 35.7768 186.96 35.5619C186.588 35.347 186.019 35.1033 185.254 34.8307C184.185 34.4481 183.419 33.9948 182.958 33.4706C182.502 32.9465 182.274 32.2625 182.274 31.4187C182.274 30.5329 182.607 29.828 183.273 29.3039C183.938 28.7798 184.819 28.5177 185.914 28.5177C187.057 28.5177 188.108 28.7273 189.067 29.1466L188.65 30.3102C187.702 29.9119 186.779 29.7127 185.883 29.7127C185.175 29.7127 184.622 29.8647 184.224 30.1687C183.826 30.4727 183.627 30.8946 183.627 31.4344C183.627 31.8328 183.7 32.1603 183.847 32.4172C183.993 32.6687 184.24 32.902 184.586 33.1169C184.937 33.3265 185.471 33.5597 186.189 33.8166C187.395 34.2463 188.223 34.7076 188.674 35.2002C189.13 35.6929 189.358 36.3323 189.358 37.1185ZM195.521 40.334C194.961 40.334 194.447 40.2318 193.981 40.0274C193.519 39.8177 193.131 39.498 192.817 39.0682H192.723C192.786 39.5714 192.817 40.0483 192.817 40.4991V44.0448H191.512V31.5602H192.573L192.754 32.7395H192.817C193.152 32.2678 193.543 31.9271 193.988 31.7175C194.434 31.5078 194.945 31.403 195.521 31.403C196.664 31.403 197.545 31.7935 198.163 32.5744C198.787 33.3553 199.099 34.4507 199.099 35.8606C199.099 37.2758 198.781 38.3764 198.147 39.1626C197.518 39.9435 196.643 40.334 195.521 40.334ZM195.333 32.5115C194.452 32.5115 193.815 32.7552 193.422 33.2426C193.029 33.7301 192.827 34.5058 192.817 35.5697V35.8606C192.817 37.0713 193.019 37.9388 193.422 38.4629C193.826 38.9818 194.473 39.2412 195.364 39.2412C196.108 39.2412 196.69 38.9398 197.11 38.3371C197.534 37.7344 197.746 36.9036 197.746 35.8449C197.746 34.7705 197.534 33.9476 197.11 33.3763C196.69 32.7998 196.098 32.5115 195.333 32.5115ZM202.691 40.1768H201.386V31.5602H202.691V40.1768ZM201.276 29.2253C201.276 28.9265 201.35 28.709 201.496 28.5727C201.643 28.4312 201.827 28.3605 202.047 28.3605C202.256 28.3605 202.437 28.4312 202.589 28.5727C202.741 28.7142 202.817 28.9318 202.817 29.2253C202.817 29.5188 202.741 29.7389 202.589 29.8857C202.437 30.0272 202.256 30.0979 202.047 30.0979C201.827 30.0979 201.643 30.0272 201.496 29.8857C201.35 29.7389 201.276 29.5188 201.276 29.2253ZM211.355 40.1768V34.6027C211.355 33.9004 211.195 33.3763 210.876 33.0304C210.556 32.6845 210.055 32.5115 209.374 32.5115C208.472 32.5115 207.812 32.7552 207.393 33.2426C206.973 33.7301 206.764 34.5346 206.764 35.6562V40.1768H205.459V31.5602H206.52L206.732 32.7395H206.795C207.063 32.315 207.437 31.9874 207.919 31.7568C208.402 31.5209 208.939 31.403 209.531 31.403C210.569 31.403 211.35 31.6546 211.874 32.1577C212.398 32.6556 212.66 33.4549 212.66 34.5556V40.1768H211.355ZM220.907 37.8261C220.907 38.628 220.608 39.2464 220.011 39.6815C219.413 40.1165 218.575 40.334 217.495 40.334C216.353 40.334 215.462 40.1532 214.822 39.7915V38.5808C215.236 38.7905 215.679 38.9556 216.151 39.0761C216.628 39.1967 217.086 39.2569 217.527 39.2569C218.208 39.2569 218.732 39.1495 219.099 38.9346C219.466 38.7145 219.649 38.3816 219.649 37.9361C219.649 37.6007 219.503 37.3151 219.209 37.0792C218.921 36.8381 218.355 36.5551 217.511 36.2301C216.709 35.9314 216.138 35.6719 215.797 35.4518C215.462 35.2264 215.21 34.9722 215.042 34.6892C214.88 34.4062 214.799 34.0681 214.799 33.675C214.799 32.9727 215.084 32.4198 215.656 32.0162C216.227 31.6074 217.01 31.403 218.006 31.403C218.934 31.403 219.841 31.5917 220.726 31.969L220.263 33.0304C219.398 32.674 218.614 32.4958 217.912 32.4958C217.293 32.4958 216.827 32.5927 216.512 32.7867C216.198 32.9806 216.041 33.2479 216.041 33.5886C216.041 33.8192 216.098 34.0157 216.214 34.1782C216.334 34.3407 216.526 34.4953 216.788 34.642C217.05 34.7888 217.553 35.0011 218.297 35.2789C219.319 35.651 220.008 36.0257 220.365 36.4031C220.726 36.7805 220.907 37.2548 220.907 37.8261Z" fill="#5E5E5E"/>
<path d="M276.991 2.0127L290.548 25.4933H283.253L276.991 2.0127Z" fill="#FC0035"/>
<path d="M276.991 48.9736L290.548 25.493H283.253L276.991 48.9736Z" fill="#DD0524"/>
</svg>
