<svg width="223" height="51" viewBox="0 0 223 51" fill="none" xmlns="http://www.w3.org/2000/svg">
<circle cx="25.4932" cy="25.4932" r="25.4932" fill="#FC0035"/>
<path d="M32.2001 36.4775H17.6747V33.4218L22.8908 28.1489C24.4352 26.5665 25.4443 25.4722 25.9181 24.8657C26.3919 24.2499 26.733 23.6814 26.9414 23.1602C27.1499 22.6391 27.2541 22.099 27.2541 21.54C27.2541 20.7062 27.022 20.0855 26.5577 19.6781C26.1029 19.2707 25.4917 19.067 24.7242 19.067C23.9188 19.067 23.1371 19.2517 22.3791 19.6213C21.6211 19.9908 20.8299 20.5167 20.0056 21.1989L17.6179 18.3705C18.6412 17.4988 19.4892 16.8829 20.1619 16.5229C20.8347 16.1628 21.569 15.888 22.3649 15.6985C23.1608 15.4996 24.0515 15.4001 25.0369 15.4001C26.335 15.4001 27.4815 15.637 28.4764 16.1107C29.4713 16.5845 30.2435 17.2477 30.7931 18.1005C31.3426 18.9533 31.6174 19.9292 31.6174 21.0283C31.6174 21.9853 31.4468 22.8854 31.1057 23.7287C30.7741 24.5625 30.253 25.42 29.5423 26.3012C28.8412 27.1824 27.5999 28.4379 25.8186 30.0676L23.1466 32.5833V32.7822H32.2001V36.4775Z" fill="white"/>
<path d="M74.1181 16.9764C74.1181 19.1838 73.4883 20.8745 72.2287 22.0485C70.9751 23.2226 69.1621 23.8096 66.7896 23.8096H62.9924V10.4H67.2024C69.3914 10.4 71.0913 10.9778 72.302 12.1335C73.5128 13.2892 74.1181 14.9035 74.1181 16.9764ZM71.1647 17.0497C71.1647 14.1697 69.8928 12.7297 67.3491 12.7297H65.8357V21.4615H67.0556C69.795 21.4615 71.1647 19.9909 71.1647 17.0497ZM84.6202 23.8096H76.8973V10.4H84.6202V12.7297H79.7406V15.6739H84.2808V18.0036H79.7406V21.4615H84.6202V23.8096ZM90.2702 16.7104H91.2058C92.0802 16.7104 92.7344 16.5391 93.1686 16.1967C93.6027 15.8482 93.8198 15.3437 93.8198 14.6833C93.8198 14.0168 93.6364 13.5246 93.2695 13.2066C92.9087 12.8886 92.34 12.7297 91.5635 12.7297H90.2702V16.7104ZM96.6907 14.5824C96.6907 16.0255 96.2382 17.1292 95.3332 17.8936C94.4343 18.6579 93.1533 19.0401 91.4901 19.0401H90.2702V23.8096H87.4268V10.4H91.7102C93.3367 10.4 94.5719 10.7515 95.4157 11.4547C96.2657 12.1518 96.6907 13.1944 96.6907 14.5824ZM111.394 17.0864C111.394 19.3061 110.843 21.0121 109.743 22.2045C108.642 23.3968 107.064 23.993 105.01 23.993C102.955 23.993 101.378 23.3968 100.277 22.2045C99.1763 21.0121 98.626 19.3 98.626 17.0681C98.626 14.8362 99.1763 13.1332 100.277 11.9592C101.384 10.7791 102.967 10.189 105.028 10.189C107.089 10.189 108.663 10.7821 109.752 11.9684C110.846 13.1546 111.394 14.8607 111.394 17.0864ZM101.607 17.0864C101.607 18.5845 101.891 19.7127 102.46 20.4709C103.029 21.2292 103.879 21.6083 105.01 21.6083C107.278 21.6083 108.413 20.101 108.413 17.0864C108.413 14.0657 107.284 12.5554 105.028 12.5554C103.897 12.5554 103.044 12.9376 102.469 13.7019C101.894 14.4601 101.607 15.5883 101.607 17.0864ZM122.088 20.0857C122.088 21.2964 121.651 22.2503 120.777 22.9474C119.908 23.6445 118.698 23.993 117.144 23.993C115.714 23.993 114.448 23.724 113.347 23.1859V20.5443C114.252 20.9479 115.017 21.2322 115.64 21.3973C116.27 21.5624 116.845 21.645 117.365 21.645C117.988 21.645 118.465 21.5257 118.795 21.2872C119.132 21.0488 119.3 20.6941 119.3 20.2233C119.3 19.9603 119.227 19.728 119.08 19.5262C118.933 19.3183 118.716 19.1196 118.429 18.93C118.147 18.7405 117.569 18.4378 116.695 18.022C115.876 17.6367 115.261 17.2668 114.851 16.9121C114.442 16.5575 114.115 16.1447 113.87 15.6739C113.625 15.2031 113.503 14.6528 113.503 14.0229C113.503 12.8367 113.904 11.9042 114.705 11.2254C115.512 10.5467 116.625 10.2073 118.043 10.2073C118.74 10.2073 119.404 10.2899 120.034 10.455C120.67 10.6201 121.333 10.8524 122.024 11.1521L121.107 13.3625C120.391 13.069 119.798 12.8642 119.327 12.748C118.863 12.6318 118.404 12.5737 117.952 12.5737C117.414 12.5737 117.001 12.6991 116.713 12.9498C116.426 13.2005 116.282 13.5276 116.282 13.9312C116.282 14.1819 116.34 14.402 116.457 14.5916C116.573 14.775 116.756 14.9554 117.007 15.1328C117.264 15.304 117.866 15.6158 118.814 16.0683C120.067 16.6676 120.926 17.2699 121.391 17.8752C121.856 18.4745 122.088 19.2113 122.088 20.0857ZM124.519 23.8096V10.4H127.362V23.8096H124.519ZM135.911 23.8096H133.067V12.7664H129.426V10.4H139.552V12.7664H135.911V23.8096Z" fill="#DD0524"/>
<path d="M66.6664 28.5334C67.6623 28.5334 68.6057 28.7536 69.4967 29.1938L69.0171 30.2394C68.21 29.8359 67.4317 29.6341 66.6822 29.6341C66.0375 29.6341 65.5501 29.7966 65.2199 30.1215C64.8949 30.4465 64.7324 30.9758 64.7324 31.7096V34.0288H68.0501V35.0273H64.7324V36.7647C64.7324 37.2889 64.646 37.7291 64.473 38.0855C64.3053 38.4419 64.0275 38.7354 63.6396 38.966H69.8898V40.1768H61.8V39.0682C62.8744 38.8219 63.4117 38.0593 63.4117 36.7805V35.0273H61.855V34.0288H63.4117V31.5445C63.4117 30.6116 63.7052 29.8778 64.2922 29.3432C64.8792 28.8033 65.6706 28.5334 66.6664 28.5334ZM76.1399 40.1768H74.8663V31.9848C74.8663 31.3034 74.8873 30.6587 74.9292 30.0508C74.8191 30.1608 74.696 30.2761 74.5597 30.3967C74.4234 30.5172 73.7997 31.0282 72.6886 31.9297L71.9967 31.0335L75.0393 28.6828H76.1399V40.1768ZM88.137 34.4141C88.137 36.4005 87.8226 37.8837 87.1936 38.8638C86.5699 39.8439 85.6134 40.334 84.3241 40.334C83.0871 40.334 82.1463 39.8335 81.5017 38.8324C80.857 37.8261 80.5347 36.3533 80.5347 34.4141C80.5347 32.4119 80.8465 30.926 81.4702 29.9564C82.0939 28.9868 83.0452 28.502 84.3241 28.502C85.5715 28.502 86.5175 29.0078 87.1622 30.0193C87.8121 31.0309 88.137 32.4958 88.137 34.4141ZM81.8554 34.4141C81.8554 36.086 82.052 37.3046 82.4451 38.0698C82.8382 38.8298 83.4645 39.2098 84.3241 39.2098C85.1941 39.2098 85.823 38.8245 86.2109 38.0541C86.604 37.2784 86.8005 36.065 86.8005 34.4141C86.8005 32.7631 86.604 31.555 86.2109 30.7898C85.823 30.0193 85.1941 29.6341 84.3241 29.6341C83.4645 29.6341 82.8382 30.0141 82.4451 30.774C82.052 31.5288 81.8554 32.7421 81.8554 34.4141ZM101.95 35.8606C101.95 37.2653 101.596 38.3633 100.889 39.1547C100.181 39.9409 99.2038 40.334 97.9564 40.334C97.186 40.334 96.502 40.1532 95.9045 39.7915C95.307 39.4299 94.8458 38.911 94.5208 38.2349C94.1959 37.5588 94.0334 36.7674 94.0334 35.8606C94.0334 34.456 94.3845 33.3632 95.0869 32.5823C95.7892 31.7961 96.7641 31.403 98.0115 31.403C99.2169 31.403 100.173 31.8039 100.881 32.6058C101.594 33.4077 101.95 34.4927 101.95 35.8606ZM95.3856 35.8606C95.3856 36.9613 95.6057 37.7999 96.046 38.3764C96.4863 38.9529 97.1336 39.2412 97.9879 39.2412C98.8422 39.2412 99.4895 38.9556 99.9297 38.3843C100.375 37.8077 100.598 36.9665 100.598 35.8606C100.598 34.7652 100.375 33.9345 99.9297 33.3684C99.4895 32.7971 98.8369 32.5115 97.9721 32.5115C97.1178 32.5115 96.4732 32.7919 96.0381 33.3527C95.6031 33.9135 95.3856 34.7495 95.3856 35.8606ZM108.177 31.403C108.559 31.403 108.903 31.4344 109.207 31.4973L109.026 32.708C108.669 32.6294 108.355 32.5901 108.082 32.5901C107.385 32.5901 106.788 32.8731 106.29 33.4392C105.797 34.0052 105.551 34.7102 105.551 35.554V40.1768H104.246V31.5602H105.323L105.472 33.1562H105.535C105.855 32.5954 106.24 32.163 106.691 31.859C107.142 31.555 107.637 31.403 108.177 31.403ZM125.984 40.1768V34.5713C125.984 33.8847 125.837 33.3711 125.544 33.0304C125.25 32.6845 124.794 32.5115 124.176 32.5115C123.363 32.5115 122.763 32.7447 122.375 33.2112C121.987 33.6777 121.793 34.3957 121.793 35.3653V40.1768H120.488V34.5713C120.488 33.8847 120.342 33.3711 120.048 33.0304C119.755 32.6845 119.296 32.5115 118.672 32.5115C117.855 32.5115 117.255 32.7578 116.872 33.2505C116.495 33.7379 116.306 34.5398 116.306 35.6562V40.1768H115.001V31.5602H116.062L116.274 32.7395H116.337C116.584 32.3202 116.93 31.9926 117.375 31.7568C117.826 31.5209 118.329 31.403 118.885 31.403C120.232 31.403 121.112 31.8904 121.526 32.8653H121.589C121.846 32.4145 122.218 32.0581 122.705 31.7961C123.193 31.534 123.748 31.403 124.372 31.403C125.347 31.403 126.075 31.6546 126.558 32.1577C127.045 32.6556 127.289 33.4549 127.289 34.5556V40.1768H125.984ZM137.423 35.8606C137.423 37.2653 137.069 38.3633 136.361 39.1547C135.654 39.9409 134.676 40.334 133.429 40.334C132.658 40.334 131.974 40.1532 131.377 39.7915C130.779 39.4299 130.318 38.911 129.993 38.2349C129.668 37.5588 129.506 36.7674 129.506 35.8606C129.506 34.456 129.857 33.3632 130.559 32.5823C131.262 31.7961 132.237 31.403 133.484 31.403C134.689 31.403 135.646 31.8039 136.353 32.6058C137.066 33.4077 137.423 34.4927 137.423 35.8606ZM130.858 35.8606C130.858 36.9613 131.078 37.7999 131.518 38.3764C131.959 38.9529 132.606 39.2412 133.46 39.2412C134.315 39.2412 134.962 38.9556 135.402 38.3843C135.848 37.8077 136.07 36.9665 136.07 35.8606C136.07 34.7652 135.848 33.9345 135.402 33.3684C134.962 32.7971 134.309 32.5115 133.445 32.5115C132.59 32.5115 131.946 32.7919 131.511 33.3527C131.076 33.9135 130.858 34.7495 130.858 35.8606ZM143.649 31.403C144.032 31.403 144.375 31.4344 144.679 31.4973L144.498 32.708C144.142 32.6294 143.827 32.5901 143.555 32.5901C142.858 32.5901 142.26 32.8731 141.762 33.4392C141.27 34.0052 141.023 34.7102 141.023 35.554V40.1768H139.718V31.5602H140.795L140.945 33.1562H141.008C141.327 32.5954 141.713 32.163 142.163 31.859C142.614 31.555 143.109 31.403 143.649 31.403ZM149.931 40.334C148.657 40.334 147.651 39.9461 146.912 39.1704C146.178 38.3947 145.811 37.3177 145.811 35.9392C145.811 34.5503 146.152 33.4471 146.833 32.6294C147.52 31.8118 148.44 31.403 149.593 31.403C150.672 31.403 151.527 31.7594 152.156 32.4722C152.785 33.1798 153.099 34.1153 153.099 35.2789V36.1043H147.163C147.19 37.1159 147.444 37.8837 147.926 38.4079C148.413 38.932 149.097 39.194 149.978 39.194C150.906 39.194 151.823 39.0001 152.73 38.6123V39.7758C152.268 39.975 151.831 40.1165 151.417 40.2003C151.008 40.2894 150.513 40.334 149.931 40.334ZM149.577 32.4958C148.885 32.4958 148.332 32.7211 147.918 33.1719C147.509 33.6226 147.268 34.2463 147.195 35.043H151.7C151.7 34.2201 151.516 33.5912 151.149 33.1562C150.783 32.7159 150.258 32.4958 149.577 32.4958Z" fill="#5E5E5E"/>
<path d="M208.991 2.0127L222.548 25.4933H215.253L208.991 2.0127Z" fill="#FC0035"/>
<path d="M208.991 48.9736L222.548 25.493H215.253L208.991 48.9736Z" fill="#DD0524"/>
</svg>
