<svg width="264" height="51" viewBox="0 0 264 51" fill="none" xmlns="http://www.w3.org/2000/svg">
<circle cx="25.4932" cy="25.4932" r="25.4932" fill="#FC0035"/>
<path d="M31.39 20.3461C31.39 21.6442 30.9968 22.7481 30.2103 23.6577C29.4239 24.5673 28.32 25.1926 26.8988 25.5337V25.619C28.5759 25.8275 29.8455 26.3391 30.7078 27.154C31.57 27.9594 32.0011 29.049 32.0011 30.4229C32.0011 32.4222 31.2763 33.9808 29.8266 35.0989C28.3769 36.2075 26.3066 36.7618 23.6156 36.7618C21.3606 36.7618 19.3613 36.3875 17.6179 35.639V31.901C18.4233 32.3085 19.3092 32.6401 20.2756 32.8959C21.2421 33.1518 22.1991 33.2797 23.1466 33.2797C24.5963 33.2797 25.667 33.0333 26.3587 32.5406C27.0504 32.0479 27.3962 31.2567 27.3962 30.1671C27.3962 29.1912 26.9983 28.4995 26.2024 28.092C25.4064 27.6846 24.1368 27.4809 22.3933 27.4809H20.8157V24.1125H22.4218C24.0325 24.1125 25.2075 23.904 25.9465 23.4871C26.6951 23.0607 27.0693 22.3359 27.0693 21.3126C27.0693 19.7397 26.0839 18.9533 24.1131 18.9533C23.4309 18.9533 22.7344 19.067 22.0238 19.2944C21.3227 19.5218 20.541 19.915 19.6787 20.474L17.6463 17.4467C19.5413 16.0823 21.8011 15.4001 24.4258 15.4001C26.5766 15.4001 28.2727 15.8359 29.5139 16.7076C30.7646 17.5794 31.39 18.7922 31.39 20.3461Z" fill="white"/>
<path d="M79.433 16.2793H84.7528V23.2317C83.8906 23.513 83.0774 23.7087 82.313 23.8187C81.5548 23.9349 80.7782 23.993 79.9833 23.993C77.9593 23.993 76.4123 23.3999 75.3422 22.2136C74.2782 21.0213 73.7463 19.3122 73.7463 17.0864C73.7463 14.9218 74.3639 13.2341 75.599 12.0234C76.8403 10.8127 78.5586 10.2073 80.7538 10.2073C82.1296 10.2073 83.4565 10.4825 84.7344 11.0328L83.7897 13.3075C82.8114 12.8183 81.7933 12.5737 80.7354 12.5737C79.5063 12.5737 78.5219 12.9865 77.782 13.812C77.0421 14.6375 76.6722 15.7473 76.6722 17.1414C76.6722 18.5968 76.9687 19.7096 77.5619 20.4801C78.1611 21.2444 79.0294 21.6266 80.1667 21.6266C80.7599 21.6266 81.3622 21.5655 81.9736 21.4432V18.6457H79.433V16.2793ZM95.6768 23.8096H87.9539V10.4H95.6768V12.7297H90.7972V15.6739H95.3374V18.0036H90.7972V21.4615H95.6768V23.8096ZM103.657 23.8096H100.813V12.7664H97.1718V10.4H107.298V12.7664H103.657V23.8096ZM114.241 10.4H118.414C120.316 10.4 121.695 10.6721 122.551 11.2163C123.413 11.7544 123.844 12.6135 123.844 13.7936C123.844 14.5947 123.655 15.252 123.276 15.7656C122.903 16.2793 122.404 16.5881 121.781 16.692V16.7837C122.631 16.9733 123.242 17.3279 123.615 17.8477C123.994 18.3675 124.184 19.0584 124.184 19.9206C124.184 21.1435 123.74 22.0974 122.854 22.7823C121.973 23.4671 120.775 23.8096 119.258 23.8096H114.241V10.4ZM117.084 15.7106H118.735C119.506 15.7106 120.062 15.5914 120.405 15.3529C120.753 15.1144 120.928 14.72 120.928 14.1697C120.928 13.656 120.738 13.2892 120.359 13.069C119.986 12.8428 119.393 12.7297 118.58 12.7297H117.084V15.7106ZM117.084 17.9669V21.4615H118.937C119.72 21.4615 120.298 21.3117 120.671 21.0121C121.044 20.7125 121.23 20.2539 121.23 19.6363C121.23 18.5234 120.435 17.9669 118.846 17.9669H117.084ZM139.033 17.0864C139.033 19.3061 138.483 21.0121 137.382 22.2045C136.282 23.3968 134.704 23.993 132.65 23.993C130.595 23.993 129.017 23.3968 127.917 22.2045C126.816 21.0121 126.266 19.3 126.266 17.0681C126.266 14.8362 126.816 13.1332 127.917 11.9592C129.023 10.7791 130.607 10.189 132.668 10.189C134.729 10.189 136.303 10.7821 137.392 11.9684C138.486 13.1546 139.033 14.8607 139.033 17.0864ZM129.247 17.0864C129.247 18.5845 129.531 19.7127 130.1 20.4709C130.668 21.2292 131.518 21.6083 132.65 21.6083C134.918 21.6083 136.052 20.101 136.052 17.0864C136.052 14.0657 134.924 12.5554 132.668 12.5554C131.537 12.5554 130.684 12.9376 130.109 13.7019C129.534 14.4601 129.247 15.5883 129.247 17.0864ZM153.709 23.8096H150.095L144.261 13.6652H144.179C144.295 15.4568 144.353 16.7348 144.353 17.4992V23.8096H141.812V10.4H145.399L151.223 20.4434H151.287C151.196 18.7007 151.15 17.4686 151.15 16.747V10.4H153.709V23.8096ZM168.008 10.4V19.0768C168.008 20.0674 167.785 20.9356 167.338 21.6816C166.898 22.4276 166.259 22.9994 165.421 23.3968C164.584 23.7943 163.593 23.993 162.45 23.993C160.725 23.993 159.386 23.5528 158.432 22.6722C157.478 21.7856 157.001 20.5749 157.001 19.0401V10.4H159.836V18.609C159.836 19.6424 160.044 20.4006 160.459 20.8837C160.875 21.3667 161.563 21.6083 162.523 21.6083C163.453 21.6083 164.125 21.3667 164.541 20.8837C164.963 20.3945 165.174 19.6301 165.174 18.5906V10.4H168.008ZM179.207 20.0857C179.207 21.2964 178.77 22.2503 177.896 22.9474C177.027 23.6445 175.817 23.993 174.263 23.993C172.833 23.993 171.567 23.724 170.466 23.1859V20.5443C171.371 20.9479 172.135 21.2322 172.759 21.3973C173.389 21.5624 173.964 21.645 174.484 21.645C175.107 21.645 175.584 21.5257 175.914 21.2872C176.251 21.0488 176.419 20.6941 176.419 20.2233C176.419 19.9603 176.345 19.728 176.199 19.5262C176.052 19.3183 175.835 19.1196 175.547 18.93C175.266 18.7405 174.688 18.4378 173.814 18.022C172.995 17.6367 172.38 17.2668 171.97 16.9121C171.561 16.5575 171.234 16.1447 170.989 15.6739C170.744 15.2031 170.622 14.6528 170.622 14.0229C170.622 12.8367 171.023 11.9042 171.824 11.2254C172.631 10.5467 173.744 10.2073 175.162 10.2073C175.859 10.2073 176.523 10.2899 177.153 10.455C177.789 10.6201 178.452 10.8524 179.143 11.1521L178.226 13.3625C177.51 13.069 176.917 12.8642 176.446 12.748C175.982 12.6318 175.523 12.5737 175.071 12.5737C174.532 12.5737 174.12 12.6991 173.832 12.9498C173.545 13.2005 173.401 13.5276 173.401 13.9312C173.401 14.1819 173.459 14.402 173.575 14.5916C173.692 14.775 173.875 14.9554 174.126 15.1328C174.383 15.304 174.985 15.6158 175.933 16.0683C177.186 16.6676 178.045 17.2699 178.51 17.8752C178.975 18.4745 179.207 19.2113 179.207 20.0857Z" fill="#DD0524"/>
<path d="M79.2901 34.1546H83.1975V39.7444C82.5895 39.9383 81.971 40.085 81.3421 40.1846C80.7131 40.2842 79.9846 40.334 79.1565 40.334C77.4164 40.334 76.0616 39.8177 75.0919 38.7852C74.1223 37.7475 73.6375 36.2956 73.6375 34.4298C73.6375 33.2348 73.876 32.1892 74.3529 31.2929C74.8351 30.3914 75.527 29.7048 76.4285 29.2331C77.3299 28.7562 78.386 28.5177 79.5968 28.5177C80.8232 28.5177 81.9658 28.7431 83.0245 29.1938L82.5056 30.3731C81.4679 29.9328 80.4694 29.7127 79.5103 29.7127C78.1109 29.7127 77.0181 30.1294 76.2319 30.9627C75.4457 31.7961 75.0526 32.9518 75.0526 34.4298C75.0526 35.9812 75.43 37.1578 76.1847 37.9597C76.9447 38.7616 78.0585 39.1626 79.526 39.1626C80.3227 39.1626 81.101 39.0709 81.861 38.8874V35.3496H79.2901V34.1546ZM89.4083 40.334C88.1347 40.334 87.1284 39.9461 86.3894 39.1704C85.6556 38.3947 85.2887 37.3177 85.2887 35.9392C85.2887 34.5503 85.6294 33.4471 86.3107 32.6294C86.9973 31.8118 87.9172 31.403 89.0702 31.403C90.1499 31.403 91.0042 31.7594 91.6332 32.4722C92.2621 33.1798 92.5766 34.1153 92.5766 35.2789V36.1043H86.6409C86.6671 37.1159 86.9213 37.8837 87.4035 38.4079C87.891 38.932 88.5749 39.194 89.4555 39.194C90.3832 39.194 91.3004 39.0001 92.2071 38.6123V39.7758C91.7459 39.975 91.3082 40.1165 90.8942 40.2003C90.4854 40.2894 89.9901 40.334 89.4083 40.334ZM89.0545 32.4958C88.3627 32.4958 87.8097 32.7211 87.3957 33.1719C86.9869 33.6226 86.7458 34.2463 86.6724 35.043H91.1772C91.1772 34.2201 90.9938 33.5912 90.6269 33.1562C90.26 32.7159 89.7359 32.4958 89.0545 32.4958ZM97.5924 39.2569C97.823 39.2569 98.0458 39.2412 98.2607 39.2098C98.4756 39.1731 98.6459 39.1364 98.7717 39.0997V40.0981C98.6302 40.1663 98.4205 40.2213 98.1428 40.2632C97.8702 40.3104 97.6239 40.334 97.4037 40.334C95.737 40.334 94.9037 39.4561 94.9037 37.7003V32.5744H93.6694V31.9454L94.9037 31.403L95.454 29.5633H96.2088V31.5602H98.7088V32.5744H96.2088V37.6453C96.2088 38.1641 96.3319 38.5625 96.5783 38.8403C96.8246 39.118 97.1627 39.2569 97.5924 39.2569ZM103.316 31.5602H104.715L106.602 36.4738C107.016 37.5955 107.273 38.4052 107.373 38.9031H107.435C107.504 38.6358 107.645 38.1799 107.86 37.5352C108.08 36.8853 108.793 34.8936 109.998 31.5602H111.398L107.695 41.3718C107.328 42.3414 106.898 43.028 106.406 43.4315C105.918 43.8404 105.318 44.0448 104.605 44.0448C104.207 44.0448 103.814 44.0002 103.426 43.9111V42.8655C103.714 42.9284 104.036 42.9598 104.393 42.9598C105.289 42.9598 105.929 42.4567 106.311 41.4504L106.791 40.2239L103.316 31.5602ZM120.234 35.8606C120.234 37.2653 119.881 38.3633 119.173 39.1547C118.466 39.9409 117.488 40.334 116.241 40.334C115.47 40.334 114.786 40.1532 114.189 39.7915C113.591 39.4299 113.13 38.911 112.805 38.2349C112.48 37.5588 112.318 36.7674 112.318 35.8606C112.318 34.456 112.669 33.3632 113.371 32.5823C114.073 31.7961 115.048 31.403 116.296 31.403C117.501 31.403 118.458 31.8039 119.165 32.6058C119.878 33.4077 120.234 34.4927 120.234 35.8606ZM113.67 35.8606C113.67 36.9613 113.89 37.7999 114.33 38.3764C114.77 38.9529 115.418 39.2412 116.272 39.2412C117.126 39.2412 117.774 38.9556 118.214 38.3843C118.659 37.8077 118.882 36.9665 118.882 35.8606C118.882 34.7652 118.659 33.9345 118.214 33.3684C117.774 32.7971 117.121 32.5115 116.256 32.5115C115.402 32.5115 114.757 32.7919 114.322 33.3527C113.887 33.9135 113.67 34.7495 113.67 35.8606ZM123.757 31.5602V37.15C123.757 37.8523 123.916 38.3764 124.236 38.7223C124.556 39.0682 125.056 39.2412 125.738 39.2412C126.639 39.2412 127.297 38.9949 127.711 38.5022C128.13 38.0095 128.34 37.205 128.34 36.0886V31.5602H129.645V40.1768H128.568L128.379 39.0211H128.309C128.041 39.4456 127.669 39.7706 127.192 39.9959C126.72 40.2213 126.181 40.334 125.573 40.334C124.524 40.334 123.738 40.085 123.214 39.5871C122.695 39.0892 122.436 38.2925 122.436 37.1971V31.5602H123.757ZM136.351 31.403C136.734 31.403 137.077 31.4344 137.381 31.4973L137.2 32.708C136.844 32.6294 136.529 32.5901 136.257 32.5901C135.56 32.5901 134.962 32.8731 134.464 33.4392C133.972 34.0052 133.725 34.7102 133.725 35.554V40.1768H132.42V31.5602H133.497L133.647 33.1562H133.71C134.029 32.5954 134.415 32.163 134.865 31.859C135.316 31.555 135.811 31.403 136.351 31.403ZM153.403 40.1768H152.083L149.763 32.4801C149.653 32.1394 149.53 31.7096 149.394 31.1907C149.258 30.6718 149.187 30.36 149.182 30.2552C149.066 30.947 148.883 31.7044 148.631 32.5272L146.383 40.1768H145.062L142.004 28.6828H143.419L145.235 35.782C145.487 36.7778 145.67 37.6793 145.785 38.4865C145.927 37.5273 146.136 36.5892 146.414 35.6719L148.474 28.6828H149.889L152.051 35.7348C152.303 36.5472 152.515 37.4644 152.688 38.4865C152.788 37.7422 152.976 36.8355 153.254 35.7663L155.062 28.6828H156.477L153.403 40.1768ZM161.721 40.334C160.448 40.334 159.441 39.9461 158.702 39.1704C157.968 38.3947 157.602 37.3177 157.602 35.9392C157.602 34.5503 157.942 33.4471 158.624 32.6294C159.31 31.8118 160.23 31.403 161.383 31.403C162.463 31.403 163.317 31.7594 163.946 32.4722C164.575 33.1798 164.889 34.1153 164.889 35.2789V36.1043H158.954C158.98 37.1159 159.234 37.8837 159.716 38.4079C160.204 38.932 160.888 39.194 161.768 39.194C162.696 39.194 163.613 39.0001 164.52 38.6123V39.7758C164.059 39.975 163.621 40.1165 163.207 40.2003C162.798 40.2894 162.303 40.334 161.721 40.334ZM161.367 32.4958C160.676 32.4958 160.123 32.7211 159.709 33.1719C159.3 33.6226 159.059 34.2463 158.985 35.043H163.49C163.49 34.2201 163.307 33.5912 162.94 33.1562C162.573 32.7159 162.049 32.4958 161.367 32.4958ZM168.427 40.1768H167.122V27.9438H168.427V40.1768ZM174.638 40.334C173.391 40.334 172.424 39.9514 171.737 39.1862C171.056 38.4157 170.715 37.3282 170.715 35.9235C170.715 34.4822 171.061 33.3684 171.753 32.5823C172.45 31.7961 173.441 31.403 174.725 31.403C175.139 31.403 175.553 31.4475 175.967 31.5366C176.381 31.6257 176.706 31.7306 176.942 31.8511L176.541 32.9596C176.252 32.8443 175.938 32.75 175.597 32.6766C175.257 32.598 174.955 32.5587 174.693 32.5587C172.943 32.5587 172.067 33.675 172.067 35.9078C172.067 36.9665 172.28 37.7789 172.704 38.345C173.134 38.911 173.768 39.194 174.607 39.194C175.325 39.194 176.061 39.0394 176.816 38.7302V39.8859C176.239 40.1846 175.513 40.334 174.638 40.334ZM186.305 35.8606C186.305 37.2653 185.951 38.3633 185.244 39.1547C184.536 39.9409 183.559 40.334 182.311 40.334C181.541 40.334 180.857 40.1532 180.259 39.7915C179.662 39.4299 179.201 38.911 178.876 38.2349C178.551 37.5588 178.388 36.7674 178.388 35.8606C178.388 34.456 178.739 33.3632 179.442 32.5823C180.144 31.7961 181.119 31.403 182.366 31.403C183.572 31.403 184.528 31.8039 185.236 32.6058C185.949 33.4077 186.305 34.4927 186.305 35.8606ZM179.74 35.8606C179.74 36.9613 179.961 37.7999 180.401 38.3764C180.841 38.9529 181.488 39.2412 182.343 39.2412C183.197 39.2412 183.844 38.9556 184.285 38.3843C184.73 37.8077 184.953 36.9665 184.953 35.8606C184.953 34.7652 184.73 33.9345 184.285 33.3684C183.844 32.7971 183.192 32.5115 182.327 32.5115C181.473 32.5115 180.828 32.7919 180.393 33.3527C179.958 33.9135 179.74 34.7495 179.74 35.8606ZM199.584 40.1768V34.5713C199.584 33.8847 199.437 33.3711 199.143 33.0304C198.85 32.6845 198.394 32.5115 197.775 32.5115C196.963 32.5115 196.363 32.7447 195.975 33.2112C195.587 33.6777 195.393 34.3957 195.393 35.3653V40.1768H194.088V34.5713C194.088 33.8847 193.941 33.3711 193.648 33.0304C193.354 32.6845 192.896 32.5115 192.272 32.5115C191.455 32.5115 190.854 32.7578 190.472 33.2505C190.094 33.7379 189.906 34.5398 189.906 35.6562V40.1768H188.601V31.5602H189.662L189.874 32.7395H189.937C190.184 32.3202 190.529 31.9926 190.975 31.7568C191.426 31.5209 191.929 31.403 192.484 31.403C193.831 31.403 194.712 31.8904 195.126 32.8653H195.189C195.446 32.4145 195.818 32.0581 196.305 31.7961C196.793 31.534 197.348 31.403 197.972 31.403C198.947 31.403 199.675 31.6546 200.158 32.1577C200.645 32.6556 200.889 33.4549 200.889 34.5556V40.1768H199.584ZM207.225 40.334C205.952 40.334 204.945 39.9461 204.206 39.1704C203.473 38.3947 203.106 37.3177 203.106 35.9392C203.106 34.5503 203.446 33.4471 204.128 32.6294C204.814 31.8118 205.734 31.403 206.887 31.403C207.967 31.403 208.821 31.7594 209.45 32.4722C210.079 33.1798 210.394 34.1153 210.394 35.2789V36.1043H204.458C204.484 37.1159 204.738 37.8837 205.221 38.4079C205.708 38.932 206.392 39.194 207.272 39.194C208.2 39.194 209.117 39.0001 210.024 38.6123V39.7758C209.563 39.975 209.125 40.1165 208.711 40.2003C208.302 40.2894 207.807 40.334 207.225 40.334ZM206.872 32.4958C206.18 32.4958 205.627 32.7211 205.213 33.1719C204.804 33.6226 204.563 34.2463 204.489 35.043H208.994C208.994 34.2201 208.811 33.5912 208.444 33.1562C208.077 32.7159 207.553 32.4958 206.872 32.4958ZM217.005 28.6828H220.252C221.778 28.6828 222.881 28.9108 223.562 29.3668C224.243 29.8228 224.584 30.5434 224.584 31.5288C224.584 32.2101 224.393 32.7736 224.01 33.2191C223.633 33.6593 223.08 33.945 222.351 34.076V34.1546C224.097 34.4534 224.969 35.3706 224.969 36.9062C224.969 37.9335 224.621 38.7354 223.924 39.312C223.232 39.8885 222.262 40.1768 221.015 40.1768H217.005V28.6828ZM218.342 33.6043H220.543C221.487 33.6043 222.165 33.4575 222.579 33.164C222.993 32.8653 223.2 32.3647 223.2 31.6624C223.2 31.0178 222.97 30.5539 222.509 30.2709C222.047 29.9826 221.314 29.8385 220.307 29.8385H218.342V33.6043ZM218.342 34.7364V39.0368H220.74C221.667 39.0368 222.365 38.8586 222.831 38.5022C223.303 38.1406 223.539 37.5771 223.539 36.8119C223.539 36.0991 223.297 35.575 222.815 35.2395C222.338 34.9041 221.61 34.7364 220.63 34.7364H218.342ZM234.687 35.8606C234.687 37.2653 234.333 38.3633 233.625 39.1547C232.918 39.9409 231.94 40.334 230.693 40.334C229.922 40.334 229.238 40.1532 228.641 39.7915C228.043 39.4299 227.582 38.911 227.257 38.2349C226.932 37.5588 226.77 36.7674 226.77 35.8606C226.77 34.456 227.121 33.3632 227.823 32.5823C228.526 31.7961 229.5 31.403 230.748 31.403C231.953 31.403 232.91 31.8039 233.617 32.6058C234.33 33.4077 234.687 34.4927 234.687 35.8606ZM228.122 35.8606C228.122 36.9613 228.342 37.7999 228.782 38.3764C229.223 38.9529 229.87 39.2412 230.724 39.2412C231.579 39.2412 232.226 38.9556 232.666 38.3843C233.112 37.8077 233.334 36.9665 233.334 35.8606C233.334 34.7652 233.112 33.9345 232.666 33.3684C232.226 32.7971 231.573 32.5115 230.709 32.5115C229.854 32.5115 229.21 32.7919 228.775 33.3527C228.339 33.9135 228.122 34.7495 228.122 35.8606ZM242.879 40.1768V34.6027C242.879 33.9004 242.719 33.3763 242.399 33.0304C242.079 32.6845 241.579 32.5115 240.897 32.5115C239.996 32.5115 239.336 32.7552 238.916 33.2426C238.497 33.7301 238.287 34.5346 238.287 35.6562V40.1768H236.982V31.5602H238.044L238.256 32.7395H238.319C238.586 32.315 238.961 31.9874 239.443 31.7568C239.925 31.5209 240.462 31.403 241.055 31.403C242.092 31.403 242.873 31.6546 243.397 32.1577C243.922 32.6556 244.184 33.4549 244.184 34.5556V40.1768H242.879ZM248.099 31.5602V37.15C248.099 37.8523 248.259 38.3764 248.578 38.7223C248.898 39.0682 249.399 39.2412 250.08 39.2412C250.981 39.2412 251.639 38.9949 252.053 38.5022C252.473 38.0095 252.682 37.205 252.682 36.0886V31.5602H253.987V40.1768H252.91L252.722 39.0211H252.651C252.384 39.4456 252.011 39.7706 251.534 39.9959C251.063 40.2213 250.523 40.334 249.915 40.334C248.867 40.334 248.08 40.085 247.556 39.5871C247.037 39.0892 246.778 38.2925 246.778 37.1971V31.5602H248.099ZM262.321 37.8261C262.321 38.628 262.022 39.2464 261.425 39.6815C260.827 40.1165 259.988 40.334 258.909 40.334C257.766 40.334 256.875 40.1532 256.236 39.7915V38.5808C256.65 38.7905 257.093 38.9556 257.564 39.0761C258.041 39.1967 258.5 39.2569 258.94 39.2569C259.622 39.2569 260.146 39.1495 260.513 38.9346C260.88 38.7145 261.063 38.3816 261.063 37.9361C261.063 37.6007 260.916 37.3151 260.623 37.0792C260.334 36.8381 259.768 36.5551 258.925 36.2301C258.123 35.9314 257.551 35.6719 257.211 35.4518C256.875 35.2264 256.624 34.9722 256.456 34.6892C256.293 34.4062 256.212 34.0681 256.212 33.675C256.212 32.9727 256.498 32.4198 257.069 32.0162C257.64 31.6074 258.424 31.403 259.42 31.403C260.348 31.403 261.254 31.5917 262.14 31.969L261.676 33.0304C260.811 32.674 260.028 32.4958 259.325 32.4958C258.707 32.4958 258.241 32.5927 257.926 32.7867C257.612 32.9806 257.454 33.2479 257.454 33.5886C257.454 33.8192 257.512 34.0157 257.627 34.1782C257.748 34.3407 257.939 34.4953 258.201 34.642C258.463 34.7888 258.966 35.0011 259.711 35.2789C260.733 35.651 261.422 36.0257 261.778 36.4031C262.14 36.7805 262.321 37.2548 262.321 37.8261Z" fill="#5E5E5E"/>
</svg>
